SplineFontDB: 3.2
FontName: LittleCharacterRegular
FullName: Little Character Regular
FamilyName: Little Character
Weight: Book
Copyright:  
Version: 1.0
ItalicAngle: 0
UnderlinePosition: -142
UnderlineWidth: 28
Ascent: 940
Descent: 235
InvalidEm: 0
sfntRevision: 0x00010000
LayerCount: 2
Layer: 0 1 "Back" 1
Layer: 1 1 "Fore" 0
XUID: [1021 543 1767942825 1844649]
StyleMap: 0x0000
FSType: 0
OS2Version: 1
OS2_WeightWidthSlopeOnly: 0
OS2_UseTypoMetrics: 0
CreationTime: 1750210556
ModificationTime: 1750210556
PfmFamily: 17
TTFWeight: 400
TTFWidth: 5
LineGap: 106
VLineGap: 0
Panose: 2 0 5 3 0 0 0 0 0 0
OS2TypoAscent: 940
OS2TypoAOffset: 0
OS2TypoDescent: -235
OS2TypoDOffset: 0
OS2TypoLinegap: 106
OS2WinAscent: 970
OS2WinAOffset: 0
OS2WinDescent: 279
OS2WinDOffset: 0
HheadAscent: 970
HheadAOffset: 0
HheadDescent: -279
HheadDOffset: 0
OS2SubXSize: 763
OS2SubYSize: 822
OS2SubXOff: 0
OS2SubYOff: 164
OS2SupXSize: 763
OS2SupYSize: 822
OS2SupXOff: 0
OS2SupYOff: 564
OS2StrikeYSize: 58
OS2StrikeYPos: 304
OS2Vendor: 'PfEd'
OS2CodePages: 00000093.00000000
OS2UnicodeRanges: 0000006f.0000000a.00000000.00000000
DEI: 91125
ShortTable: maxp 16
  1
  0
  322
  99
  6
  0
  0
  2
  0
  1
  1
  0
  64
  0
  0
  0
EndShort
LangName: 1033 "" "" "" "FontForge 2.0 : Little Character Regular : 18-6-2025"
GaspTable: 1 65535 2 0
Encoding: UnicodeBmp
UnicodeInterp: none
NameList: AGL For New Fonts
DisplaySize: -48
AntiAlias: 1
FitToEm: 0
WinInfo: 57 19 9
BeginChars: 65537 322

StartChar: .notdef
Encoding: 65536 -1 0
Width: 523
GlyphClass: 1
Flags: W
LayerCount: 2
Fore
SplineSet
0 849 m 1,0,-1
 524 849 l 1,1,-1
 524 0 l 1,2,-1
 0 0 l 1,3,-1
 0 849 l 1,0,-1
61 61 m 1,4,-1
 464 61 l 1,5,-1
 464 788 l 1,6,-1
 61 788 l 1,7,-1
 61 61 l 1,4,-1
EndSplineSet
Validated: 1
EndChar

StartChar: exclam
Encoding: 33 33 4
Width: 262
GlyphClass: 2
Flags: W
LayerCount: 2
Fore
SplineSet
178 1 m 2,0,-1
 85 1 l 2,1,2
 74 1 74 1 66 9 c 0,3,4
 57 16 57 16 57 28 c 2,5,-1
 57 120 l 2,6,7
 57 131 57 131 65 139 c 128,-1,8
 73 147 73 147 85 147 c 2,9,-1
 178 147 l 2,10,11
 189 147 189 147 197 139 c 128,-1,12
 205 131 205 131 205 120 c 2,13,-1
 205 28 l 2,14,15
 205 17 205 17 197 9 c 128,-1,16
 189 1 189 1 178 1 c 2,0,-1
151 92 m 1,17,-1
 112 92 l 1,18,-1
 112 55 l 1,19,-1
 151 55 l 1,20,-1
 151 92 l 1,17,-1
131 861 m 128,-1,22
 147 861 147 861 158 850 c 0,23,24
 170 838 170 838 170 822 c 2,25,-1
 170 298 l 2,26,27
 170 282 170 282 158 270 c 0,28,29
 147 259 147 259 131 259 c 128,-1,30
 115 259 115 259 104 270 c 0,31,32
 92 282 92 282 92 298 c 2,33,-1
 92 822 l 2,34,35
 92 838 92 838 104 850 c 0,36,21
 115 861 115 861 131 861 c 128,-1,22
EndSplineSet
Validated: 1
EndChar

StartChar: quotedbl
Encoding: 34 34 5
Width: 394
GlyphClass: 2
Flags: W
LayerCount: 2
Fore
SplineSet
141 621 m 2,0,1
 135 608 135 608 120 608 c 0,2,3
 106 606 106 606 100 620 c 2,4,-1
 60 694 l 2,5,6
 57 700 57 700 57 705 c 2,7,-1
 57 781 l 2,8,9
 57 790 57 790 64 796 c 0,10,11
 71 803 71 803 80 803 c 2,12,-1
 157 803 l 2,13,14
 167 803 167 803 174 796 c 0,15,16
 180 790 180 790 180 781 c 2,17,-1
 180 705 l 2,18,19
 180 698 180 698 174 690 c 2,20,-1
 141 621 l 2,0,1
135 758 m 1,21,-1
 103 758 l 1,22,-1
 103 710 l 1,23,-1
 119 680 l 1,24,-1
 135 711 l 1,25,-1
 135 758 l 1,21,-1
298 621 m 2,26,27
 292 608 292 608 278 608 c 0,28,29
 264 606 264 606 257 620 c 2,30,-1
 217 694 l 2,31,32
 214 702 214 702 215 705 c 2,33,-1
 215 781 l 2,34,35
 215 790 215 790 222 796 c 0,36,37
 228 803 228 803 238 803 c 2,38,-1
 314 803 l 2,39,40
 324 803 324 803 330 796 c 0,41,42
 337 790 337 790 337 781 c 2,43,-1
 337 705 l 2,44,45
 337 698 337 698 332 690 c 2,46,-1
 298 621 l 2,26,27
292 758 m 1,47,-1
 260 758 l 1,48,-1
 260 710 l 1,49,-1
 276 680 l 1,50,-1
 292 711 l 1,51,-1
 292 758 l 1,47,-1
EndSplineSet
Validated: 1
EndChar

StartChar: numbersign
Encoding: 35 35 6
Width: 656
GlyphClass: 2
Flags: W
LayerCount: 2
Fore
SplineSet
93 515 m 2,0,1
 76 515 76 515 68 526 c 1,2,3
 57 534 57 534 57 550 c 0,4,5
 57 565 57 565 68 576 c 0,6,7
 78 586 78 586 93 586 c 2,8,-1
 177 586 l 1,9,-1
 177 789 l 2,10,11
 177 804 177 804 188 815 c 0,12,13
 197 826 197 826 213 826 c 0,14,15
 227 826 227 826 238 815 c 0,16,17
 248 805 248 805 248 789 c 2,18,-1
 248 586 l 1,19,-1
 416 586 l 1,20,-1
 416 789 l 2,21,22
 416 804 416 804 426 815 c 0,23,24
 440 826 440 826 452 826 c 128,-1,25
 464 826 464 826 478 815 c 0,26,27
 488 804 488 804 488 789 c 2,28,-1
 488 586 l 1,29,-1
 563 586 l 2,30,31
 578 586 578 586 589 576 c 0,32,33
 600 562 600 562 600 550 c 0,34,35
 600 536 600 536 589 525 c 0,36,37
 579 515 579 515 563 515 c 2,38,-1
 488 515 l 1,39,-1
 488 343 l 1,40,-1
 563 343 l 2,41,42
 578 343 578 343 589 332 c 0,43,44
 600 323 600 323 600 307 c 128,-1,45
 600 291 600 291 589 282 c 0,46,47
 578 271 578 271 563 271 c 2,48,-1
 488 271 l 1,49,-1
 488 69 l 2,50,51
 488 54 488 54 478 44 c 0,52,53
 467 33 467 33 452 33 c 128,-1,54
 437 33 437 33 426 44 c 0,55,56
 416 54 416 54 416 69 c 2,57,-1
 416 271 l 1,58,-1
 248 271 l 1,59,-1
 248 69 l 2,60,61
 248 53 248 53 238 44 c 0,62,63
 227 33 227 33 213 33 c 0,64,65
 196 33 196 33 188 44 c 1,66,67
 177 52 177 52 177 69 c 2,68,-1
 177 271 l 1,69,-1
 93 271 l 2,70,71
 76 271 76 271 68 282 c 1,72,73
 57 290 57 290 57 307 c 0,74,75
 57 321 57 321 68 332 c 0,76,77
 77 343 77 343 93 343 c 2,78,-1
 177 343 l 1,79,-1
 177 515 l 1,80,-1
 93 515 l 2,0,1
248 515 m 1,81,-1
 248 343 l 1,82,-1
 416 343 l 1,83,-1
 416 515 l 1,84,-1
 248 515 l 1,81,-1
EndSplineSet
Validated: 1
EndChar

StartChar: dollar
Encoding: 36 36 7
Width: 675
GlyphClass: 2
Flags: W
LayerCount: 2
Fore
SplineSet
214 364 m 2,0,1
 199 364 199 364 189 374 c 2,2,-1
 68 495 l 2,3,4
 58 505 58 505 57 520 c 2,5,-1
 57 636 l 2,6,7
 57 652 57 652 68 661 c 2,8,-1
 189 782 l 2,9,10
 199 792 199 792 214 792 c 2,11,-1
 305 792 l 1,12,-1
 305 839 l 2,13,14
 305 856 305 856 316 864 c 1,15,16
 324 875 324 875 341 875 c 0,17,18
 355 875 355 875 366 864 c 0,19,20
 376 855 376 855 376 839 c 2,21,-1
 376 792 l 1,22,-1
 455 792 l 2,23,24
 462 792 462 792 465 791 c 0,25,26
 475 790 475 790 485 781 c 2,27,-1
 608 659 l 2,28,29
 618 649 618 649 618 634 c 0,30,31
 618 621 618 621 608 608 c 1,32,33
 595 598 595 598 582 598 c 0,34,35
 568 598 568 598 557 609 c 2,36,-1
 445 721 l 1,37,-1
 376 721 l 1,38,-1
 376 435 l 1,39,-1
 459 435 l 1,40,-1
 460 435 l 2,41,42
 477 435 477 435 487 425 c 2,43,-1
 608 304 l 2,44,45
 619 293 619 293 618 278 c 2,46,-1
 618 152 l 2,47,48
 618 137 618 137 608 127 c 2,49,-1
 487 10 l 2,50,51
 477 0 477 0 462 -1 c 2,52,-1
 376 -1 l 1,53,-1
 376 -85 l 2,54,55
 376 -100 376 -100 366 -110 c 128,-1,56
 356 -120 356 -120 341 -120 c 0,57,58
 325 -120 325 -120 316 -110 c 0,59,60
 305 -99 305 -99 305 -85 c 2,61,-1
 305 -1 l 1,62,-1
 220 -1 l 2,63,64
 210 -1 210 -1 202 5 c 0,65,66
 197 7 197 7 191 11 c 2,67,-1
 69 127 l 2,68,69
 58 138 58 138 58 152 c 0,70,71
 56 166 56 166 67 177 c 0,72,73
 77 187 77 187 92 188 c 128,-1,74
 107 189 107 189 118 178 c 2,75,-1
 232 71 l 1,76,-1
 305 71 l 1,77,-1
 305 364 l 1,78,-1
 214 364 l 2,0,1
229 721 m 1,79,-1
 129 621 l 1,80,-1
 129 535 l 1,81,-1
 229 435 l 1,82,-1
 305 435 l 1,83,-1
 305 721 l 1,84,-1
 229 721 l 1,79,-1
376 364 m 1,85,-1
 376 71 l 1,86,-1
 447 71 l 1,87,-1
 547 167 l 1,88,-1
 547 263 l 1,89,-1
 447 364 l 1,90,-1
 376 364 l 1,85,-1
EndSplineSet
Validated: 1
EndChar

StartChar: percent
Encoding: 37 37 8
Width: 674
GlyphClass: 2
Flags: W
LayerCount: 2
Fore
SplineSet
606 651 m 0,0,1
 616 644 616 644 616 631 c 0,2,3
 619 619 619 619 610 609 c 2,4,-1
 110 11 l 2,5,6
 102 1 102 1 90 0 c 0,7,8
 80 -1 80 -1 68 7 c 0,9,10
 58 14 58 14 58 27 c 0,11,12
 55 39 55 39 64 49 c 2,13,-1
 565 647 l 2,14,15
 571 655 571 655 585 658 c 0,16,17
 599 658 599 658 606 651 c 0,0,1
189 660 m 2,18,19
 202 660 202 660 210 651 c 0,20,21
 219 642 219 642 219 630 c 2,22,-1
 219 535 l 2,23,24
 219 523 219 523 210 514 c 0,25,26
 199 506 199 506 189 506 c 2,27,-1
 89 506 l 2,28,29
 79 506 79 506 68 514 c 1,30,31
 60 525 60 525 60 535 c 2,32,-1
 60 630 l 2,33,34
 60 640 60 640 68 651 c 0,35,36
 77 660 77 660 89 660 c 2,37,-1
 189 660 l 2,18,19
119 565 m 1,38,-1
 159 565 l 1,39,-1
 159 600 l 1,40,-1
 119 600 l 1,41,-1
 119 565 l 1,38,-1
588 154 m 2,42,43
 601 154 601 154 609 146 c 0,44,45
 617 135 617 135 617 124 c 2,46,-1
 617 30 l 2,47,48
 617 18 617 18 608 10 c 0,49,50
 600 1 600 1 588 1 c 2,51,-1
 488 1 l 2,52,53
 476 1 476 1 467 10 c 0,54,55
 458 18 458 18 458 30 c 2,56,-1
 458 124 l 2,57,58
 458 136 458 136 467 145 c 128,-1,59
 476 154 476 154 488 154 c 2,60,-1
 588 154 l 2,42,43
518 60 m 1,61,-1
 558 60 l 1,62,-1
 558 95 l 1,63,-1
 518 95 l 1,64,-1
 518 60 l 1,61,-1
EndSplineSet
Validated: 1
EndChar

StartChar: ampersand
Encoding: 38 38 9
Width: 656
GlyphClass: 2
Flags: W
LayerCount: 2
Fore
SplineSet
449 208 m 1,0,-1
 539 299 l 2,1,2
 549 309 549 309 564 309 c 128,-1,3
 579 309 579 309 589 299 c 0,4,5
 600 288 600 288 600 274 c 128,-1,6
 600 260 600 260 589 249 c 2,7,-1
 499 157 l 1,8,-1
 591 66 l 2,9,10
 601 56 601 56 601 41 c 0,11,12
 601 25 601 25 591 15 c 128,-1,13
 581 5 581 5 566 5 c 0,14,15
 550 5 550 5 540 15 c 2,16,-1
 449 107 l 1,17,-1
 359 16 l 2,18,19
 348 5 348 5 334 5 c 2,20,-1
 212 5 l 2,21,22
 196 5 196 5 186 15 c 2,23,-1
 68 134 l 2,24,25
 58 144 58 144 57 159 c 2,26,-1
 57 277 l 2,27,28
 57 292 57 292 67 302 c 2,29,-1
 159 396 l 1,30,-1
 68 487 l 2,31,32
 59 495 59 495 57 512 c 2,33,-1
 57 635 l 2,34,35
 57 650 57 650 67 660 c 2,36,-1
 185 785 l 2,37,38
 195 795 195 795 211 797 c 0,39,40
 225 797 225 797 236 786 c 2,41,-1
 360 660 l 2,42,43
 370 650 370 650 370 635 c 2,44,-1
 370 525 l 2,45,46
 370 510 370 510 360 500 c 2,47,-1
 259 396 l 1,48,-1
 449 208 l 1,0,-1
299 539 m 1,49,-1
 299 621 l 1,50,-1
 212 710 l 1,51,-1
 129 621 l 1,52,-1
 129 527 l 1,53,-1
 209 447 l 1,54,-1
 299 539 l 1,49,-1
209 346 m 1,55,-1
 129 263 l 1,56,-1
 129 174 l 1,57,-1
 226 76 l 1,58,-1
 320 76 l 1,59,-1
 399 157 l 1,60,-1
 209 346 l 1,55,-1
EndSplineSet
Validated: 1
EndChar

StartChar: quotesingle
Encoding: 39 39 10
Width: 273
GlyphClass: 2
Flags: W
LayerCount: 2
Fore
SplineSet
162 657 m 2,0,1
 154 657 154 657 144 664 c 1,2,3
 137 674 137 674 137 682 c 2,4,-1
 137 767 l 2,5,6
 137 777 137 777 144 784 c 0,7,8
 152 792 152 792 162 792 c 2,9,-1
 248 792 l 2,10,11
 258 792 258 792 266 784 c 0,12,13
 274 778 274 778 274 767 c 2,14,-1
 274 682 l 2,15,16
 274 672 274 672 266 664 c 2,17,-1
 93 491 l 2,18,19
 85 483 85 483 76 483 c 0,20,21
 65 483 65 483 57 491 c 0,22,23
 50 498 50 498 50 508 c 0,24,25
 50 520 50 520 57 527 c 2,26,-1
 188 657 l 1,27,-1
 162 657 l 2,0,1
223 742 m 1,28,-1
 188 742 l 1,29,-1
 188 707 l 1,30,-1
 223 707 l 1,31,-1
 223 742 l 1,28,-1
EndSplineSet
Validated: 1
EndChar

StartChar: parenleft
Encoding: 40 40 11
Width: 458
GlyphClass: 2
Flags: W
LayerCount: 2
Fore
SplineSet
390 808 m 0,0,1
 379 819 379 819 362 820 c 0,2,3
 344 820 344 820 334 808 c 2,4,-1
 69 542 l 2,5,6
 58 531 58 531 57 514 c 2,7,-1
 57 252 l 2,8,9
 57 236 57 236 69 224 c 2,10,-1
 334 -41 l 2,11,12
 348 -52 348 -52 362 -46 c 0,13,14
 376 -43 376 -43 390 -29 c 0,15,16
 401 -20 401 -20 401 -4 c 0,17,18
 401 9 401 9 390 23 c 2,19,-1
 136 277 l 1,20,-1
 136 506 l 1,21,-1
 390 761 l 2,22,23
 414 784 414 784 390 808 c 0,0,1
EndSplineSet
Validated: 41
EndChar

StartChar: parenright
Encoding: 41 41 12
Width: 455
GlyphClass: 2
Flags: W
LayerCount: 2
Fore
SplineSet
69 808 m 0,0,1
 80 818 80 818 96 820 c 0,2,3
 113 820 113 820 124 808 c 2,4,-1
 387 544 l 2,5,6
 398 533 398 533 398 517 c 2,7,-1
 398 257 l 2,8,9
 398 243 398 243 387 229 c 2,10,-1
 124 -33 l 2,11,12
 111 -43 111 -43 96 -39 c 0,13,14
 82 -35 82 -35 69 -22 c 0,15,16
 58 -13 58 -13 58 2 c 0,17,18
 57 18 57 18 69 29 c 2,19,-1
 320 281 l 1,20,-1
 320 508 l 1,21,-1
 69 761 l 2,22,23
 45 784 45 784 69 808 c 0,0,1
EndSplineSet
Validated: 33
EndChar

StartChar: asterisk
Encoding: 42 42 13
Width: 649
GlyphClass: 2
Flags: W
LayerCount: 2
Fore
SplineSet
115 188 m 2,0,1
 105 178 105 178 90 178 c 0,2,3
 76 178 76 178 66 188 c 0,4,5
 55 199 55 199 55 213 c 128,-1,6
 55 227 55 227 66 238 c 2,7,-1
 239 411 l 1,8,-1
 93 411 l 2,9,10
 76 411 76 411 68 422 c 1,11,12
 57 430 57 430 57 446 c 0,13,14
 57 461 57 461 68 472 c 0,15,16
 78 482 78 482 93 482 c 2,17,-1
 239 482 l 1,18,-1
 66 654 l 2,19,20
 56 664 56 664 56 679 c 128,-1,21
 56 694 56 694 66 704 c 128,-1,22
 76 714 76 714 92 714 c 0,23,24
 106 714 106 714 116 704 c 2,25,-1
 289 531 l 1,26,-1
 289 680 l 2,27,28
 289 695 289 695 299 705 c 128,-1,29
 309 715 309 715 324 715 c 0,30,31
 338 715 338 715 349 704 c 0,32,33
 359 695 359 695 359 680 c 2,34,-1
 359 531 l 1,35,-1
 532 705 l 2,36,37
 542 715 542 715 557 715 c 0,38,39
 574 715 574 715 582 704 c 1,40,41
 593 696 593 696 593 680 c 0,42,43
 593 666 593 666 582 655 c 2,44,-1
 409 482 l 1,45,-1
 557 482 l 2,46,47
 571 482 571 482 582 472 c 0,48,49
 593 458 593 458 593 446 c 0,50,51
 593 430 593 430 582 422 c 1,52,53
 574 411 574 411 557 411 c 2,54,-1
 409 411 l 1,55,-1
 581 239 l 2,56,57
 591 229 591 229 592 214 c 0,58,59
 592 201 592 201 582 188 c 1,60,61
 569 178 569 178 556 178 c 0,62,63
 542 178 542 178 531 189 c 2,64,-1
 359 361 l 1,65,-1
 359 213 l 2,66,67
 359 198 359 198 349 188 c 0,68,69
 338 177 338 177 324 177 c 0,70,71
 308 177 308 177 300 188 c 1,72,73
 289 196 289 196 289 213 c 2,74,-1
 289 361 l 1,75,-1
 115 188 l 2,0,1
EndSplineSet
Validated: 1
EndChar

StartChar: plus
Encoding: 43 43 14
Width: 658
GlyphClass: 2
Flags: W
LayerCount: 2
Fore
SplineSet
92 346 m 2,0,1
 78 346 78 346 68 356 c 0,2,3
 57 367 57 367 57 381 c 128,-1,4
 57 395 57 395 68 406 c 0,5,6
 78 416 78 416 92 416 c 2,7,-1
 294 416 l 1,8,-1
 294 618 l 2,9,10
 294 632 294 632 304 642 c 0,11,12
 315 653 315 653 329 653 c 0,13,14
 344 653 344 653 354 643 c 128,-1,15
 364 633 364 633 364 618 c 2,16,-1
 364 416 l 1,17,-1
 567 416 l 2,18,19
 579 416 579 416 592 406 c 1,20,21
 602 393 602 393 602 381 c 128,-1,22
 602 369 602 369 592 356 c 1,23,24
 579 346 579 346 567 346 c 2,25,-1
 364 346 l 1,26,-1
 364 143 l 2,27,28
 364 128 364 128 354 118 c 0,29,30
 343 108 343 108 330 108 c 128,-1,31
 317 108 317 108 304 118 c 1,32,33
 294 131 294 131 294 143 c 2,34,-1
 294 346 l 1,35,-1
 92 346 l 2,0,1
EndSplineSet
Validated: 1
EndChar

StartChar: comma
Encoding: 44 44 15
Width: 331
GlyphClass: 2
Flags: W
LayerCount: 2
Fore
SplineSet
162 1 m 2,0,1
 151 1 151 1 144 8 c 0,2,3
 137 16 137 16 137 26 c 2,4,-1
 137 111 l 2,5,6
 137 121 137 121 144 128 c 0,7,8
 152 136 152 136 162 136 c 2,9,-1
 248 136 l 2,10,11
 258 136 258 136 266 128 c 0,12,13
 274 122 274 122 274 111 c 2,14,-1
 274 26 l 2,15,16
 274 16 274 16 266 8 c 2,17,-1
 93 -165 l 2,18,19
 85 -173 85 -173 76 -173 c 0,20,21
 65 -173 65 -173 57 -165 c 0,22,23
 50 -158 50 -158 50 -148 c 0,24,25
 50 -137 50 -137 57 -130 c 2,26,-1
 188 1 l 1,27,-1
 162 1 l 2,0,1
223 85 m 1,28,-1
 188 85 l 1,29,-1
 188 51 l 1,30,-1
 223 51 l 1,31,-1
 223 85 l 1,28,-1
EndSplineSet
Validated: 1
EndChar

StartChar: hyphen
Encoding: 45 45 16
Width: 658
GlyphClass: 2
Flags: W
LayerCount: 2
Fore
SplineSet
57 395 m 0,0,1
 57 409 57 409 68 420 c 0,2,3
 78 430 78 430 92 430 c 2,4,-1
 566 430 l 2,5,6
 580 430 580 430 590 420 c 0,7,8
 601 409 601 409 601 395 c 0,9,10
 601 378 601 378 590 370 c 1,11,12
 582 359 582 359 566 359 c 2,13,-1
 92 359 l 2,14,15
 76 359 76 359 68 370 c 1,16,17
 57 378 57 378 57 395 c 0,0,1
EndSplineSet
Validated: 1
EndChar

StartChar: period
Encoding: 46 46 17
Width: 250
GlyphClass: 2
Flags: W
LayerCount: 2
Fore
SplineSet
169 2 m 2,0,-1
 83 2 l 2,1,2
 72 2 72 2 65 9 c 0,3,4
 57 17 57 17 57 27 c 2,5,-1
 57 112 l 2,6,7
 57 120 57 120 64 130 c 1,8,9
 74 137 74 137 83 137 c 2,10,-1
 169 137 l 2,11,12
 179 137 179 137 186 130 c 0,13,14
 194 122 194 122 194 112 c 2,15,-1
 194 27 l 2,16,17
 194 17 194 17 186 9 c 0,18,19
 180 2 180 2 169 2 c 2,0,-1
143 87 m 1,20,-1
 108 87 l 1,21,-1
 108 52 l 1,22,-1
 143 52 l 1,23,-1
 143 87 l 1,20,-1
EndSplineSet
Validated: 1
EndChar

StartChar: slash
Encoding: 47 47 18
Width: 670
GlyphClass: 2
Flags: W
LayerCount: 2
Fore
SplineSet
598 788 m 256,0,1
 610 780 610 780 613 766 c 0,2,3
 616 753 616 753 608 739 c 2,4,-1
 123 17 l 2,5,6
 115 5 115 5 100 2 c 0,7,8
 87 -1 87 -1 73 7 c 0,9,10
 61 15 61 15 58 30 c 0,11,12
 55 44 55 44 64 56 c 2,13,-1
 548 779 l 2,14,15
 556 793 556 793 571 794 c 0,16,17
 586 796 586 796 598 788 c 256,0,1
EndSplineSet
Validated: 1
EndChar

StartChar: zero
Encoding: 48 48 19
Width: 674
GlyphClass: 2
Flags: W
LayerCount: 2
Fore
SplineSet
57 162 m 2,0,-1
 57 642 l 2,1,2
 57 656 57 656 68 667 c 2,3,-1
 193 791 l 2,4,5
 203 801 203 801 218 802 c 2,6,-1
 460 802 l 2,7,8
 474 802 474 802 485 791 c 2,9,-1
 606 670 l 1,10,-1
 607 670 l 1,11,12
 611 665 611 665 614 659 c 0,13,14
 617 652 617 652 617 645 c 2,15,-1
 617 162 l 2,16,17
 617 155 617 155 614 149 c 0,18,19
 612 147 612 147 612 144 c 1,20,21
 611 144 611 144 610 142 c 128,-1,22
 609 140 609 140 608 140 c 1,23,24
 608 139 608 139 606 137 c 2,25,-1
 485 18 l 2,26,27
 475 8 475 8 460 9 c 2,28,-1
 218 9 l 2,29,30
 204 9 204 9 193 18 c 2,31,-1
 68 137 l 2,32,33
 62 143 62 143 59 154 c 0,34,35
 57 156 57 156 57 162 c 2,0,-1
445 730 m 2,36,-1
 233 730 l 1,37,-1
 129 628 l 1,38,-1
 129 247 l 1,39,-1
 531 645 l 1,40,-1
 500 676 l 2,41,42
 491 685 491 685 480 695.5 c 128,-1,43
 469 706 469 706 467 708 c 0,44,45
 460 715 460 715 458 718 c 0,46,47
 456 719 456 719 454.5 720.5 c 128,-1,48
 453 722 453 722 452 723.5 c 128,-1,49
 451 725 451 725 450 726 c 0,50,51
 447 728 447 728 445 730 c 2,36,-1
546 560 m 1,52,-1
 144 163 l 1,53,-1
 232 79 l 1,54,-1
 445 79 l 1,55,-1
 546 177 l 1,56,-1
 546 560 l 1,52,-1
EndSplineSet
Validated: 1
EndChar

StartChar: one
Encoding: 49 49 20
Width: 674
GlyphClass: 2
Flags: W
LayerCount: 2
Fore
SplineSet
581 73 m 2,0,1
 597 73 597 73 606 63 c 0,2,3
 617 52 617 52 617 38 c 0,4,5
 617 23 617 23 606 12 c 0,6,7
 596 2 596 2 581 2 c 2,8,-1
 93 2 l 2,9,10
 78 2 78 2 68 12 c 0,11,12
 57 23 57 23 57 38 c 0,13,14
 57 52 57 52 68 63 c 0,15,16
 77 73 77 73 93 73 c 2,17,-1
 307 73 l 1,18,-1
 307 676 l 1,19,-1
 118 492 l 2,20,21
 108 482 108 482 93 482 c 0,22,23
 79 480 79 480 68 492 c 0,24,25
 58 502 58 502 58 517 c 0,26,27
 56 530 56 530 68 542 c 2,28,-1
 317 785 l 2,29,30
 335 801 335 801 356 792 c 0,31,32
 377 784 377 784 378 760 c 2,33,-1
 378 73 l 1,34,-1
 581 73 l 2,0,1
EndSplineSet
Validated: 33
EndChar

StartChar: two
Encoding: 50 50 21
Width: 674
GlyphClass: 2
Flags: W
LayerCount: 2
Fore
SplineSet
70 618 m 0,0,1
 60 628 60 628 60 642 c 128,-1,2
 60 656 60 656 71 667 c 2,3,-1
 188 785 l 2,4,5
 198 795 198 795 213 795 c 2,6,-1
 454 795 l 2,7,8
 468 795 468 795 479 786 c 2,9,-1
 606 668 l 2,10,11
 617 657 617 657 618 642 c 2,12,-1
 618 531 l 2,13,14
 618 515 618 515 608 505 c 2,15,-1
 178 73 l 1,16,-1
 582 73 l 2,17,18
 597 73 597 73 608 62 c 0,19,20
 618 52 618 52 618 37 c 0,21,22
 618 25 618 25 608 12 c 1,23,24
 595 2 595 2 582 2 c 2,25,-1
 93 2 l 2,26,27
 69 2 69 2 60 24 c 128,-1,28
 51 46 51 46 68 63 c 2,29,-1
 547 545 l 1,30,-1
 547 627 l 1,31,-1
 441 724 l 1,32,-1
 228 724 l 1,33,-1
 121 617 l 2,34,35
 111 607 111 607 96 607 c 128,-1,36
 81 607 81 607 70 618 c 0,0,1
EndSplineSet
Validated: 33
EndChar

StartChar: three
Encoding: 51 51 22
Width: 673
GlyphClass: 2
Flags: W
LayerCount: 2
Fore
SplineSet
546 534 m 1,0,-1
 546 622 l 1,1,-1
 443 724 l 1,2,-1
 225 724 l 1,3,-1
 118 616 l 2,4,5
 108 606 108 606 94 606 c 0,6,7
 79 605 79 605 68 616 c 128,-1,8
 57 627 57 627 57 640 c 0,9,10
 57 655 57 655 68 666 c 2,11,-1
 185 784 l 2,12,13
 193 793 193 793 211 795 c 2,14,-1
 458 795 l 2,15,16
 473 795 473 795 484 784 c 2,17,-1
 606 662 l 2,18,19
 616 652 616 652 617 637 c 2,20,-1
 617 519 l 2,21,22
 617 505 617 505 606 494 c 2,23,-1
 509 398 l 1,24,-1
 606 305 l 2,25,26
 616 295 616 295 617 280 c 2,27,-1
 617 160 l 2,28,29
 617 146 617 146 606 135 c 2,30,-1
 484 13 l 2,31,32
 473 3 473 3 458 2 c 2,33,-1
 211 2 l 2,34,35
 196 2 196 2 185 13 c 2,36,-1
 67 136 l 2,37,38
 57 146 57 146 57 161 c 0,39,40
 57 175 57 175 68 186 c 0,41,42
 78 196 78 196 94 196 c 0,43,44
 109 195 109 195 119 185 c 2,45,-1
 226 73 l 1,46,-1
 443 73 l 1,47,-1
 546 175 l 1,48,-1
 546 265 l 1,49,-1
 443 363 l 1,50,-1
 332 363 l 2,51,52
 318 363 318 363 307 374 c 0,53,54
 297 383 297 383 297 398 c 128,-1,55
 297 413 297 413 308 424 c 0,56,57
 318 434 318 434 332 434 c 2,58,-1
 444 434 l 1,59,-1
 546 534 l 1,0,-1
EndSplineSet
Validated: 1
EndChar

StartChar: four
Encoding: 52 52 23
Width: 673
GlyphClass: 2
Flags: W
LayerCount: 2
Fore
SplineSet
582 435 m 2,0,1
 597 435 597 435 606 425 c 0,2,3
 617 414 617 414 617 401 c 0,4,5
 617 387 617 387 606 376 c 0,6,7
 596 366 596 366 582 366 c 2,8,-1
 494 366 l 1,9,-1
 494 40 l 2,10,11
 494 25 494 25 484 16 c 0,12,13
 473 5 473 5 459 5 c 0,14,15
 444 5 444 5 434 15 c 0,16,17
 424 26 424 26 424 40 c 2,18,-1
 424 366 l 1,19,-1
 92 366 l 2,20,21
 68 366 68 366 60 387 c 0,22,23
 51 409 51 409 68 426 c 2,24,-1
 434 787 l 2,25,26
 450 803 450 803 473 795 c 0,27,28
 483 791 483 791 488 782 c 0,29,30
 494 773 494 773 494 762 c 2,31,-1
 494 435 l 1,32,-1
 582 435 l 2,0,1
424 678 m 1,33,-1
 177 435 l 1,34,-1
 424 435 l 1,35,-1
 424 678 l 1,33,-1
EndSplineSet
Validated: 33
EndChar

StartChar: five
Encoding: 53 53 24
Width: 673
GlyphClass: 2
Flags: W
LayerCount: 2
Fore
SplineSet
606 783 m 0,0,1
 616 772 616 772 616 758 c 0,2,3
 616 742 616 742 606 732 c 0,4,5
 595 722 595 722 581 722 c 2,6,-1
 129 722 l 1,7,-1
 129 452 l 1,8,-1
 313 551 l 2,9,10
 320 555 320 555 330 555 c 2,11,-1
 452 555 l 2,12,13
 466 555 466 555 477 544 c 2,14,-1
 606 412 l 2,15,16
 616 402 616 402 616 387 c 2,17,-1
 616 153 l 2,18,19
 616 137 616 137 606 127 c 2,20,-1
 488 11 l 2,21,22
 478 1 478 1 463 1 c 2,23,-1
 209 1 l 2,24,25
 194 1 194 1 184 11 c 2,26,-1
 67 128 l 2,27,28
 57 138 57 138 57 154 c 0,29,30
 57 168 57 168 67 178 c 0,31,32
 78 189 78 189 92 189 c 0,33,34
 107 189 107 189 118 178 c 2,35,-1
 224 72 l 1,36,-1
 448 72 l 1,37,-1
 546 168 l 1,38,-1
 546 372 l 1,39,-1
 437 484 l 1,40,-1
 339 484 l 1,41,-1
 110 361 l 2,42,43
 93 352 93 352 75 362 c 0,44,45
 58 372 58 372 57 392 c 2,46,-1
 57 758 l 2,47,48
 57 774 57 774 68 782 c 1,49,50
 76 793 76 793 93 793 c 2,51,-1
 581 793 l 2,52,53
 596 793 596 793 606 783 c 0,0,1
EndSplineSet
Validated: 1
EndChar

StartChar: six
Encoding: 54 54 25
Width: 674
GlyphClass: 2
Flags: W
LayerCount: 2
Fore
SplineSet
451 437 m 2,0,1
 465 437 465 437 476 426 c 2,2,-1
 607 298 l 2,3,4
 617 288 617 288 617 273 c 2,5,-1
 617 171 l 2,6,7
 617 157 617 157 606 146 c 2,8,-1
 466 14 l 2,9,10
 456 5 456 5 441 5 c 2,11,-1
 227 5 l 2,12,13
 211 5 211 5 201 15 c 2,14,-1
 68 146 l 2,15,16
 58 156 58 156 57 172 c 2,17,-1
 57 417 l 2,18,19
 57 431 57 431 68 442 c 2,20,-1
 318 683 l 2,21,22
 322 687 322 687 328 690 c 2,23,-1
 565 794 l 2,24,25
 578 800 578 800 592 794 c 0,26,27
 606 790 606 790 613 776 c 0,28,29
 619 764 619 764 614 750 c 0,30,31
 608 736 608 736 595 730 c 2,32,-1
 364 628 l 1,33,-1
 165 437 l 1,34,-1
 451 437 l 2,0,1
129 186 m 1,35,-1
 242 75 l 1,36,-1
 427 76 l 1,37,-1
 546 186 l 1,38,-1
 546 258 l 1,39,-1
 436 366 l 1,40,-1
 129 366 l 1,41,-1
 129 186 l 1,35,-1
EndSplineSet
Validated: 1
EndChar

StartChar: seven
Encoding: 55 55 26
Width: 673
GlyphClass: 2
Flags: W
LayerCount: 2
Fore
SplineSet
58 757 m 0,0,1
 58 772 58 772 68 782 c 0,2,3
 79 793 79 793 94 793 c 2,4,-1
 581 793 l 2,5,6
 595 793 595 793 606 782 c 0,7,8
 616 773 616 773 616 757 c 2,9,-1
 616 639 l 2,10,11
 616 623 616 623 606 613 c 2,12,-1
 129 138 l 1,13,-1
 129 36 l 2,14,15
 129 20 129 20 118 12 c 1,16,17
 110 1 110 1 93 1 c 128,-1,18
 76 1 76 1 68 12 c 1,19,20
 57 20 57 20 57 36 c 2,21,-1
 57 153 l 2,22,23
 57 167 57 167 68 178 c 2,24,-1
 545 653 l 1,25,-1
 545 722 l 1,26,-1
 94 722 l 2,27,28
 79 722 79 722 69 732 c 0,29,30
 58 743 58 743 58 757 c 0,0,1
EndSplineSet
Validated: 1
EndChar

StartChar: eight
Encoding: 56 56 27
Width: 674
GlyphClass: 2
Flags: W
LayerCount: 2
Fore
SplineSet
57 161 m 1,0,-1
 57 281 l 2,1,2
 57 294 57 294 68 305 c 2,3,-1
 165 399 l 1,4,-1
 68 495 l 2,5,6
 57 506 57 506 57 520 c 2,7,-1
 57 637 l 1,8,-1
 57 640 l 2,9,10
 55 656 55 656 68 666 c 2,11,-1
 185 785 l 2,12,13
 196 796 196 796 211 796 c 2,14,-1
 464 796 l 2,15,16
 478 796 478 796 489 785 c 2,17,-1
 606 666 l 2,18,19
 617 655 617 655 617 640 c 2,20,-1
 617 637 l 1,21,-1
 617 520 l 2,22,23
 617 506 617 506 606 495 c 2,24,-1
 509 399 l 1,25,-1
 606 305 l 2,26,27
 616 297 616 297 617 281 c 2,28,-1
 617 161 l 1,29,-1
 617 159 l 2,30,31
 617 146 617 146 607 136 c 2,32,-1
 489 14 l 2,33,34
 479 4 479 4 464 2 c 2,35,-1
 211 2 l 2,36,37
 196 2 196 2 185 14 c 2,38,-1
 67 136 l 2,39,40
 58 146 58 146 57 159 c 2,41,-1
 57 161 l 1,0,-1
129 623 m 1,42,-1
 129 535 l 1,43,-1
 230 435 l 1,44,-1
 444 435 l 1,45,-1
 546 535 l 1,46,-1
 546 623 l 1,47,-1
 443 725 l 1,48,-1
 231 725 l 1,49,-1
 129 623 l 1,42,-1
129 266 m 1,50,-1
 129 176 l 1,51,-1
 231 73 l 1,52,-1
 443 73 l 1,53,-1
 546 176 l 1,54,-1
 546 266 l 1,55,-1
 443 364 l 1,56,-1
 231 364 l 1,57,-1
 129 266 l 1,50,-1
EndSplineSet
Validated: 1
EndChar

StartChar: nine
Encoding: 57 57 28
Width: 674
GlyphClass: 2
Flags: W
LayerCount: 2
Fore
SplineSet
546 177 m 1,0,-1
 546 368 l 1,1,-1
 224 368 l 2,2,3
 208 368 208 368 199 378 c 2,4,-1
 68 505 l 2,5,6
 58 514 58 514 57 531 c 2,7,-1
 57 632 l 2,8,9
 57 648 57 648 69 658 c 2,10,-1
 209 789 l 2,11,12
 219 799 219 799 234 799 c 2,13,-1
 448 799 l 2,14,15
 463 799 463 799 473 789 c 2,16,-1
 606 657 l 2,17,18
 616 647 616 647 617 632 c 2,19,-1
 617 162 l 2,20,21
 617 148 617 148 606 137 c 2,22,-1
 482 17 l 2,23,24
 477 12 477 12 470 9 c 0,25,26
 462 6 462 6 457 6 c 2,27,-1
 211 6 l 2,28,29
 196 6 196 6 185 17 c 2,30,-1
 67 139 l 2,31,32
 57 149 57 149 58 164 c 0,33,34
 58 178 58 178 68 188 c 128,-1,35
 78 198 78 198 94 198 c 0,36,37
 109 198 109 198 119 188 c 2,38,-1
 226 77 l 1,39,-1
 442 77 l 1,40,-1
 546 177 l 1,0,-1
546 618 m 1,41,-1
 433 729 l 1,42,-1
 248 728 l 1,43,-1
 129 617 l 1,44,-1
 129 545 l 1,45,-1
 238 438 l 1,46,-1
 546 438 l 1,47,-1
 546 618 l 1,41,-1
EndSplineSet
Validated: 1
EndChar

StartChar: colon
Encoding: 58 58 29
Width: 250
GlyphClass: 2
Flags: W
LayerCount: 2
Fore
SplineSet
169 416 m 2,0,-1
 83 416 l 2,1,2
 73 416 73 416 65 424 c 0,3,4
 57 430 57 430 57 441 c 2,5,-1
 57 527 l 2,6,7
 57 537 57 537 64 544 c 0,8,9
 72 552 72 552 83 552 c 2,10,-1
 169 552 l 2,11,12
 181 552 181 552 186 544 c 1,13,14
 194 539 194 539 194 527 c 2,15,-1
 194 441 l 2,16,17
 194 429 194 429 186 424 c 1,18,19
 181 416 181 416 169 416 c 2,0,-1
143 501 m 1,20,-1
 108 501 l 1,21,-1
 108 466 l 1,22,-1
 143 466 l 1,23,-1
 143 501 l 1,20,-1
169 173 m 2,24,-1
 83 173 l 2,25,26
 73 173 73 173 65 180 c 0,27,28
 57 191 57 191 57 198 c 2,29,-1
 57 283 l 2,30,31
 57 293 57 293 64 300 c 0,32,33
 72 308 72 308 83 308 c 2,34,-1
 169 308 l 2,35,36
 181 308 181 308 186 300 c 1,37,38
 194 295 194 295 194 283 c 2,39,-1
 194 198 l 2,40,41
 194 188 194 188 186 180 c 0,42,43
 179 173 179 173 169 173 c 2,24,-1
143 258 m 1,44,-1
 108 258 l 1,45,-1
 108 223 l 1,46,-1
 143 223 l 1,47,-1
 143 258 l 1,44,-1
EndSplineSet
Validated: 1
EndChar

StartChar: semicolon
Encoding: 59 59 30
Width: 331
GlyphClass: 2
Flags: W
LayerCount: 2
Fore
SplineSet
162 178 m 2,0,1
 152 178 152 178 144 186 c 0,2,3
 137 193 137 193 137 203 c 2,4,-1
 137 288 l 2,5,6
 137 296 137 296 144 306 c 1,7,8
 154 313 154 313 162 313 c 2,9,-1
 248 313 l 2,10,11
 258 313 258 313 266 306 c 0,12,13
 274 295 274 295 274 288 c 2,14,-1
 274 203 l 2,15,16
 274 193 274 193 266 185 c 2,17,-1
 93 12 l 2,18,19
 86 5 86 5 76 5 c 0,20,21
 65 5 65 5 58 12 c 0,22,23
 50 20 50 20 50 30 c 0,24,25
 50 41 50 41 57 48 c 2,26,-1
 188 178 l 1,27,-1
 162 178 l 2,0,1
223 263 m 1,28,-1
 188 263 l 1,29,-1
 188 228 l 1,30,-1
 223 228 l 1,31,-1
 223 263 l 1,28,-1
248 416 m 2,32,-1
 162 416 l 2,33,34
 152 416 152 416 144 424 c 0,35,36
 137 431 137 431 137 441 c 2,37,-1
 137 527 l 2,38,39
 137 537 137 537 144 544 c 0,40,41
 152 552 152 552 162 552 c 2,42,-1
 248 552 l 2,43,44
 258 552 258 552 266 544 c 0,45,46
 274 538 274 538 274 527 c 2,47,-1
 274 441 l 2,48,49
 274 430 274 430 266 424 c 0,50,51
 258 416 258 416 248 416 c 2,32,-1
223 501 m 1,52,-1
 188 501 l 1,53,-1
 188 466 l 1,54,-1
 223 466 l 1,55,-1
 223 501 l 1,52,-1
EndSplineSet
Validated: 1
EndChar

StartChar: less
Encoding: 60 60 31
Width: 650
GlyphClass: 2
Flags: W
LayerCount: 2
Fore
SplineSet
586 780 m 0,0,1
 594 769 594 769 594 754 c 0,2,3
 591 738 591 738 580 730 c 2,4,-1
 152 398 l 1,5,-1
 580 67 l 2,6,7
 591 56 591 56 594 43 c 0,8,9
 596 26 596 26 586 16 c 0,10,11
 576 5 576 5 562 3 c 0,12,13
 546 2 546 2 536 10 c 2,14,-1
 71 369 l 2,15,16
 57 380 57 380 57 398 c 128,-1,17
 57 416 57 416 71 427 c 2,18,-1
 536 787 l 2,19,20
 546 795 546 795 562 794 c 0,21,22
 575 791 575 791 586 780 c 0,0,1
EndSplineSet
Validated: 1
EndChar

StartChar: equal
Encoding: 61 61 32
Width: 658
GlyphClass: 2
Flags: W
LayerCount: 2
Fore
SplineSet
68 455 m 0,0,1
 57 466 57 466 57 480 c 0,2,3
 57 496 57 496 68 504 c 1,4,5
 76 515 76 515 92 515 c 2,6,-1
 566 515 l 2,7,8
 581 515 581 515 590 505 c 0,9,10
 601 494 601 494 601 480 c 128,-1,11
 601 466 601 466 590 455 c 0,12,13
 581 445 581 445 566 445 c 2,14,-1
 92 445 l 2,15,16
 77 445 77 445 68 455 c 0,0,1
57 236 m 0,17,18
 57 251 57 251 68 262 c 0,19,20
 78 272 78 272 92 272 c 2,21,-1
 566 272 l 2,22,23
 580 272 580 272 590 262 c 0,24,25
 601 251 601 251 601 236 c 0,26,27
 601 220 601 220 590 212 c 1,28,29
 582 201 582 201 566 201 c 2,30,-1
 92 201 l 2,31,32
 76 201 76 201 68 212 c 1,33,34
 57 220 57 220 57 236 c 0,17,18
EndSplineSet
Validated: 1
EndChar

StartChar: greater
Encoding: 62 62 33
Width: 650
GlyphClass: 2
Flags: W
LayerCount: 2
Fore
SplineSet
65 779 m 0,0,1
 56 769 56 769 58 752 c 0,2,3
 60 738 60 738 71 728 c 2,4,-1
 499 396 l 1,5,-1
 71 65 l 2,6,7
 60 54 60 54 58 40 c 0,8,9
 56 25 56 25 65 15 c 0,10,11
 73 3 73 3 89 1 c 0,12,13
 105 0 105 0 115 8 c 2,14,-1
 580 368 l 2,15,16
 594 379 594 379 594 396 c 0,17,18
 594 414 594 414 580 425 c 2,19,-1
 115 785 l 2,20,21
 105 793 105 793 89 792 c 0,22,23
 75 790 75 790 65 779 c 0,0,1
EndSplineSet
Validated: 9
EndChar

StartChar: question
Encoding: 63 63 34
Width: 715
GlyphClass: 2
Flags: W
LayerCount: 2
Fore
SplineSet
65 651 m 0,0,1
 54 663 54 663 59 678 c 128,-1,2
 64 693 64 693 77 705 c 2,3,-1
 217 850 l 2,4,5
 228 861 228 861 244 861 c 2,6,-1
 479 861 l 2,7,8
 493 861 493 861 507 850 c 2,9,-1
 647 709 l 2,10,11
 658 698 658 698 658 682 c 2,12,-1
 658 556 l 2,13,14
 658 543 658 543 647 529 c 2,15,-1
 395 275 l 1,16,-1
 395 218 l 2,17,18
 395 202 395 202 384 191 c 128,-1,19
 373 180 373 180 357 180 c 128,-1,20
 341 180 341 180 330 191 c 0,21,22
 318 202 318 202 318 218 c 2,23,-1
 318 291 l 2,24,25
 318 307 318 307 329 318 c 2,26,-1
 581 572 l 1,27,-1
 581 666 l 1,28,-1
 463 784 l 1,29,-1
 260 784 l 1,30,-1
 127 651 l 2,31,32
 116 640 116 640 96 640 c 128,-1,33
 76 640 76 640 65 651 c 0,0,1
399 1 m 2,34,-1
 306 1 l 2,35,36
 296 1 296 1 286 8 c 0,37,38
 278 19 278 19 278 28 c 2,39,-1
 278 120 l 2,40,41
 278 131 278 131 286 139 c 128,-1,42
 294 147 294 147 306 147 c 2,43,-1
 399 147 l 2,44,45
 410 147 410 147 418 139 c 128,-1,46
 426 131 426 131 426 120 c 2,47,-1
 426 28 l 2,48,49
 426 17 426 17 418 9 c 128,-1,50
 410 1 410 1 399 1 c 2,34,-1
372 93 m 1,51,-1
 333 93 l 1,52,-1
 333 55 l 1,53,-1
 372 55 l 1,54,-1
 372 93 l 1,51,-1
EndSplineSet
Validated: 1
EndChar

StartChar: at
Encoding: 64 64 35
Width: 674
GlyphClass: 2
Flags: W
LayerCount: 2
Fore
SplineSet
546 399 m 1,0,-1
 546 622 l 1,1,-1
 445 723 l 1,2,-1
 228 723 l 1,3,-1
 129 621 l 1,4,-1
 129 179 l 1,5,-1
 229 73 l 1,6,-1
 441 73 l 1,7,-1
 556 190 l 2,8,9
 567 201 567 201 582 201 c 0,10,11
 596 201 596 201 607 190 c 0,12,13
 617 180 617 180 617 164 c 0,14,15
 617 149 617 149 607 139 c 2,16,-1
 481 12 l 2,17,18
 471 2 471 2 455 2 c 2,19,-1
 213 2 l 2,20,21
 198 2 198 2 187 13 c 2,22,-1
 67 141 l 2,23,24
 57 151 57 151 57 165 c 2,25,-1
 57 636 l 2,26,27
 57 648 57 648 68 662 c 2,28,-1
 188 784 l 2,29,30
 198 794 198 794 213 794 c 2,31,-1
 460 794 l 2,32,33
 475 794 475 794 485 784 c 2,34,-1
 607 662 l 2,35,36
 618 651 618 651 617 636 c 2,37,-1
 618 383 l 2,38,39
 617 367 617 367 607 359 c 2,40,-1
 502 250 l 2,41,42
 491 239 491 239 477 239 c 2,43,-1
 213 239 l 2,44,45
 196 239 196 239 188 250 c 1,46,47
 177 258 177 258 177 275 c 2,48,-1
 177 518 l 2,49,50
 177 530 177 530 188 544 c 0,51,52
 199 554 199 554 213 554 c 2,53,-1
 455 554 l 2,54,55
 470 554 470 554 480 544 c 0,56,57
 491 533 491 533 491 518 c 2,58,-1
 491 340 l 1,59,-1
 546 399 l 1,0,-1
419 482 m 1,60,-1
 249 482 l 1,61,-1
 249 311 l 1,62,-1
 419 311 l 1,63,-1
 419 482 l 1,60,-1
EndSplineSet
Validated: 1
EndChar

StartChar: A
Encoding: 65 65 36
Width: 674
GlyphClass: 2
Flags: W
LayerCount: 2
Fore
SplineSet
129 40 m 2,0,1
 129 26 129 26 118 15 c 0,2,3
 109 5 109 5 94 5 c 0,4,5
 78 5 78 5 68 15 c 0,6,7
 57 26 57 26 57 40 c 2,8,-1
 57 517 l 2,9,10
 57 531 57 531 68 542 c 2,11,-1
 312 787 l 2,12,13
 323 798 323 798 338 797 c 0,14,15
 353 797 353 797 363 787 c 2,16,-1
 608 538 l 2,17,18
 618 528 618 528 618 513 c 2,19,-1
 618 40 l 2,20,21
 618 26 618 26 608 15 c 0,22,23
 598 5 598 5 582 5 c 128,-1,24
 566 5 566 5 556 15 c 0,25,26
 546 26 546 26 546 40 c 2,27,-1
 546 365 l 1,28,-1
 129 365 l 1,29,-1
 129 40 l 2,0,1
550 499 m 1,30,-1
 341 711 l 1,31,-1
 133 502 l 1,32,-1
 133 437 l 1,33,-1
 550 437 l 1,34,-1
 550 499 l 1,30,-1
EndSplineSet
Validated: 1
EndChar

StartChar: B
Encoding: 66 66 37
Width: 674
GlyphClass: 2
Flags: W
LayerCount: 2
Fore
SplineSet
459 797 m 2,0,1
 474 797 474 797 484 787 c 2,2,-1
 607 664 l 2,3,4
 617 654 617 654 617 639 c 2,5,-1
 617 520 l 2,6,7
 617 506 617 506 606 495 c 2,8,-1
 509 400 l 1,9,-1
 607 304 l 2,10,11
 617 294 617 294 617 279 c 2,12,-1
 617 158 l 2,13,14
 617 144 617 144 606 133 c 2,15,-1
 484 14 l 2,16,17
 473 3 473 3 459 5 c 2,18,-1
 93 5 l 2,19,20
 77 5 77 5 68 15 c 0,21,22
 57 26 57 26 57 40 c 2,23,-1
 57 762 l 2,24,25
 57 776 57 776 68 787 c 0,26,27
 77 797 77 797 93 797 c 2,28,-1
 459 797 l 2,0,1
544 541 m 1,29,-1
 544 629 l 1,30,-1
 442 732 l 1,31,-1
 127 732 l 1,32,-1
 127 442 l 1,33,-1
 442 442 l 1,34,-1
 544 541 l 1,29,-1
127 81 m 1,35,-1
 442 81 l 1,36,-1
 544 180 l 1,37,-1
 544 270 l 1,38,-1
 442 371 l 1,39,-1
 127 371 l 1,40,-1
 127 81 l 1,35,-1
EndSplineSet
Validated: 1
EndChar

StartChar: C
Encoding: 67 67 38
Width: 672
GlyphClass: 2
Flags: W
LayerCount: 2
Fore
SplineSet
605 184 m 0,0,1
 614 174 614 174 616 158 c 0,2,3
 616 144 616 144 605 133 c 2,4,-1
 485 15 l 2,5,6
 475 5 475 5 460 5 c 2,7,-1
 216 5 l 2,8,9
 202 5 202 5 192 14 c 2,10,-1
 68 133 l 2,11,12
 57 144 57 144 57 158 c 2,13,-1
 57 638 l 2,14,15
 57 654 57 654 68 663 c 2,16,-1
 191 787 l 2,17,18
 201 797 201 797 216 797 c 2,19,-1
 460 797 l 2,20,21
 475 797 475 797 485 787 c 0,22,23
 528 744 528 744 555 716 c 2,24,-1
 605 666 l 2,25,26
 614 656 614 656 616 640 c 0,27,28
 616 627 616 627 605 616 c 0,29,30
 595 606 595 606 580 606 c 0,31,32
 566 604 566 604 555 616 c 2,33,-1
 497 674 l 1,34,-1
 474 697 l 1,35,-1
 454 716 l 1,36,-1
 445 726 l 1,37,-1
 231 726 l 1,38,-1
 129 624 l 1,39,-1
 129 174 l 1,40,-1
 231 76 l 1,41,-1
 445 76 l 1,42,-1
 555 184 l 2,43,44
 565 194 565 194 580 194 c 128,-1,45
 595 194 595 194 605 184 c 0,0,1
EndSplineSet
Validated: 1
EndChar

StartChar: D
Encoding: 68 68 39
Width: 674
GlyphClass: 2
Flags: W
LayerCount: 2
Fore
SplineSet
459 801 m 2,0,1
 474 801 474 801 484 791 c 2,2,-1
 607 667 l 2,3,4
 617 657 617 657 617 642 c 2,5,-1
 617 162 l 2,6,7
 617 147 617 147 607 137 c 2,8,-1
 484 18 l 2,9,10
 474 8 474 8 459 8 c 2,11,-1
 93 8 l 2,12,13
 78 8 78 8 68 18 c 0,14,15
 57 29 57 29 57 44 c 2,16,-1
 57 765 l 2,17,18
 57 782 57 782 68 790 c 1,19,20
 76 801 76 801 93 801 c 2,21,-1
 459 801 l 2,0,1
129 79 m 1,22,-1
 445 79 l 1,23,-1
 546 177 l 1,24,-1
 546 628 l 1,25,-1
 444 730 l 1,26,-1
 129 730 l 1,27,-1
 129 79 l 1,22,-1
EndSplineSet
Validated: 1
EndChar

StartChar: E
Encoding: 69 69 40
Width: 674
GlyphClass: 2
Flags: W
LayerCount: 2
Fore
SplineSet
128 73 m 1,0,-1
 582 73 l 2,1,2
 597 73 597 73 607 63 c 128,-1,3
 617 53 617 53 617 38 c 0,4,5
 617 22 617 22 607 12 c 0,6,7
 596 2 596 2 582 2 c 2,8,-1
 93 2 l 2,9,10
 78 2 78 2 68 12 c 0,11,12
 57 23 57 23 57 38 c 2,13,-1
 57 760 l 2,14,15
 57 774 57 774 68 785 c 0,16,17
 77 795 77 795 93 795 c 2,18,-1
 582 795 l 2,19,20
 597 795 597 795 607 785 c 128,-1,21
 617 775 617 775 617 760 c 0,22,23
 617 744 617 744 607 734 c 0,24,25
 596 724 596 724 582 724 c 2,26,-1
 128 724 l 1,27,-1
 128 434 l 1,28,-1
 340 434 l 2,29,30
 354 434 354 434 365 424 c 0,31,32
 375 414 375 414 375 399 c 0,33,34
 375 383 375 383 365 374 c 0,35,36
 354 363 354 363 340 363 c 2,37,-1
 128 363 l 1,38,-1
 128 73 l 1,0,-1
EndSplineSet
Validated: 1
EndChar

StartChar: F
Encoding: 70 70 41
Width: 673
GlyphClass: 2
Flags: W
LayerCount: 2
Fore
SplineSet
129 37 m 2,0,1
 129 20 129 20 118 12 c 1,2,3
 110 1 110 1 93 1 c 128,-1,4
 76 1 76 1 68 12 c 1,5,6
 57 20 57 20 57 37 c 2,7,-1
 57 757 l 2,8,9
 57 774 57 774 68 782 c 1,10,11
 76 793 76 793 93 793 c 2,12,-1
 581 793 l 2,13,14
 595 793 595 793 606 782 c 0,15,16
 617 773 617 773 617 757 c 0,17,18
 617 743 617 743 606 732 c 0,19,20
 597 722 597 722 581 722 c 2,21,-1
 129 722 l 1,22,-1
 129 432 l 1,23,-1
 341 432 l 2,24,25
 355 432 355 432 366 422 c 0,26,27
 376 412 376 412 376 396 c 0,28,29
 376 382 376 382 366 372 c 0,30,31
 355 361 355 361 341 361 c 2,32,-1
 129 361 l 1,33,-1
 129 37 l 2,0,1
EndSplineSet
Validated: 1
EndChar

StartChar: G
Encoding: 71 71 42
Width: 672
GlyphClass: 2
Flags: W
LayerCount: 2
Fore
SplineSet
606 131 m 2,0,-1
 486 13 l 2,1,2
 475 3 475 3 460 2 c 2,3,-1
 216 2 l 2,4,5
 202 2 202 2 192 12 c 2,6,-1
 68 130 l 2,7,8
 57 141 57 141 57 156 c 2,9,-1
 57 636 l 2,10,11
 57 651 57 651 68 662 c 2,12,-1
 191 785 l 2,13,14
 201 795 201 795 216 795 c 2,15,-1
 460 795 l 2,16,17
 476 795 476 795 485 785 c 0,18,19
 528 742 528 742 555 714 c 0,20,21
 567 702 567 702 577.5 691.5 c 128,-1,22
 588 681 588 681 596 673 c 128,-1,23
 604 665 604 665 605 664 c 0,24,25
 615 654 615 654 616 639 c 0,26,27
 616 624 616 624 605 613 c 128,-1,28
 594 602 594 602 580 604 c 0,29,30
 565 604 565 604 555 614 c 2,31,-1
 445 724 l 1,32,-1
 231 724 l 1,33,-1
 129 621 l 1,34,-1
 129 172 l 1,35,-1
 231 73 l 1,36,-1
 445 73 l 1,37,-1
 545 171 l 1,38,-1
 545 363 l 1,39,-1
 340 363 l 2,40,41
 325 363 325 363 314 374 c 0,42,43
 304 384 304 384 304 399 c 0,44,45
 304 413 304 413 314 424 c 0,46,47
 324 434 324 434 340 434 c 2,48,-1
 581 434 l 2,49,50
 595 434 595 434 606 424 c 0,51,52
 616 414 616 414 616 399 c 2,53,-1
 616 156 l 2,54,55
 616 150 616 150 613 143 c 0,56,57
 611 136 611 136 606 131 c 2,0,-1
EndSplineSet
Validated: 1
EndChar

StartChar: H
Encoding: 72 72 43
Width: 674
GlyphClass: 2
Flags: W
LayerCount: 2
Fore
SplineSet
57 757 m 2,0,1
 57 774 57 774 68 782 c 1,2,3
 76 793 76 793 93 793 c 128,-1,4
 110 793 110 793 118 782 c 1,5,6
 129 774 129 774 129 757 c 2,7,-1
 129 433 l 1,8,-1
 546 433 l 1,9,-1
 546 757 l 2,10,11
 546 772 546 772 556 782 c 0,12,13
 567 793 567 793 582 793 c 0,14,15
 596 793 596 793 607 782 c 0,16,17
 617 773 617 773 617 757 c 2,18,-1
 617 37 l 2,19,20
 617 21 617 21 607 12 c 0,21,22
 596 1 596 1 582 1 c 0,23,24
 567 1 567 1 556 12 c 0,25,26
 546 22 546 22 546 37 c 2,27,-1
 546 361 l 1,28,-1
 129 361 l 1,29,-1
 129 37 l 2,30,31
 129 20 129 20 118 12 c 1,32,33
 110 1 110 1 93 1 c 128,-1,34
 76 1 76 1 68 12 c 1,35,36
 57 20 57 20 57 37 c 2,37,-1
 57 757 l 2,0,1
EndSplineSet
Validated: 1
EndChar

StartChar: I
Encoding: 73 73 44
Width: 424
GlyphClass: 2
Flags: W
LayerCount: 2
Fore
SplineSet
93 724 m 2,0,1
 78 724 78 724 68 734 c 0,2,3
 57 745 57 745 57 760 c 0,4,5
 57 774 57 774 68 785 c 0,6,7
 77 795 77 795 93 795 c 2,8,-1
 212 795 l 1,9,-1
 215 795 l 1,10,-1
 217 795 l 1,11,-1
 332 795 l 2,12,13
 347 795 347 795 357 785 c 128,-1,14
 367 775 367 775 367 760 c 0,15,16
 367 744 367 744 357 734 c 0,17,18
 346 724 346 724 332 724 c 2,19,-1
 250 724 l 1,20,-1
 250 73 l 1,21,-1
 332 73 l 2,22,23
 347 73 347 73 357 63 c 128,-1,24
 367 53 367 53 367 38 c 0,25,26
 367 22 367 22 357 12 c 0,27,28
 346 2 346 2 332 2 c 2,29,-1
 93 2 l 2,30,31
 78 2 78 2 68 12 c 0,32,33
 57 23 57 23 57 38 c 0,34,35
 57 52 57 52 68 63 c 0,36,37
 77 73 77 73 93 73 c 2,38,-1
 179 73 l 1,39,-1
 179 724 l 1,40,-1
 93 724 l 2,0,1
EndSplineSet
Validated: 1
EndChar

StartChar: J
Encoding: 74 74 45
Width: 668
GlyphClass: 2
Flags: W
LayerCount: 2
Fore
SplineSet
492 156 m 2,0,1
 492 140 492 140 481 131 c 2,2,-1
 358 13 l 2,3,4
 350 3 350 3 334 2 c 2,5,-1
 212 2 l 2,6,7
 199 2 199 2 188 13 c 2,8,-1
 68 131 l 2,9,10
 58 141 58 141 58 156 c 0,11,12
 57 171 57 171 68 182 c 0,13,14
 78 192 78 192 92 192 c 0,15,16
 107 192 107 192 118 181 c 2,17,-1
 227 73 l 1,18,-1
 320 73 l 1,19,-1
 421 172 l 1,20,-1
 421 724 l 1,21,-1
 338 724 l 2,22,23
 324 724 324 724 313 734 c 0,24,25
 302 748 302 748 302 760 c 0,26,27
 302 774 302 774 313 785 c 0,28,29
 323 795 323 795 338 795 c 2,30,-1
 576 795 l 2,31,32
 592 795 592 795 602 785 c 0,33,34
 612 774 612 774 612 760 c 0,35,36
 612 747 612 747 602 734 c 1,37,38
 589 724 589 724 576 724 c 2,39,-1
 492 724 l 1,40,-1
 492 156 l 2,0,1
EndSplineSet
Validated: 1
EndChar

StartChar: K
Encoding: 75 75 46
Width: 674
GlyphClass: 2
Flags: W
LayerCount: 2
Fore
SplineSet
129 38 m 2,0,1
 129 23 129 23 118 12 c 0,2,3
 108 2 108 2 93 2 c 128,-1,4
 78 2 78 2 68 12 c 0,5,6
 57 23 57 23 57 38 c 2,7,-1
 57 760 l 2,8,9
 57 774 57 774 68 785 c 0,10,11
 77 795 77 795 93 795 c 128,-1,12
 109 795 109 795 118 785 c 0,13,14
 129 774 129 774 129 760 c 2,15,-1
 129 365 l 1,16,-1
 557 785 l 2,17,18
 567 795 567 795 582 795 c 128,-1,19
 597 795 597 795 607 785 c 128,-1,20
 617 775 617 775 617 760 c 128,-1,21
 617 745 617 745 606 734 c 2,22,-1
 266 399 l 1,23,-1
 606 63 l 2,24,25
 617 52 617 52 617 38 c 0,26,27
 617 23 617 23 607 13 c 0,28,29
 596 2 596 2 582 2 c 128,-1,30
 568 2 568 2 557 13 c 2,31,-1
 215 349 l 1,32,-1
 129 266 l 1,33,-1
 129 38 l 2,0,1
EndSplineSet
Validated: 1
EndChar

StartChar: L
Encoding: 76 76 47
Width: 674
GlyphClass: 2
Flags: W
LayerCount: 2
Fore
SplineSet
57 760 m 2,0,1
 57 774 57 774 68 785 c 0,2,3
 77 795 77 795 93 795 c 128,-1,4
 109 795 109 795 118 785 c 0,5,6
 129 774 129 774 129 760 c 2,7,-1
 129 73 l 1,8,-1
 582 73 l 2,9,10
 597 73 597 73 607 63 c 128,-1,11
 617 53 617 53 617 38 c 0,12,13
 617 22 617 22 607 12 c 0,14,15
 596 2 596 2 582 2 c 2,16,-1
 93 2 l 2,17,18
 78 2 78 2 68 12 c 0,19,20
 57 23 57 23 57 38 c 2,21,-1
 57 760 l 2,0,1
EndSplineSet
Validated: 1
EndChar

StartChar: M
Encoding: 77 77 48
Width: 674
GlyphClass: 2
Flags: W
LayerCount: 2
Fore
SplineSet
93 2 m 128,-1,1
 78 2 78 2 68 12 c 0,2,3
 57 23 57 23 57 38 c 2,4,-1
 57 760 l 2,5,6
 57 784 57 784 79 793 c 128,-1,7
 101 802 101 802 118 785 c 2,8,-1
 337 569 l 1,9,-1
 557 785 l 2,10,11
 574 802 574 802 596 793 c 128,-1,12
 618 784 618 784 618 760 c 2,13,-1
 618 38 l 2,14,15
 618 25 618 25 608 12 c 1,16,17
 595 2 595 2 582 2 c 128,-1,18
 569 2 569 2 556 12 c 1,19,20
 546 25 546 25 546 38 c 2,21,-1
 546 675 l 1,22,-1
 363 493 l 2,23,24
 353 483 353 483 338 483 c 128,-1,25
 323 483 323 483 313 493 c 2,26,-1
 129 675 l 1,27,-1
 129 38 l 2,28,29
 129 23 129 23 118 12 c 0,30,0
 108 2 108 2 93 2 c 128,-1,1
EndSplineSet
Validated: 33
EndChar

StartChar: N
Encoding: 78 78 49
Width: 674
GlyphClass: 2
Flags: W
LayerCount: 2
Fore
SplineSet
93 2 m 128,-1,1
 78 2 78 2 68 12 c 0,2,3
 57 23 57 23 57 38 c 2,4,-1
 57 759 l 2,5,6
 57 770 57 770 64 780 c 0,7,8
 73 789 73 789 82 793 c 0,9,10
 109 801 109 801 122 779 c 2,11,-1
 546 154 l 1,12,-1
 546 759 l 2,13,14
 546 773 546 773 556 784 c 0,15,16
 570 795 570 795 582 795 c 0,17,18
 596 795 596 795 607 784 c 0,19,20
 617 774 617 774 617 759 c 2,21,-1
 617 38 l 2,22,23
 617 27 617 27 610 17 c 0,24,25
 604 7 604 7 592 4 c 0,26,27
 567 -3 567 -3 553 18 c 2,28,-1
 129 643 l 1,29,-1
 129 38 l 2,30,31
 129 23 129 23 118 12 c 0,32,0
 108 2 108 2 93 2 c 128,-1,1
EndSplineSet
Validated: 33
EndChar

StartChar: O
Encoding: 79 79 50
Width: 674
GlyphClass: 2
Flags: W
LayerCount: 2
Fore
SplineSet
606 135 m 2,0,-1
 487 17 l 2,1,2
 479 8 479 8 462 6 c 2,3,-1
 216 6 l 2,4,5
 202 6 202 6 192 16 c 2,6,-1
 68 134 l 2,7,8
 57 145 57 145 57 160 c 2,9,-1
 57 640 l 2,10,11
 57 654 57 654 68 665 c 2,12,-1
 191 788 l 2,13,14
 201 798 201 798 216 799 c 2,15,-1
 462 799 l 2,16,17
 476 799 476 799 487 788 c 0,18,19
 493 782 493 782 506.5 768 c 128,-1,20
 520 754 520 754 532.5 742 c 128,-1,21
 545 730 545 730 557 718 c 0,22,23
 584 690 584 690 607 667 c 0,24,25
 611 662 611 662 614 656 c 0,26,27
 617 651 617 651 617 643 c 2,28,-1
 617 160 l 2,29,30
 617 154 617 154 614 146 c 0,31,32
 608 137 608 137 606 135 c 2,0,-1
447 727 m 1,33,-1
 231 727 l 1,34,-1
 129 625 l 1,35,-1
 129 176 l 1,36,-1
 231 77 l 1,37,-1
 447 77 l 1,38,-1
 546 175 l 1,39,-1
 546 628 l 1,40,-1
 447 727 l 1,33,-1
EndSplineSet
Validated: 1
EndChar

StartChar: P
Encoding: 80 80 51
Width: 674
GlyphClass: 2
Flags: W
LayerCount: 2
Fore
SplineSet
129 44 m 2,0,1
 129 29 129 29 118 18 c 0,2,3
 108 8 108 8 93 8 c 128,-1,4
 78 8 78 8 68 18 c 0,5,6
 57 29 57 29 57 44 c 2,7,-1
 57 765 l 2,8,9
 57 782 57 782 68 790 c 1,10,11
 76 801 76 801 93 801 c 2,12,-1
 99 801 l 1,13,-1
 461 800 l 2,14,15
 477 800 477 800 487 790 c 2,16,-1
 607 669 l 2,17,18
 617 660 617 660 617 644 c 2,19,-1
 617 403 l 2,20,21
 617 388 617 388 607 378 c 2,22,-1
 486 257 l 2,23,24
 476 247 476 247 461 247 c 2,25,-1
 129 247 l 1,26,-1
 129 44 l 2,0,1
129 318 m 1,27,-1
 446 318 l 1,28,-1
 546 418 l 1,29,-1
 546 629 l 1,30,-1
 446 729 l 1,31,-1
 129 729 l 1,32,-1
 129 318 l 1,27,-1
EndSplineSet
Validated: 1
EndChar

StartChar: Q
Encoding: 81 81 52
Width: 674
GlyphClass: 2
Flags: W
LayerCount: 2
Fore
SplineSet
487 17 m 2,0,1
 479 8 479 8 462 6 c 2,2,-1
 218 6 l 2,3,4
 203 6 203 6 193 16 c 2,5,-1
 68 135 l 2,6,7
 57 146 57 146 57 160 c 2,8,-1
 57 640 l 2,9,10
 57 655 57 655 68 666 c 2,11,-1
 193 789 l 2,12,13
 203 799 203 799 218 799 c 2,14,-1
 455 799 l 2,15,16
 470 799 470 799 480 789 c 2,17,-1
 607 662 l 2,18,19
 612 657 612 657 614 650 c 0,20,21
 617 642 617 642 617 637 c 2,22,-1
 617 160 l 2,23,24
 617 154 617 154 614 147 c 128,-1,25
 611 140 611 140 606 135 c 2,26,-1
 573 101 l 1,27,-1
 607 67 l 2,28,29
 617 57 617 57 617 42 c 128,-1,30
 617 27 617 27 607 17 c 128,-1,31
 597 7 597 7 582 6 c 0,32,33
 568 6 568 6 557 17 c 2,34,-1
 522 51 l 1,35,-1
 487 17 l 2,0,1
440 728 m 1,36,-1
 233 728 l 1,37,-1
 129 622 l 1,38,-1
 129 176 l 1,39,-1
 232 77 l 1,40,-1
 448 77 l 1,41,-1
 471 102 l 1,42,-1
 316 255 l 2,43,44
 306 265 306 265 306 280 c 0,45,46
 305 295 305 295 316 306 c 0,47,48
 326 316 326 316 340 316 c 0,49,50
 356 316 356 316 366 306 c 2,51,-1
 522 151 l 1,52,-1
 546 175 l 1,53,-1
 546 622 l 1,54,-1
 511 657 l 1,55,-1
 468 700 l 1,56,-1
 440 728 l 1,36,-1
EndSplineSet
Validated: 1
EndChar

StartChar: R
Encoding: 82 82 53
Width: 674
GlyphClass: 2
Flags: W
LayerCount: 2
Fore
SplineSet
129 42 m 2,0,1
 129 28 129 28 118 17 c 0,2,3
 109 6 109 6 93 6 c 128,-1,4
 77 6 77 6 68 17 c 0,5,6
 57 28 57 28 57 42 c 2,7,-1
 57 764 l 2,8,9
 57 778 57 778 68 789 c 0,10,11
 77 799 77 799 93 799 c 2,12,-1
 94 799 l 1,13,-1
 95 799 l 1,14,-1
 460 799 l 2,15,16
 476 799 476 799 485 789 c 2,17,-1
 606 667 l 2,18,19
 616 657 616 657 617 643 c 2,20,-1
 617 402 l 2,21,22
 617 387 617 387 606 376 c 2,23,-1
 485 255 l 2,24,25
 475 245 475 245 460 245 c 2,26,-1
 425 245 l 1,27,-1
 606 67 l 2,28,29
 616 57 616 57 616 42 c 0,30,31
 618 28 618 28 607 17 c 128,-1,32
 596 6 596 6 582 6 c 128,-1,33
 568 6 568 6 557 17 c 2,34,-1
 322 245 l 1,35,-1
 129 245 l 1,36,-1
 129 42 l 2,0,1
129 316 m 1,37,-1
 445 316 l 1,38,-1
 546 416 l 1,39,-1
 546 628 l 1,40,-1
 445 728 l 1,41,-1
 129 728 l 1,42,-1
 129 316 l 1,37,-1
EndSplineSet
Validated: 1
EndChar

StartChar: S
Encoding: 83 83 54
Width: 675
GlyphClass: 2
Flags: W
LayerCount: 2
Fore
SplineSet
214 362 m 2,0,1
 199 362 199 362 189 372 c 2,2,-1
 68 491 l 2,3,4
 59 499 59 499 57 516 c 2,5,-1
 57 637 l 2,6,7
 57 651 57 651 68 662 c 2,8,-1
 189 783 l 2,9,10
 199 793 199 793 214 793 c 2,11,-1
 458 793 l 2,12,13
 466 793 466 793 468 792 c 0,14,15
 478 791 478 791 488 782 c 2,16,-1
 606 660 l 2,17,18
 616 650 616 650 616 635 c 0,19,20
 617 621 617 621 606 610 c 0,21,22
 597 600 597 600 581 600 c 0,23,24
 566 600 566 600 556 610 c 2,25,-1
 447 722 l 1,26,-1
 229 722 l 1,27,-1
 129 622 l 1,28,-1
 129 531 l 1,29,-1
 229 433 l 1,30,-1
 459 433 l 1,31,-1
 460 433 l 2,32,33
 477 433 477 433 487 423 c 2,34,-1
 608 299 l 2,35,36
 618 290 618 290 618 274 c 2,37,-1
 618 154 l 2,38,39
 618 139 618 139 607 128 c 2,40,-1
 486 11 l 2,41,42
 476 1 476 1 461 1 c 2,43,-1
 220 1 l 2,44,45
 210 1 210 1 202 6 c 0,46,47
 195 9 195 9 191 13 c 2,48,-1
 69 129 l 2,49,50
 58 140 58 140 58 154 c 0,51,52
 56 168 56 168 67 178 c 0,53,54
 77 188 77 188 92 190 c 0,55,56
 108 190 108 190 118 180 c 2,57,-1
 232 72 l 1,58,-1
 447 72 l 1,59,-1
 547 169 l 1,60,-1
 547 260 l 1,61,-1
 446 362 l 1,62,-1
 214 362 l 2,0,1
EndSplineSet
Validated: 1
EndChar

StartChar: T
Encoding: 84 84 55
Width: 674
GlyphClass: 2
Flags: W
LayerCount: 2
Fore
SplineSet
93 722 m 2,0,1
 77 722 77 722 68 733 c 0,2,3
 57 744 57 744 57 758 c 0,4,5
 57 774 57 774 68 782 c 1,6,7
 76 793 76 793 93 793 c 2,8,-1
 582 793 l 2,9,10
 596 793 596 793 607 782 c 0,11,12
 617 773 617 773 617 758 c 128,-1,13
 617 743 617 743 607 733 c 0,14,15
 596 722 596 722 582 722 c 2,16,-1
 370 722 l 1,17,-1
 370 36 l 2,18,19
 370 22 370 22 360 12 c 0,20,21
 349 1 349 1 334 1 c 0,22,23
 318 1 318 1 310 12 c 1,24,25
 299 20 299 20 299 36 c 2,26,-1
 299 722 l 1,27,-1
 93 722 l 2,0,1
EndSplineSet
Validated: 1
EndChar

StartChar: U
Encoding: 85 85 56
Width: 674
GlyphClass: 2
Flags: W
LayerCount: 2
Fore
SplineSet
607 133 m 2,0,-1
 487 14 l 2,1,2
 477 4 477 4 462 4 c 2,3,-1
 214 4 l 2,4,5
 199 4 199 4 189 14 c 2,6,-1
 68 133 l 2,7,8
 57 144 57 144 57 158 c 2,9,-1
 57 761 l 2,10,11
 57 778 57 778 68 786 c 1,12,13
 76 797 76 797 93 797 c 128,-1,14
 110 797 110 797 118 786 c 1,15,16
 129 778 129 778 129 761 c 2,17,-1
 129 173 l 1,18,-1
 228 75 l 1,19,-1
 448 75 l 1,20,-1
 546 173 l 1,21,-1
 546 761 l 2,22,23
 546 776 546 776 556 786 c 0,24,25
 567 797 567 797 582 797 c 0,26,27
 596 797 596 797 607 786 c 0,28,29
 617 777 617 777 617 761 c 2,30,-1
 617 158 l 2,31,32
 617 150 617 150 614 144 c 0,33,34
 612 138 612 138 607 133 c 2,0,-1
EndSplineSet
Validated: 1
EndChar

StartChar: V
Encoding: 86 86 57
Width: 674
GlyphClass: 2
Flags: W
LayerCount: 2
Fore
SplineSet
94 793 m 128,-1,1
 110 793 110 793 118 782 c 1,2,3
 129 774 129 774 129 758 c 2,4,-1
 129 291 l 1,5,-1
 337 87 l 1,6,-1
 546 295 l 1,7,-1
 546 758 l 2,8,9
 546 772 546 772 556 782 c 0,10,11
 567 793 567 793 581 793 c 0,12,13
 597 793 597 793 606 783 c 0,14,15
 617 772 617 772 617 758 c 2,16,-1
 617 280 l 2,17,18
 617 265 617 265 607 255 c 2,19,-1
 363 11 l 2,20,21
 352 0 352 0 338 0 c 0,22,23
 322 2 322 2 312 11 c 2,24,-1
 68 251 l 2,25,26
 58 261 58 261 57 276 c 2,27,-1
 57 758 l 2,28,29
 57 772 57 772 68 783 c 0,30,0
 78 793 78 793 94 793 c 128,-1,1
EndSplineSet
Validated: 1
EndChar

StartChar: W
Encoding: 87 87 58
Width: 674
GlyphClass: 2
Flags: W
LayerCount: 2
Fore
SplineSet
582 795 m 0,0,1
 597 795 597 795 608 784 c 0,2,3
 618 774 618 774 618 759 c 2,4,-1
 618 38 l 2,5,6
 618 14 618 14 596 5 c 128,-1,7
 574 -4 574 -4 557 13 c 2,8,-1
 337 226 l 1,9,-1
 118 13 l 2,10,11
 100 -4 100 -4 79 5 c 0,12,13
 57 15 57 15 57 38 c 2,14,-1
 57 759 l 2,15,16
 57 773 57 773 68 784 c 0,17,18
 77 795 77 795 93 795 c 128,-1,19
 109 795 109 795 118 784 c 0,20,21
 129 773 129 773 129 759 c 2,22,-1
 129 123 l 1,23,-1
 313 301 l 2,24,25
 323 311 323 311 338 312 c 0,26,27
 352 312 352 312 363 301 c 2,28,-1
 546 123 l 1,29,-1
 546 759 l 2,30,31
 546 773 546 773 556 784 c 0,32,33
 570 795 570 795 582 795 c 0,0,1
EndSplineSet
Validated: 33
EndChar

StartChar: X
Encoding: 88 88 59
Width: 674
GlyphClass: 2
Flags: W
LayerCount: 2
Fore
SplineSet
64 740 m 2,0,1
 55 752 55 752 58 766 c 0,2,3
 61 781 61 781 73 789 c 0,4,5
 87 797 87 797 100 794 c 0,6,7
 114 793 114 793 122 779 c 2,8,-1
 337 462 l 1,9,-1
 553 779 l 2,10,11
 561 791 561 791 575 794 c 0,12,13
 588 796 588 796 602 788 c 0,14,15
 614 780 614 780 616 766 c 0,16,17
 619 753 619 753 611 739 c 2,18,-1
 380 399 l 1,19,-1
 611 58 l 2,20,21
 619 44 619 44 616 31 c 0,22,23
 614 17 614 17 602 9 c 0,24,25
 588 1 588 1 575 4 c 0,26,27
 561 6 561 6 553 18 c 2,28,-1
 337 335 l 1,29,-1
 122 18 l 2,30,31
 114 6 114 6 100 4 c 0,32,33
 87 1 87 1 73 9 c 0,34,35
 61 17 61 17 58 32 c 0,36,37
 55 46 55 46 64 58 c 2,38,-1
 294 399 l 1,39,-1
 64 740 l 2,0,1
EndSplineSet
Validated: 1
EndChar

StartChar: Y
Encoding: 89 89 60
Width: 674
GlyphClass: 2
Flags: W
LayerCount: 2
Fore
SplineSet
68 614 m 2,0,1
 57 625 57 625 57 639 c 2,2,-1
 57 758 l 2,3,4
 57 772 57 772 68 783 c 0,5,6
 78 793 78 793 94 793 c 128,-1,7
 110 793 110 793 118 782 c 1,8,9
 129 774 129 774 129 758 c 2,10,-1
 129 654 l 1,11,-1
 337 449 l 1,12,-1
 545 657 l 1,13,-1
 545 758 l 2,14,15
 545 774 545 774 556 782 c 1,16,17
 564 793 564 793 581 793 c 0,18,19
 597 793 597 793 606 783 c 0,20,21
 617 772 617 772 617 758 c 2,22,-1
 617 643 l 2,23,24
 617 628 617 628 607 618 c 2,25,-1
 373 384 l 1,26,-1
 373 37 l 2,27,28
 373 20 373 20 362 12 c 1,29,30
 354 1 354 1 337 1 c 128,-1,31
 320 1 320 1 312 12 c 1,32,33
 301 20 301 20 301 37 c 2,34,-1
 301 384 l 1,35,-1
 68 614 l 2,0,1
EndSplineSet
Validated: 1
EndChar

StartChar: Z
Encoding: 90 90 61
Width: 674
GlyphClass: 2
Flags: W
LayerCount: 2
Fore
SplineSet
58 758 m 0,0,1
 58 772 58 772 68 782 c 0,2,3
 79 793 79 793 94 793 c 2,4,-1
 581 793 l 2,5,6
 595 793 595 793 606 782 c 0,7,8
 617 773 617 773 617 758 c 2,9,-1
 617 639 l 2,10,11
 617 625 617 625 606 614 c 2,12,-1
 129 139 l 1,13,-1
 129 72 l 1,14,-1
 581 72 l 2,15,16
 596 72 596 72 606 62 c 0,17,18
 617 51 617 51 617 37 c 0,19,20
 617 20 617 20 606 12 c 1,21,22
 598 1 598 1 581 1 c 2,23,-1
 93 1 l 2,24,25
 76 1 76 1 68 12 c 1,26,27
 57 20 57 20 57 37 c 2,28,-1
 57 154 l 2,29,30
 57 169 57 169 68 178 c 2,31,-1
 546 653 l 1,32,-1
 546 722 l 1,33,-1
 94 722 l 2,34,35
 81 722 81 722 68 732 c 1,36,37
 58 745 58 745 58 758 c 0,0,1
EndSplineSet
Validated: 1
EndChar

StartChar: bracketleft
Encoding: 91 91 62
Width: 454
GlyphClass: 2
Flags: W
LayerCount: 2
Fore
SplineSet
386 754 m 0,0,1
 398 764 398 764 398 781 c 128,-1,2
 398 798 398 798 386 808 c 0,3,4
 376 820 376 820 359 820 c 2,5,-1
 96 820 l 2,6,7
 80 820 80 820 68 808 c 0,8,9
 57 797 57 797 57 781 c 2,10,-1
 57 -2 l 2,11,12
 57 -16 57 -16 68 -30 c 1,13,14
 82 -41 82 -41 96 -41 c 2,15,-1
 359 -41 l 2,16,17
 375 -41 375 -41 386 -30 c 0,18,19
 398 -18 398 -18 398 -2 c 128,-1,20
 398 14 398 14 386 26 c 0,21,22
 375 37 375 37 359 37 c 2,23,-1
 135 37 l 1,24,-1
 135 742 l 1,25,-1
 359 742 l 2,26,27
 376 742 376 742 386 754 c 0,0,1
EndSplineSet
Validated: 9
EndChar

StartChar: backslash
Encoding: 92 92 63
Width: 670
GlyphClass: 2
Flags: W
LayerCount: 2
Fore
SplineSet
73 789 m 0,0,1
 59 781 59 781 58 767 c 0,2,3
 55 754 55 754 63 740 c 2,4,-1
 548 18 l 2,5,6
 557 6 557 6 571 3 c 0,7,8
 584 0 584 0 598 8 c 0,9,10
 610 16 610 16 613 30 c 128,-1,11
 616 44 616 44 608 58 c 2,12,-1
 123 780 l 2,13,14
 114 793 114 793 100 796 c 0,15,16
 83 798 83 798 73 789 c 0,0,1
EndSplineSet
Validated: 9
EndChar

StartChar: bracketright
Encoding: 93 93 64
Width: 427
GlyphClass: 2
Flags: W
LayerCount: 2
Fore
SplineSet
57 781 m 128,-1,1
 57 797 57 797 68 808 c 0,2,3
 80 820 80 820 96 820 c 2,4,-1
 359 820 l 2,5,6
 376 820 376 820 386 808 c 0,7,8
 398 798 398 798 398 781 c 2,9,-1
 398 -2 l 2,10,11
 398 -18 398 -18 386 -30 c 0,12,13
 375 -41 375 -41 359 -41 c 2,14,-1
 96 -41 l 2,15,16
 82 -41 82 -41 68 -30 c 1,17,18
 57 -16 57 -16 57 -2 c 128,-1,19
 57 12 57 12 68 26 c 1,20,21
 82 37 82 37 96 37 c 2,22,-1
 320 37 l 1,23,-1
 320 742 l 1,24,-1
 96 742 l 2,25,26
 80 742 80 742 68 754 c 0,27,0
 57 765 57 765 57 781 c 128,-1,1
EndSplineSet
Validated: 1
EndChar

StartChar: asciicircum
Encoding: 94 94 65
Width: 650
GlyphClass: 2
Flags: W
LayerCount: 2
Fore
SplineSet
68 537 m 128,-1,1
 58 547 58 547 58 562 c 0,2,3
 56 576 56 576 68 587 c 2,4,-1
 303 827 l 2,5,6
 313 837 313 837 328 837 c 128,-1,7
 343 837 343 837 353 827 c 2,8,-1
 593 587 l 2,9,10
 603 577 603 577 603 562 c 0,11,12
 603 548 603 548 592 537 c 0,13,14
 583 527 583 527 568 527 c 128,-1,15
 553 527 553 527 543 537 c 2,16,-1
 328 752 l 1,17,-1
 118 538 l 2,18,19
 107 527 107 527 94 527 c 0,20,0
 78 527 78 527 68 537 c 128,-1,1
EndSplineSet
Validated: 1
EndChar

StartChar: underscore
Encoding: 95 95 66
Width: 658
GlyphClass: 2
Flags: W
LayerCount: 2
Fore
SplineSet
68 -68 m 0,0,1
 57 -57 57 -57 57 -43 c 0,2,3
 57 -26 57 -26 68 -18 c 1,4,5
 76 -7 76 -7 92 -7 c 2,6,-1
 566 -7 l 2,7,8
 582 -7 582 -7 590 -18 c 1,9,10
 601 -26 601 -26 601 -43 c 0,11,12
 601 -57 601 -57 590 -68 c 0,13,14
 581 -79 581 -79 566 -79 c 2,15,-1
 92 -79 l 2,16,17
 77 -79 77 -79 68 -68 c 0,0,1
EndSplineSet
Validated: 1
EndChar

StartChar: grave
Encoding: 96 96 67
Width: 1175
GlyphClass: 2
Flags: W
LayerCount: 2
Fore
SplineSet
635 771 m 2,0,-1
 544 830 l 2,1,2
 532 839 532 839 528 852 c 0,3,4
 525 866 525 866 533 880 c 0,5,6
 541 892 541 892 556 895 c 0,7,8
 569 898 569 898 583 890 c 2,9,-1
 674 831 l 2,10,11
 686 822 686 822 690 808 c 0,12,13
 693 796 693 796 685 782 c 0,14,15
 678 769 678 769 662 766 c 0,16,17
 649 763 649 763 635 771 c 2,0,-1
EndSplineSet
Validated: 1
EndChar

StartChar: a
Encoding: 97 97 68
Width: 674
GlyphClass: 2
Flags: W
LayerCount: 2
Fore
SplineSet
546 379 m 1,0,-1
 443 482 l 1,1,-1
 208 482 l 2,2,3
 195 482 195 482 182 492 c 1,4,5
 172 505 172 505 172 518 c 0,6,7
 172 532 172 532 182 542 c 0,8,9
 193 553 193 553 208 553 c 2,10,-1
 457 553 l 2,11,12
 473 553 473 553 483 543 c 2,13,-1
 606 419 l 2,14,15
 616 409 616 409 617 394 c 2,16,-1
 617 36 l 2,17,18
 617 20 617 20 606 12 c 1,19,20
 598 1 598 1 581 1 c 2,21,-1
 203 1 l 2,22,23
 188 1 188 1 176 13 c 2,24,-1
 67 129 l 2,25,26
 58 140 58 140 58 154 c 128,-1,27
 58 168 58 168 68 178 c 2,28,-1
 189 299 l 2,29,30
 197 308 197 308 214 310 c 2,31,-1
 546 310 l 1,32,-1
 546 379 l 1,0,-1
229 243 m 1,33,-1
 142 156 l 1,34,-1
 218 76 l 1,35,-1
 546 76 l 1,36,-1
 546 243 l 1,37,-1
 229 243 l 1,33,-1
EndSplineSet
Validated: 1
EndChar

StartChar: b
Encoding: 98 98 69
Width: 672
GlyphClass: 2
Flags: W
LayerCount: 2
Fore
SplineSet
456 554 m 2,0,1
 471 554 471 554 480 544 c 2,2,-1
 605 421 l 2,3,4
 612 414 612 414 614 405 c 0,5,6
 616 397 616 397 616 396 c 2,7,-1
 616 152 l 2,8,9
 616 138 616 138 605 127 c 2,10,-1
 492 13 l 2,11,12
 482 4 482 4 466 2 c 2,13,-1
 93 2 l 2,14,15
 78 2 78 2 68 12 c 0,16,17
 57 23 57 23 57 38 c 2,18,-1
 57 760 l 2,19,20
 57 774 57 774 68 785 c 0,21,22
 77 795 77 795 93 795 c 128,-1,23
 109 795 109 795 118 785 c 0,24,25
 129 774 129 774 129 760 c 2,26,-1
 129 554 l 1,27,-1
 456 554 l 2,0,1
440 488 m 1,28,-1
 128 488 l 1,29,-1
 128 78 l 1,30,-1
 451 78 l 1,31,-1
 544 171 l 1,32,-1
 544 386 l 1,33,-1
 440 488 l 1,28,-1
EndSplineSet
Validated: 1
EndChar

StartChar: c
Encoding: 99 99 70
Width: 674
GlyphClass: 2
Flags: W
LayerCount: 2
Fore
SplineSet
129 380 m 1,0,-1
 129 165 l 1,1,-1
 222 72 l 1,2,-1
 582 72 l 2,3,4
 596 72 596 72 606 62 c 0,5,6
 617 51 617 51 617 36 c 0,7,8
 617 22 617 22 606 11 c 0,9,10
 597 1 597 1 582 1 c 2,11,-1
 207 1 l 2,12,13
 192 1 192 1 182 11 c 2,14,-1
 68 126 l 2,15,16
 58 136 58 136 57 151 c 2,17,-1
 57 395 l 1,18,-1
 58 396 l 2,19,20
 58 398 58 398 58.5 400 c 128,-1,21
 59 402 59 402 59 404 c 0,22,23
 60 413 60 413 68 421 c 2,24,-1
 193 544 l 2,25,26
 203 554 203 554 219 554 c 2,27,-1
 582 554 l 2,28,29
 596 554 596 554 607 544 c 0,30,31
 617 534 617 534 617 518 c 0,32,33
 617 504 617 504 606 493 c 0,34,35
 597 483 597 483 582 483 c 2,36,-1
 233 483 l 1,37,-1
 129 380 l 1,0,-1
EndSplineSet
Validated: 1
EndChar

StartChar: d
Encoding: 100 100 71
Width: 672
GlyphClass: 2
Flags: W
LayerCount: 2
Fore
SplineSet
218 553 m 2,0,1
 204 553 204 553 193 542 c 2,2,-1
 68 420 l 2,3,4
 61 414 61 414 59 403 c 0,5,6
 58 402 58 402 58 399 c 0,7,8
 57 397 57 397 57 394 c 2,9,-1
 57 150 l 2,10,11
 57 136 57 136 68 125 c 2,12,-1
 182 11 l 2,13,14
 192 1 192 1 207 1 c 2,15,-1
 581 1 l 2,16,17
 595 1 595 1 606 12 c 0,18,19
 616 21 616 21 616 37 c 2,20,-1
 616 758 l 2,21,22
 616 773 616 773 606 782 c 0,23,24
 595 793 595 793 581 793 c 0,25,26
 565 793 565 793 556 783 c 0,27,28
 545 772 545 772 545 758 c 2,29,-1
 545 553 l 1,30,-1
 218 553 l 2,0,1
232 485 m 1,31,-1
 545 485 l 1,32,-1
 545 75 l 1,33,-1
 221 75 l 1,34,-1
 129 169 l 1,35,-1
 129 383 l 1,36,-1
 232 485 l 1,31,-1
EndSplineSet
Validated: 9
EndChar

StartChar: e
Encoding: 101 101 72
Width: 675
GlyphClass: 2
Flags: W
LayerCount: 2
Fore
SplineSet
59 401 m 2,0,1
 59 416 59 416 69 426 c 2,2,-1
 186 543 l 2,3,4
 196 553 196 553 211 553 c 2,5,-1
 465 553 l 2,6,7
 480 553 480 553 490 543 c 2,8,-1
 608 425 l 2,9,10
 618 415 618 415 618 400 c 2,11,-1
 618 275 l 2,12,13
 618 260 618 260 608 250 c 0,14,15
 597 239 597 239 582 239 c 2,16,-1
 130 239 l 1,17,-1
 130 173 l 1,18,-1
 231 72 l 1,19,-1
 460 72 l 2,20,21
 474 72 474 72 485 62 c 0,22,23
 495 52 495 52 495 37 c 0,24,25
 495 20 495 20 484 12 c 1,26,27
 476 1 476 1 460 1 c 2,28,-1
 216 1 l 2,29,30
 200 1 200 1 190 11 c 2,31,-1
 69 133 l 2,32,33
 59 143 59 143 59 158 c 2,34,-1
 59 270 l 1,35,-1
 58 279 l 2,36,37
 57 280 57 280 59 288 c 2,38,-1
 59 401 l 2,0,1
548 313 m 1,39,-1
 548 388 l 1,40,-1
 452 485 l 1,41,-1
 227 485 l 1,42,-1
 131 389 l 1,43,-1
 131 313 l 1,44,-1
 548 313 l 1,39,-1
EndSplineSet
Validated: 1
EndChar

StartChar: f
Encoding: 102 102 73
Width: 511
GlyphClass: 2
Flags: W
LayerCount: 2
Fore
SplineSet
92 484 m 2,0,1
 77 484 77 484 68 494 c 0,2,3
 57 505 57 505 57 519 c 128,-1,4
 57 533 57 533 68 544 c 0,5,6
 77 554 77 554 92 554 c 2,7,-1
 174 554 l 1,8,-1
 174 640 l 2,9,10
 174 654 174 654 185 665 c 2,11,-1
 303 784 l 2,12,13
 308 788 308 788 314 791 c 0,14,15
 322 794 322 794 328 794 c 2,16,-1
 419 794 l 2,17,18
 431 794 431 794 444 784 c 1,19,20
 454 771 454 771 454 758 c 0,21,22
 454 743 454 743 444 734 c 0,23,24
 433 723 433 723 419 723 c 2,25,-1
 343 723 l 1,26,-1
 245 626 l 1,27,-1
 245 554 l 1,28,-1
 417 554 l 2,29,30
 429 554 429 554 442 544 c 1,31,32
 452 531 452 531 452 518 c 128,-1,33
 452 505 452 505 442 494 c 0,34,35
 432 484 432 484 417 484 c 2,36,-1
 245 484 l 1,37,-1
 245 36 l 2,38,39
 245 20 245 20 234 12 c 1,40,41
 226 1 226 1 210 1 c 128,-1,42
 194 1 194 1 184 11 c 0,43,44
 174 22 174 22 174 36 c 2,45,-1
 174 484 l 1,46,-1
 92 484 l 2,0,1
EndSplineSet
Validated: 1
EndChar

StartChar: g
Encoding: 103 103 74
Width: 673
GlyphClass: 2
Flags: W
LayerCount: 2
Fore
SplineSet
606 -104 m 2,0,-1
 471 -239 l 2,1,2
 461 -249 461 -249 446 -249 c 2,3,-1
 227 -249 l 2,4,5
 210 -249 210 -249 202 -238 c 1,6,7
 191 -230 191 -230 191 -214 c 0,8,9
 191 -199 191 -199 202 -188 c 0,10,11
 212 -178 212 -178 227 -178 c 2,12,-1
 431 -178 l 1,13,-1
 546 -64 l 1,14,-1
 546 0 l 1,15,-1
 216 0 l 2,16,17
 201 0 201 0 191 10 c 2,18,-1
 68 134 l 2,19,20
 58 142 58 142 57 158 c 2,21,-1
 57 398 l 2,22,23
 57 412 57 412 68 423 c 2,24,-1
 191 543 l 2,25,26
 201 553 201 553 216 553 c 2,27,-1
 581 553 l 2,28,29
 598 553 598 553 606 542 c 1,30,31
 617 534 617 534 617 518 c 2,32,-1
 617 -79 l 2,33,34
 617 -93 617 -93 606 -104 c 2,0,-1
540 484 m 1,35,-1
 225 484 l 1,36,-1
 123 384 l 1,37,-1
 123 175 l 1,38,-1
 225 72 l 1,39,-1
 540 72 l 1,40,-1
 540 484 l 1,35,-1
EndSplineSet
Validated: 1
EndChar

StartChar: h
Encoding: 104 104 75
Width: 674
GlyphClass: 2
Flags: W
LayerCount: 2
Fore
SplineSet
187 543 m 2,0,1
 198 554 198 554 212 554 c 2,2,-1
 459 554 l 2,3,4
 473 554 473 554 484 543 c 2,5,-1
 606 421 l 2,6,7
 617 410 617 410 617 396 c 2,8,-1
 617 37 l 2,9,10
 617 23 617 23 606 12 c 0,11,12
 597 1 597 1 581 1 c 0,13,14
 567 1 567 1 556 12 c 0,15,16
 546 22 546 22 546 37 c 2,17,-1
 546 381 l 1,18,-1
 444 483 l 1,19,-1
 227 483 l 1,20,-1
 129 384 l 1,21,-1
 129 37 l 2,22,23
 129 20 129 20 118 12 c 1,24,25
 110 1 110 1 93 1 c 128,-1,26
 76 1 76 1 68 12 c 1,27,28
 57 20 57 20 57 37 c 2,29,-1
 57 757 l 2,30,31
 57 774 57 774 68 782 c 1,32,33
 76 793 76 793 93 793 c 128,-1,34
 110 793 110 793 118 782 c 1,35,36
 129 774 129 774 129 757 c 2,37,-1
 129 485 l 1,38,-1
 187 543 l 2,0,1
EndSplineSet
Validated: 1
EndChar

StartChar: i
Encoding: 105 105 76
Width: 421
GlyphClass: 2
Flags: W
LayerCount: 2
Fore
SplineSet
182 484 m 1,0,-1
 93 484 l 2,1,2
 77 484 77 484 68 494 c 0,3,4
 57 505 57 505 57 519 c 0,5,6
 57 536 57 536 68 544 c 1,7,8
 76 555 76 555 93 555 c 2,9,-1
 217 555 l 2,10,11
 231 555 231 555 242 544 c 0,12,13
 253 535 253 535 253 519 c 2,14,-1
 253 73 l 1,15,-1
 328 73 l 2,16,17
 343 73 343 73 354 62 c 0,18,19
 364 52 364 52 364 38 c 0,20,21
 364 25 364 25 354 12 c 1,22,23
 341 2 341 2 328 2 c 2,24,-1
 93 2 l 2,25,26
 77 2 77 2 68 12 c 0,27,28
 57 23 57 23 57 37 c 0,29,30
 57 54 57 54 68 62 c 1,31,32
 76 73 76 73 93 73 c 2,33,-1
 182 73 l 1,34,-1
 182 484 l 1,0,-1
244 671 m 0,35,36
 230 660 230 660 218 660 c 0,37,38
 203 660 203 660 194 671 c 0,39,40
 183 682 183 682 183 696 c 2,41,-1
 183 756 l 2,42,43
 183 771 183 771 194 782 c 0,44,45
 204 792 204 792 219 792 c 0,46,47
 233 792 233 792 244 782 c 0,48,49
 254 772 254 772 254 756 c 2,50,-1
 254 696 l 2,51,52
 254 682 254 682 244 671 c 0,35,36
EndSplineSet
Validated: 1
EndChar

StartChar: j
Encoding: 106 106 77
Width: 478
GlyphClass: 2
Flags: W
LayerCount: 2
Fore
SplineSet
385 665 m 128,-1,1
 371 665 371 665 360 676 c 0,2,3
 349 685 349 685 349 701 c 2,4,-1
 349 761 l 2,5,6
 349 775 349 775 360 786 c 0,7,8
 370 796 370 796 385 796 c 128,-1,9
 400 796 400 796 410 786 c 0,10,11
 421 775 421 775 421 761 c 2,12,-1
 421 701 l 2,13,14
 421 687 421 687 410 676 c 128,-1,0
 399 665 399 665 385 665 c 128,-1,1
384 568 m 128,-1,16
 399 568 399 568 410 557 c 128,-1,17
 421 546 421 546 421 531 c 2,18,-1
 421 -78 l 2,19,20
 421 -93 421 -93 410 -104 c 2,21,-1
 255 -259 l 2,22,23
 244 -270 244 -270 229 -270 c 2,24,-1
 95 -270 l 2,25,26
 82 -270 82 -270 68 -259 c 0,27,28
 57 -248 57 -248 57 -233 c 128,-1,29
 57 -218 57 -218 68 -207 c 128,-1,30
 79 -196 79 -196 95 -196 c 2,31,-1
 214 -196 l 1,32,-1
 347 -63 l 1,33,-1
 347 531 l 2,34,35
 347 546 347 546 358 557 c 128,-1,15
 369 568 369 568 384 568 c 128,-1,16
EndSplineSet
Validated: 1
EndChar

StartChar: k
Encoding: 107 107 78
Width: 617
GlyphClass: 2
Flags: W
LayerCount: 2
Fore
SplineSet
129 36 m 2,0,1
 129 22 129 22 118 11 c 0,2,3
 109 1 109 1 93 1 c 0,4,5
 76 1 76 1 68 12 c 1,6,7
 57 20 57 20 57 36 c 2,8,-1
 57 760 l 2,9,10
 57 775 57 775 68 786 c 0,11,12
 78 796 78 796 93 796 c 128,-1,13
 108 796 108 796 118 786 c 0,14,15
 129 775 129 775 129 760 c 2,16,-1
 129 331 l 1,17,-1
 260 331 l 1,18,-1
 473 544 l 2,19,20
 484 555 484 555 498 555 c 0,21,22
 513 555 513 555 524 544 c 0,23,24
 534 534 534 534 534 519 c 0,25,26
 535 504 535 504 524 493 c 2,27,-1
 326 295 l 1,28,-1
 561 61 l 2,29,30
 571 51 571 51 571 36 c 128,-1,31
 571 21 571 21 561 11 c 0,32,33
 550 0 550 0 535 0 c 128,-1,34
 520 0 520 0 509 11 c 2,35,-1
 261 259 l 1,36,-1
 129 259 l 1,37,-1
 129 36 l 2,0,1
EndSplineSet
Validated: 1
EndChar

StartChar: l
Encoding: 108 108 79
Width: 427
GlyphClass: 2
Flags: W
LayerCount: 2
Fore
SplineSet
185 721 m 1,0,-1
 93 721 l 2,1,2
 76 721 76 721 68 732 c 1,3,4
 57 740 57 740 57 757 c 128,-1,5
 57 774 57 774 68 782 c 1,6,7
 76 793 76 793 93 793 c 2,8,-1
 220 793 l 2,9,10
 235 793 235 793 246 782 c 0,11,12
 256 772 256 772 256 757 c 2,13,-1
 256 71 l 1,14,-1
 334 71 l 2,15,16
 349 71 349 71 360 60 c 0,17,18
 371 51 371 51 371 36 c 128,-1,19
 371 21 371 21 360 10 c 128,-1,20
 349 -1 349 -1 334 -1 c 2,21,-1
 93 -1 l 2,22,23
 77 -1 77 -1 68 10 c 0,24,25
 57 21 57 21 57 36 c 0,26,27
 57 52 57 52 68 60 c 1,28,29
 76 71 76 71 93 71 c 2,30,-1
 185 71 l 1,31,-1
 185 721 l 1,0,-1
EndSplineSet
Validated: 1
EndChar

StartChar: m
Encoding: 109 109 80
Width: 674
GlyphClass: 2
Flags: W
LayerCount: 2
Fore
SplineSet
205 482 m 1,0,-1
 129 482 l 1,1,-1
 129 36 l 2,2,3
 129 22 129 22 118 11 c 0,4,5
 109 1 109 1 93 1 c 0,6,7
 76 1 76 1 68 12 c 1,8,9
 57 20 57 20 57 36 c 2,10,-1
 57 518 l 2,11,12
 57 532 57 532 68 543 c 0,13,14
 77 553 77 553 93 553 c 2,15,-1
 220 553 l 2,16,17
 234 553 234 553 245 542 c 2,18,-1
 337 450 l 1,19,-1
 427 540 l 2,20,21
 437 550 437 550 452 550 c 0,22,23
 468 550 468 550 477 540 c 2,24,-1
 607 410 l 2,25,26
 617 400 617 400 617 385 c 2,27,-1
 617 36 l 2,28,29
 617 21 617 21 607 12 c 0,30,31
 596 1 596 1 582 1 c 0,32,33
 567 1 567 1 556 12 c 0,34,35
 546 22 546 22 546 36 c 2,36,-1
 546 370 l 1,37,-1
 452 464 l 1,38,-1
 373 385 l 1,39,-1
 373 36 l 2,40,41
 373 20 373 20 362 12 c 1,42,43
 354 1 354 1 337 1 c 0,44,45
 323 1 323 1 312 12 c 0,46,47
 302 21 302 21 302 36 c 2,48,-1
 302 385 l 1,49,-1
 205 482 l 1,0,-1
EndSplineSet
Validated: 1
EndChar

StartChar: n
Encoding: 110 110 81
Width: 674
GlyphClass: 2
Flags: W
LayerCount: 2
Fore
SplineSet
93 0 m 128,-1,1
 78 0 78 0 68 10 c 0,2,3
 57 21 57 21 57 36 c 2,4,-1
 57 517 l 2,5,6
 57 531 57 531 68 542 c 0,7,8
 78 552 78 552 93 553 c 2,9,-1
 452 552 l 2,10,11
 467 552 467 552 477 542 c 2,12,-1
 606 412 l 2,13,14
 616 402 616 402 617 387 c 2,15,-1
 617 36 l 2,16,17
 617 21 617 21 606 10 c 0,18,19
 596 0 596 0 581 0 c 0,20,21
 569 0 569 0 556 10 c 1,22,23
 546 23 546 23 546 36 c 2,24,-1
 546 372 l 1,25,-1
 437 481 l 1,26,-1
 129 481 l 1,27,-1
 129 36 l 2,28,29
 129 21 129 21 118 10 c 0,30,0
 108 0 108 0 93 0 c 128,-1,1
EndSplineSet
Validated: 1
EndChar

StartChar: o
Encoding: 111 111 82
Width: 674
GlyphClass: 2
Flags: W
LayerCount: 2
Fore
SplineSet
57 392 m 2,0,1
 57 404 57 404 68 418 c 2,2,-1
 197 548 l 2,3,4
 207 558 207 558 223 558 c 2,5,-1
 452 558 l 2,6,7
 467 558 467 558 477 548 c 2,8,-1
 608 418 l 2,9,10
 618 408 618 408 618 392 c 2,11,-1
 618 171 l 2,12,13
 618 156 618 156 608 146 c 2,14,-1
 477 15 l 2,15,16
 467 5 467 5 452 5 c 2,17,-1
 223 5 l 2,18,19
 207 5 207 5 197 15 c 2,20,-1
 68 146 l 2,21,22
 58 156 58 156 57 171 c 2,23,-1
 57 392 l 2,0,1
238 487 m 1,24,-1
 129 378 l 1,25,-1
 129 185 l 1,26,-1
 238 76 l 1,27,-1
 373 76 l 1,28,-1
 437 76 l 1,29,-1
 546 185 l 1,30,-1
 546 378 l 1,31,-1
 437 487 l 1,32,-1
 301 487 l 1,33,-1
 238 487 l 1,24,-1
EndSplineSet
Validated: 1
EndChar

StartChar: p
Encoding: 112 112 83
Width: 674
GlyphClass: 2
Flags: W
LayerCount: 2
Fore
SplineSet
456 3 m 2,0,1
 471 3 471 3 481 13 c 2,2,-1
 606 135 l 2,3,4
 612 142 612 142 616 152 c 0,5,6
 618 159 618 159 617 161 c 2,7,-1
 617 406 l 2,8,9
 617 420 617 420 606 431 c 2,10,-1
 493 545 l 2,11,12
 483 555 483 555 468 555 c 2,13,-1
 93 555 l 2,14,15
 77 555 77 555 68 545 c 0,16,17
 57 534 57 534 57 520 c 2,18,-1
 57 -204 l 2,19,20
 57 -220 57 -220 68 -228 c 1,21,22
 76 -239 76 -239 93 -239 c 128,-1,23
 110 -239 110 -239 118 -228 c 1,24,25
 129 -220 129 -220 129 -204 c 2,26,-1
 129 3 l 1,27,-1
 456 3 l 2,0,1
442 74 m 1,28,-1
 129 74 l 1,29,-1
 129 484 l 1,30,-1
 453 484 l 1,31,-1
 546 391 l 1,32,-1
 546 176 l 1,33,-1
 442 74 l 1,28,-1
EndSplineSet
Validated: 9
EndChar

StartChar: q
Encoding: 113 113 84
Width: 674
GlyphClass: 2
Flags: W
LayerCount: 2
Fore
SplineSet
219 1 m 2,0,1
 203 1 203 1 193 11 c 2,2,-1
 68 134 l 2,3,4
 60 140 60 140 59 150 c 0,5,6
 59 152 59 152 58 154 c 0,7,8
 58 158 58 158 57 159 c 2,9,-1
 57 403 l 2,10,11
 57 418 57 418 68 429 c 2,12,-1
 182 543 l 2,13,14
 193 554 193 554 207 554 c 2,15,-1
 582 554 l 2,16,17
 596 554 596 554 607 543 c 0,18,19
 617 533 617 533 617 518 c 2,20,-1
 617 -205 l 2,21,22
 617 -221 617 -221 607 -230 c 0,23,24
 596 -241 596 -241 582 -241 c 0,25,26
 567 -241 567 -241 556 -230 c 0,27,28
 546 -220 546 -220 546 -205 c 2,29,-1
 546 1 l 1,30,-1
 219 1 l 2,0,1
233 72 m 1,31,-1
 546 72 l 1,32,-1
 546 482 l 1,33,-1
 222 482 l 1,34,-1
 129 389 l 1,35,-1
 129 174 l 1,36,-1
 233 72 l 1,31,-1
EndSplineSet
Validated: 1
EndChar

StartChar: r
Encoding: 114 114 85
Width: 502
GlyphClass: 2
Flags: W
LayerCount: 2
Fore
SplineSet
130 37 m 2,0,1
 130 21 130 21 119 12 c 0,2,3
 108 1 108 1 94 1 c 0,4,5
 79 1 79 1 68 12 c 0,6,7
 57 21 57 21 57 37 c 2,8,-1
 57 518 l 2,9,10
 57 532 57 532 68 543 c 0,11,12
 78 553 78 553 94 553 c 0,13,14
 108 553 108 553 119 542 c 0,15,16
 130 533 130 533 130 518 c 2,17,-1
 130 372 l 1,18,-1
 301 543 l 2,19,20
 311 553 311 553 326 553 c 2,21,-1
 464 553 l 2,22,23
 479 553 479 553 490 542 c 0,24,25
 500 532 500 532 500 518 c 0,26,27
 500 505 500 505 490 492 c 1,28,29
 477 482 477 482 464 482 c 2,30,-1
 341 482 l 1,31,-1
 130 271 l 1,32,-1
 130 37 l 2,0,1
EndSplineSet
Validated: 1
EndChar

StartChar: s
Encoding: 115 115 86
Width: 673
GlyphClass: 2
Flags: W
LayerCount: 2
Fore
SplineSet
616 517 m 0,0,1
 616 505 616 505 606 492 c 1,2,3
 593 482 593 482 580 482 c 2,4,-1
 223 482 l 1,5,-1
 144 396 l 1,6,-1
 238 310 l 1,7,-1
 453 310 l 2,8,9
 468 310 468 310 478 300 c 2,10,-1
 605 182 l 2,11,12
 616 171 616 171 616 157 c 0,13,14
 616 145 616 145 605 131 c 2,15,-1
 483 11 l 2,16,17
 473 1 473 1 457 1 c 2,18,-1
 93 1 l 2,19,20
 76 1 76 1 68 12 c 1,21,22
 57 20 57 20 57 36 c 0,23,24
 57 50 57 50 68 61 c 0,25,26
 77 72 77 72 93 72 c 2,27,-1
 443 72 l 1,28,-1
 529 156 l 1,29,-1
 439 239 l 1,30,-1
 224 239 l 2,31,32
 210 239 210 239 199 248 c 2,33,-1
 69 369 l 2,34,35
 58 380 58 380 58 394 c 0,36,37
 56 408 56 408 67 419 c 2,38,-1
 180 541 l 2,39,40
 190 552 190 552 207 553 c 2,41,-1
 580 553 l 2,42,43
 595 553 595 553 606 542 c 0,44,45
 616 532 616 532 616 517 c 0,0,1
EndSplineSet
Validated: 1
EndChar

StartChar: t
Encoding: 116 116 87
Width: 484
GlyphClass: 2
Flags: W
LayerCount: 2
Fore
SplineSet
64 483 m 2,0,1
 50 483 50 483 39 494 c 0,2,3
 29 503 29 503 29 518 c 0,4,5
 29 534 29 534 39 544 c 0,6,7
 50 554 50 554 64 554 c 2,8,-1
 165 554 l 1,9,-1
 165 651 l 2,10,11
 165 665 165 665 176 676 c 0,12,13
 185 687 185 687 200 687 c 128,-1,14
 215 687 215 687 226 676 c 0,15,16
 236 666 236 666 236 651 c 2,17,-1
 236 554 l 1,18,-1
 392 554 l 2,19,20
 405 554 405 554 418 544 c 1,21,22
 428 531 428 531 428 518 c 0,23,24
 428 504 428 504 418 493 c 0,25,26
 408 483 408 483 392 483 c 2,27,-1
 236 483 l 1,28,-1
 236 169 l 1,29,-1
 333 72 l 1,30,-1
 392 72 l 2,31,32
 408 72 408 72 418 62 c 0,33,34
 428 51 428 51 428 37 c 0,35,36
 428 22 428 22 418 12 c 0,37,38
 407 1 407 1 392 1 c 2,39,-1
 318 1 l 2,40,41
 303 1 303 1 293 11 c 2,42,-1
 175 129 l 2,43,44
 165 139 165 139 165 154 c 2,45,-1
 165 483 l 1,46,-1
 64 483 l 2,0,1
EndSplineSet
Validated: 1
EndChar

StartChar: u
Encoding: 117 117 88
Width: 674
GlyphClass: 2
Flags: W
LayerCount: 2
Fore
SplineSet
581 553 m 0,0,1
 598 553 598 553 606 542 c 1,2,3
 617 534 617 534 617 518 c 2,4,-1
 617 36 l 2,5,6
 617 22 617 22 606 11 c 0,7,8
 596 1 596 1 581 1 c 2,9,-1
 222 1 l 2,10,11
 207 1 207 1 197 11 c 2,12,-1
 68 141 l 2,13,14
 58 151 58 151 57 166 c 2,15,-1
 57 518 l 2,16,17
 57 532 57 532 68 543 c 0,18,19
 77 553 77 553 93 553 c 0,20,21
 110 553 110 553 118 542 c 1,22,23
 129 534 129 534 129 518 c 2,24,-1
 129 181 l 1,25,-1
 238 72 l 1,26,-1
 546 72 l 1,27,-1
 546 518 l 2,28,29
 546 532 546 532 556 543 c 0,30,31
 566 553 566 553 581 553 c 0,0,1
EndSplineSet
Validated: 1
EndChar

StartChar: v
Encoding: 118 118 89
Width: 674
GlyphClass: 2
Flags: W
LayerCount: 2
Fore
SplineSet
77 550 m 0,0,1
 88 557 88 557 104 552 c 0,2,3
 119 548 119 548 125 534 c 2,4,-1
 335 117 l 1,5,-1
 549 535 l 2,6,7
 557 549 557 549 570 552 c 0,8,9
 584 558 584 558 598 550 c 0,10,11
 610 544 610 544 616 529 c 0,12,13
 620 513 620 513 613 501 c 2,14,-1
 366 21 l 2,15,16
 357 1 357 1 334 1 c 0,17,18
 312 2 312 2 302 21 c 2,19,-1
 61 502 l 2,20,21
 54 513 54 513 59 529 c 0,22,23
 64 542 64 542 77 550 c 0,0,1
EndSplineSet
Validated: 1
EndChar

StartChar: w
Encoding: 119 119 90
Width: 671
GlyphClass: 2
Flags: W
LayerCount: 2
Fore
SplineSet
454 88 m 1,0,-1
 543 179 l 1,1,-1
 543 518 l 2,2,3
 543 532 543 532 554 543 c 128,-1,4
 565 554 565 554 579 554 c 0,5,6
 590 554 590 554 604 543 c 0,7,8
 614 532 614 532 614 518 c 2,9,-1
 614 164 l 2,10,11
 614 149 614 149 604 139 c 2,12,-1
 478 11 l 2,13,14
 468 1 468 1 452 1 c 0,15,16
 438 1 438 1 427 13 c 2,17,-1
 338 111 l 1,18,-1
 249 13 l 2,19,20
 239 3 239 3 224 1 c 0,21,22
 212 0 212 0 197 11 c 2,23,-1
 68 139 l 2,24,25
 58 149 58 149 57 164 c 2,26,-1
 57 518 l 2,27,28
 57 532 57 532 68 543 c 0,29,30
 77 554 77 554 93 554 c 128,-1,31
 109 554 109 554 118 543 c 0,32,33
 129 532 129 532 129 518 c 2,34,-1
 129 179 l 1,35,-1
 221 88 l 1,36,-1
 302 177 l 1,37,-1
 302 362 l 2,38,39
 302 377 302 377 312 387 c 0,40,41
 323 398 323 398 337 398 c 0,42,43
 352 398 352 398 362 388 c 0,44,45
 373 377 373 377 373 362 c 2,46,-1
 373 178 l 1,47,-1
 454 88 l 1,0,-1
EndSplineSet
Validated: 1
EndChar

StartChar: x
Encoding: 120 120 91
Width: 652
GlyphClass: 2
Flags: W
LayerCount: 2
Fore
SplineSet
57 490 m 2,0,1
 47 500 47 500 47 515 c 128,-1,2
 47 530 47 530 57 540 c 128,-1,3
 67 550 67 550 83 550 c 0,4,5
 96 552 96 552 108 540 c 2,6,-1
 327 325 l 1,7,-1
 545 540 l 2,8,9
 555 550 555 550 570 550 c 0,10,11
 585 551 585 551 596 540 c 0,12,13
 606 530 606 530 606 514 c 0,14,15
 606 500 606 500 596 490 c 2,16,-1
 378 274 l 1,17,-1
 596 59 l 2,18,19
 606 49 606 49 606 34 c 128,-1,20
 606 19 606 19 596 9 c 0,21,22
 586 0 586 0 570 -2 c 0,23,24
 556 -2 556 -2 545 9 c 2,25,-1
 327 224 l 1,26,-1
 108 9 l 2,27,28
 98 0 98 0 82 -2 c 0,29,30
 68 -2 68 -2 57 9 c 0,31,32
 47 19 47 19 47 34 c 128,-1,33
 47 49 47 49 57 59 c 2,34,-1
 276 274 l 1,35,-1
 57 490 l 2,0,1
EndSplineSet
Validated: 1
EndChar

StartChar: y
Encoding: 121 121 92
Width: 673
GlyphClass: 2
Flags: W
LayerCount: 2
Fore
SplineSet
544 517 m 2,0,1
 544 533 544 533 555 542 c 0,2,3
 566 553 566 553 581 553 c 0,4,5
 597 553 597 553 606 542 c 0,6,7
 617 531 617 531 617 517 c 2,8,-1
 617 -79 l 2,9,10
 617 -93 617 -93 606 -104 c 2,11,-1
 469 -240 l 2,12,13
 459 -250 459 -250 443 -250 c 2,14,-1
 228 -250 l 2,15,16
 214 -250 214 -250 203 -240 c 0,17,18
 192 -226 192 -226 192 -214 c 0,19,20
 192 -200 192 -200 202 -189 c 0,21,22
 216 -178 216 -178 228 -178 c 2,23,-1
 429 -178 l 1,24,-1
 544 -64 l 1,25,-1
 544 0 l 1,26,-1
 218 0 l 2,27,28
 203 0 203 0 193 10 c 2,29,-1
 68 135 l 2,30,31
 58 145 58 145 57 161 c 2,32,-1
 57 517 l 2,33,34
 57 531 57 531 68 542 c 0,35,36
 77 553 77 553 93 553 c 0,37,38
 110 553 110 553 118 542 c 1,39,40
 129 534 129 534 129 517 c 2,41,-1
 129 176 l 1,42,-1
 233 72 l 1,43,-1
 544 72 l 1,44,-1
 544 517 l 2,0,1
EndSplineSet
Validated: 1
EndChar

StartChar: z
Encoding: 122 122 93
Width: 673
GlyphClass: 2
Flags: W
LayerCount: 2
Fore
SplineSet
76 496 m 1,0,1
 65 504 65 504 65 521 c 128,-1,2
 65 538 65 538 76 546 c 1,3,4
 84 557 84 557 101 557 c 2,5,-1
 581 557 l 2,6,7
 607 557 607 557 614 535 c 0,8,9
 623 513 623 513 606 496 c 2,10,-1
 180 74 l 1,11,-1
 576 74 l 2,12,13
 589 74 589 74 602 64 c 1,14,15
 612 51 612 51 612 38 c 128,-1,16
 612 25 612 25 602 12 c 1,17,18
 589 2 589 2 576 2 c 2,19,-1
 93 2 l 2,20,21
 69 2 69 2 60 25 c 0,22,23
 50 47 50 47 68 64 c 2,24,-1
 495 485 l 1,25,-1
 101 485 l 2,26,27
 84 485 84 485 76 496 c 1,0,1
EndSplineSet
Validated: 33
EndChar

StartChar: braceleft
Encoding: 123 123 94
Width: 348
GlyphClass: 2
Flags: W
LayerCount: 2
Fore
SplineSet
280 808 m 0,0,1
 270 820 270 820 254 820 c 256,2,3
 238 820 238 820 227 808 c 2,4,-1
 169 747 l 2,5,6
 158 736 158 736 157 719 c 2,7,-1
 157 493 l 1,8,-1
 71 421 l 2,9,10
 57 410 57 410 57 391 c 0,11,12
 57 373 57 373 71 361 c 2,13,-1
 157 289 l 1,14,-1
 157 67 l 2,15,16
 157 51 157 51 167 41 c 2,17,-1
 225 -28 l 2,18,19
 235 -40 235 -40 251 -40 c 0,20,21
 268 -42 268 -42 278 -30 c 0,22,23
 290 -20 290 -20 291 -4 c 128,-1,24
 292 12 292 12 282 24 c 2,25,-1
 232 82 l 1,26,-1
 232 307 l 2,27,28
 232 325 232 325 219 337 c 2,29,-1
 154 391 l 1,30,-1
 219 445 l 2,31,32
 233 459 233 459 232 475 c 2,33,-1
 232 705 l 1,34,-1
 280 754 l 2,35,36
 291 765 291 765 291 781 c 128,-1,37
 291 797 291 797 280 808 c 0,0,1
EndSplineSet
Validated: 9
EndChar

StartChar: bar
Encoding: 124 124 95
Width: 185
GlyphClass: 2
Flags: W
LayerCount: 2
Fore
SplineSet
93 886 m 0,0,1
 109 886 109 886 118 876 c 0,2,3
 129 865 129 865 129 851 c 2,4,-1
 129 -28 l 2,5,6
 129 -43 129 -43 118 -54 c 0,7,8
 108 -64 108 -64 93 -64 c 128,-1,9
 78 -64 78 -64 68 -54 c 0,10,11
 57 -43 57 -43 57 -28 c 2,12,-1
 57 851 l 2,13,14
 57 865 57 865 68 876 c 0,15,16
 78 886 78 886 93 886 c 0,0,1
EndSplineSet
Validated: 1
EndChar

StartChar: braceright
Encoding: 125 125 96
Width: 356
GlyphClass: 2
Flags: W
LayerCount: 2
Fore
SplineSet
68 808 m 0,0,1
 80 820 80 820 96 820 c 128,-1,2
 112 820 112 820 124 808 c 2,3,-1
 184 747 l 2,4,5
 195 736 195 736 196 719 c 2,6,-1
 196 493 l 1,7,-1
 285 421 l 2,8,9
 299 410 299 410 299 391 c 0,10,11
 299 373 299 373 285 361 c 2,12,-1
 196 289 l 1,13,-1
 196 67 l 2,14,15
 196 54 196 54 186 41 c 2,16,-1
 125 -28 l 2,17,18
 115 -40 115 -40 99 -40 c 0,19,20
 81 -42 81 -42 71 -30 c 0,21,22
 58 -20 58 -20 58 -4 c 0,23,24
 55 12 55 12 67 24 c 2,25,-1
 118 82 l 1,26,-1
 118 308 l 2,27,28
 118 326 118 326 133 337 c 2,29,-1
 199 391 l 1,30,-1
 133 445 l 2,31,32
 120 456 120 456 118 475 c 2,33,-1
 118 705 l 1,34,-1
 69 754 l 2,35,36
 58 765 58 765 58 781 c 0,37,38
 57 797 57 797 68 808 c 0,0,1
EndSplineSet
Validated: 1
EndChar

StartChar: asciitilde
Encoding: 126 126 97
Width: 654
GlyphClass: 2
Flags: W
LayerCount: 2
Fore
SplineSet
57 368 m 128,-1,1
 47 378 47 378 47 394 c 0,2,3
 47 409 47 409 57 419 c 2,4,-1
 183 544 l 2,5,6
 193 554 193 554 208 554 c 0,7,8
 223 555 223 555 234 544 c 2,9,-1
 447 332 l 1,10,-1
 546 430 l 2,11,12
 557 441 557 441 572 441 c 0,13,14
 586 441 586 441 597 430 c 128,-1,15
 608 419 608 419 608 405 c 128,-1,16
 608 391 608 391 597 380 c 2,17,-1
 472 255 l 2,18,19
 462 246 462 246 446 244 c 0,20,21
 432 244 432 244 421 255 c 2,22,-1
 208 468 l 1,23,-1
 108 368 l 2,24,25
 98 358 98 358 82 358 c 0,26,0
 67 358 67 358 57 368 c 128,-1,1
EndSplineSet
Validated: 1
EndChar

StartChar: exclamdown
Encoding: 161 161 98
Width: 262
GlyphClass: 2
Flags: W
LayerCount: 2
Fore
SplineSet
62 573 m 2,0,1
 62 585 62 585 70 590 c 1,2,3
 75 598 75 598 88 598 c 2,4,-1
 174 598 l 2,5,6
 184 598 184 598 192 590 c 0,7,8
 199 583 199 583 199 573 c 2,9,-1
 199 488 l 2,10,11
 199 480 199 480 192 470 c 1,12,13
 182 463 182 463 174 463 c 2,14,-1
 88 463 l 2,15,16
 77 463 77 463 70 470 c 0,17,18
 62 478 62 478 62 488 c 2,19,-1
 62 573 l 2,0,1
113 548 m 1,20,-1
 113 513 l 1,21,-1
 148 513 l 1,22,-1
 148 548 l 1,23,-1
 113 548 l 1,20,-1
167 -160 m 2,24,25
 167 -174 167 -174 156 -185 c 0,26,27
 147 -195 147 -195 131 -195 c 0,28,29
 114 -195 114 -195 106 -184 c 1,30,31
 95 -176 95 -176 95 -160 c 2,32,-1
 95 324 l 2,33,34
 95 338 95 338 106 349 c 0,35,36
 115 359 115 359 131 359 c 0,37,38
 148 359 148 359 156 348 c 1,39,40
 167 340 167 340 167 324 c 2,41,-1
 167 -160 l 2,24,25
EndSplineSet
Validated: 1
EndChar

StartChar: cent
Encoding: 162 162 99
Width: 674
GlyphClass: 2
Flags: W
LayerCount: 2
Fore
SplineSet
262 55 m 1,0,-1
 232 55 l 2,1,2
 217 55 217 55 206 66 c 2,3,-1
 82 188 l 2,4,5
 71 199 71 199 71 214 c 2,6,-1
 71 463 l 2,7,8
 71 479 71 479 82 490 c 2,9,-1
 195 605 l 2,10,11
 206 616 206 616 222 616 c 2,12,-1
 262 616 l 1,13,-1
 262 635 l 2,14,15
 262 650 262 650 272 660 c 0,16,17
 283 671 283 671 298 671 c 128,-1,18
 313 671 313 671 324 660 c 0,19,20
 335 651 335 651 335 635 c 2,21,-1
 335 616 l 1,22,-1
 367 616 l 1,23,-1
 367 635 l 2,24,25
 367 652 367 652 378 660 c 1,26,27
 386 671 386 671 403 671 c 128,-1,28
 420 671 420 671 428 660 c 1,29,30
 439 652 439 652 439 635 c 2,31,-1
 439 616 l 1,32,-1
 593 616 l 2,33,34
 606 616 606 616 620 605 c 0,35,36
 630 594 630 594 630 578 c 128,-1,37
 630 562 630 562 619 551 c 128,-1,38
 608 540 608 540 593 540 c 2,39,-1
 439 540 l 1,40,-1
 439 131 l 1,41,-1
 593 131 l 2,42,43
 606 131 606 131 620 120 c 1,44,45
 630 107 630 107 630 92 c 128,-1,46
 630 77 630 77 619 66 c 128,-1,47
 608 55 608 55 593 55 c 2,48,-1
 439 55 l 1,49,-1
 439 36 l 2,50,51
 439 21 439 21 428 10 c 0,52,53
 418 0 418 0 403 0 c 128,-1,54
 388 0 388 0 378 10 c 0,55,56
 367 21 367 21 367 36 c 2,57,-1
 367 55 l 1,58,-1
 335 55 l 1,59,-1
 335 36 l 2,60,61
 335 24 335 24 324 10 c 0,62,63
 313 0 313 0 298 0 c 0,64,65
 285 0 285 0 272 10 c 1,66,67
 262 23 262 23 262 36 c 2,68,-1
 262 55 l 1,0,-1
262 540 m 1,69,-1
 238 540 l 1,70,-1
 147 448 l 1,71,-1
 147 230 l 1,72,-1
 248 131 l 1,73,-1
 262 131 l 1,74,-1
 262 540 l 1,69,-1
367 540 m 1,75,-1
 335 540 l 1,76,-1
 335 131 l 1,77,-1
 367 131 l 1,78,-1
 367 540 l 1,75,-1
EndSplineSet
Validated: 1
EndChar

StartChar: sterling
Encoding: 163 163 100
Width: 644
GlyphClass: 2
Flags: W
LayerCount: 2
Fore
SplineSet
135 361 m 1,0,-1
 81 361 l 2,1,2
 67 361 67 361 56 372 c 0,3,4
 46 381 46 381 46 396 c 128,-1,5
 46 411 46 411 57 422 c 0,6,7
 67 432 67 432 81 432 c 2,8,-1
 135 432 l 1,9,-1
 135 633 l 2,10,11
 135 648 135 648 146 659 c 2,12,-1
 269 782 l 2,13,14
 279 792 279 792 294 793 c 2,15,-1
 451 793 l 2,16,17
 465 793 465 793 476 782 c 0,18,19
 482 776 482 776 495.5 762 c 128,-1,20
 509 748 509 748 521.5 736 c 128,-1,21
 534 724 534 724 546 712 c 0,22,23
 573 684 573 684 596 661 c 0,24,25
 606 651 606 651 606 636 c 128,-1,26
 606 621 606 621 595 610 c 0,27,28
 585 600 585 600 571 600 c 0,29,30
 554 602 554 602 545 611 c 0,31,32
 516 641 516 641 436 721 c 1,33,-1
 309 721 l 1,34,-1
 207 619 l 1,35,-1
 207 432 l 1,36,-1
 443 432 l 2,37,38
 456 432 456 432 469 422 c 1,39,40
 479 409 479 409 479 396 c 0,41,42
 479 382 479 382 469 371 c 0,43,44
 459 361 459 361 443 361 c 2,45,-1
 207 361 l 1,46,-1
 207 310 l 1,47,-1
 443 310 l 2,48,49
 456 310 456 310 469 300 c 1,50,51
 479 287 479 287 479 274 c 0,52,53
 479 260 479 260 469 250 c 0,54,55
 458 239 458 239 443 239 c 2,56,-1
 207 239 l 1,57,-1
 207 71 l 1,58,-1
 294 71 l 1,59,-1
 436 71 l 1,60,-1
 545 179 l 2,61,62
 555 189 555 189 571 189 c 128,-1,63
 587 189 587 189 595 178 c 1,64,65
 606 170 606 170 606 154 c 0,66,67
 606 140 606 140 595 129 c 2,68,-1
 476 10 l 2,69,70
 466 0 466 0 451 0 c 2,71,-1
 171 0 l 2,72,73
 158 0 158 0 145 10 c 1,74,75
 135 23 135 23 135 36 c 2,76,-1
 135 239 l 1,77,-1
 81 239 l 2,78,79
 67 239 67 239 56 250 c 0,80,81
 46 259 46 259 46 274 c 128,-1,82
 46 289 46 289 57 300 c 0,83,84
 67 310 67 310 81 310 c 2,85,-1
 135 310 l 1,86,-1
 135 361 l 1,0,-1
EndSplineSet
Validated: 1
EndChar

StartChar: yen
Encoding: 165 165 101
Width: 674
GlyphClass: 2
Flags: W
LayerCount: 2
Fore
SplineSet
249 431 m 1,0,-1
 69 611 l 2,1,2
 58 622 58 622 58 637 c 2,3,-1
 58 756 l 2,4,5
 58 772 58 772 69 781 c 0,6,7
 80 792 80 792 94 792 c 0,8,9
 109 792 109 792 120 781 c 128,-1,10
 131 770 131 770 131 756 c 2,11,-1
 131 652 l 1,12,-1
 336 449 l 1,13,-1
 541 656 l 1,14,-1
 541 756 l 2,15,16
 541 773 541 773 552 781 c 1,17,18
 560 792 560 792 577 792 c 0,19,20
 593 792 593 792 602 781 c 0,21,22
 613 770 613 770 613 756 c 2,23,-1
 613 641 l 2,24,25
 613 625 613 625 603 615 c 2,26,-1
 421 431 l 1,27,-1
 516 431 l 2,28,29
 532 431 532 431 542 421 c 0,30,31
 552 410 552 410 552 396 c 0,32,33
 552 381 552 381 542 371 c 0,34,35
 531 360 531 360 516 360 c 2,36,-1
 372 360 l 1,37,-1
 372 309 l 1,38,-1
 516 309 l 2,39,40
 529 309 529 309 542 299 c 1,41,42
 552 286 552 286 552 273 c 128,-1,43
 552 260 552 260 542 247 c 1,44,45
 529 237 529 237 516 237 c 2,46,-1
 372 237 l 1,47,-1
 372 36 l 2,48,49
 372 21 372 21 362 11 c 0,50,51
 351 0 351 0 336 0 c 128,-1,52
 321 0 321 0 310 11 c 0,53,54
 300 21 300 21 300 36 c 2,55,-1
 300 237 l 1,56,-1
 156 237 l 2,57,58
 143 237 143 237 130 247 c 1,59,60
 120 260 120 260 120 273 c 128,-1,61
 120 286 120 286 130 299 c 1,62,63
 143 309 143 309 156 309 c 2,64,-1
 300 309 l 1,65,-1
 300 360 l 1,66,-1
 156 360 l 2,67,68
 141 360 141 360 130 371 c 0,69,70
 120 381 120 381 120 396 c 0,71,72
 120 410 120 410 130 421 c 0,73,74
 140 431 140 431 156 431 c 2,75,-1
 249 431 l 1,0,-1
EndSplineSet
Validated: 1
EndChar

StartChar: section
Encoding: 167 167 102
Width: 674
GlyphClass: 2
Flags: W
LayerCount: 2
Fore
SplineSet
511 271 m 1,0,-1
 613 175 l 2,1,2
 624 164 624 164 624 148 c 128,-1,3
 624 132 624 132 612 122 c 2,4,-1
 485 9 l 2,5,6
 474 0 474 0 461 0 c 2,7,-1
 97 0 l 2,8,9
 82 0 82 0 71 11 c 0,10,11
 61 21 61 21 61 36 c 128,-1,12
 61 51 61 51 71 61 c 0,13,14
 82 72 82 72 97 72 c 2,15,-1
 448 72 l 1,16,-1
 535 150 l 1,17,-1
 443 237 l 1,18,-1
 231 237 l 2,19,20
 217 237 217 237 208 246 c 2,21,-1
 73 366 l 2,22,23
 61 376 61 376 61 392 c 0,24,25
 60 407 60 407 71 418 c 2,26,-1
 166 515 l 1,27,-1
 72 609 l 2,28,29
 62 619 62 619 62 634 c 128,-1,30
 62 649 62 649 72 659 c 2,31,-1
 189 780 l 2,32,33
 200 791 200 791 214 791 c 2,34,-1
 588 791 l 2,35,36
 604 791 604 791 613 780 c 0,37,38
 624 769 624 769 624 755 c 0,39,40
 624 740 624 740 613 729 c 0,41,42
 603 719 603 719 588 719 c 2,43,-1
 230 719 l 1,44,-1
 148 634 l 1,45,-1
 230 552 l 1,46,-1
 457 552 l 2,47,48
 471 552 471 552 481 542 c 2,49,-1
 612 421 l 2,50,51
 623 410 623 410 624 395 c 0,52,53
 624 380 624 380 613 369 c 2,54,-1
 511 271 l 1,0,-1
232 480 m 1,55,-1
 149 395 l 1,56,-1
 245 309 l 1,57,-1
 447 309 l 1,58,-1
 536 394 l 1,59,-1
 443 480 l 1,60,-1
 232 480 l 1,55,-1
EndSplineSet
Validated: 1
EndChar

StartChar: copyright
Encoding: 169 169 103
Width: 674
GlyphClass: 2
Flags: W
LayerCount: 2
Fore
SplineSet
58 362 m 2,0,-1
 58 598 l 2,1,2
 58 607 58 607 65 613 c 2,3,-1
 203 751 l 2,4,5
 209 757 209 757 218 758 c 2,6,-1
 459 758 l 2,7,8
 468 758 468 758 475 751 c 2,9,-1
 612 613 l 2,10,11
 619 606 619 606 619 598 c 2,12,-1
 619 362 l 2,13,14
 619 353 619 353 612 346 c 2,15,-1
 475 208 l 2,16,17
 471 203 471 203 459 201 c 2,18,-1
 218 201 l 2,19,20
 209 201 209 201 203 208 c 2,21,-1
 65 346 l 2,22,23
 58 353 58 353 58 362 c 2,0,-1
450 714 m 1,24,-1
 227 714 l 1,25,-1
 102 589 l 1,26,-1
 102 373 l 1,27,-1
 102 371 l 1,28,-1
 227 245 l 1,29,-1
 450 245 l 1,30,-1
 575 371 l 1,31,-1
 575 586 l 1,32,-1
 575 589 l 1,33,-1
 450 714 l 1,24,-1
456 649 m 2,34,35
 466 649 466 649 472 642 c 0,36,37
 479 635 479 635 479 626 c 128,-1,38
 479 617 479 617 472 610 c 128,-1,39
 465 603 465 603 456 603 c 2,40,-1
 242 603 l 1,41,-1
 187 547 l 1,42,-1
 187 416 l 1,43,-1
 248 356 l 1,44,-1
 456 356 l 2,45,46
 466 356 466 356 472 350 c 0,47,48
 479 343 479 343 479 334 c 0,49,50
 479 324 479 324 472 317 c 128,-1,51
 465 310 465 310 456 310 c 2,52,-1
 238 310 l 2,53,54
 228 310 228 310 222 317 c 2,55,-1
 148 390 l 2,56,57
 141 397 141 397 141 407 c 2,58,-1
 141 557 l 2,59,60
 141 567 141 567 148 573 c 2,61,-1
 216 642 l 2,62,63
 222 649 222 649 232 649 c 2,64,-1
 456 649 l 2,34,35
EndSplineSet
Validated: 1
EndChar

StartChar: guillemotleft
Encoding: 171 171 104
Width: 674
GlyphClass: 2
Flags: W
LayerCount: 2
Fore
SplineSet
545 632 m 2,0,1
 555 642 555 642 570 643 c 0,2,3
 584 643 584 643 595 632 c 0,4,5
 605 622 605 622 606 607 c 0,6,7
 606 593 606 593 595 582 c 2,8,-1
 332 322 l 1,9,-1
 595 62 l 2,10,11
 605 52 605 52 606 37 c 0,12,13
 606 23 606 23 595 12 c 0,14,15
 585 2 585 2 570 1 c 0,16,17
 556 1 556 1 545 12 c 2,18,-1
 256 297 l 2,19,20
 244 308 244 308 246 322 c 0,21,22
 246 337 246 337 256 347 c 2,23,-1
 545 632 l 2,0,1
347 632 m 2,24,25
 357 642 357 642 372 643 c 0,26,27
 387 643 387 643 398 632 c 0,28,29
 408 622 408 622 408 607 c 0,30,31
 408 593 408 593 397 582 c 2,32,-1
 134 322 l 1,33,-1
 397 62 l 2,34,35
 407 52 407 52 408 37 c 0,36,37
 408 22 408 22 398 12 c 128,-1,38
 388 2 388 2 373 1 c 0,39,40
 358 1 358 1 347 12 c 2,41,-1
 58 297 l 2,42,43
 46 308 46 308 48 322 c 0,44,45
 48 337 48 337 58 347 c 2,46,-1
 347 632 l 2,24,25
EndSplineSet
Validated: 1
EndChar

StartChar: registered
Encoding: 174 174 105
Width: 674
GlyphClass: 2
Flags: W
LayerCount: 2
Fore
SplineSet
57 491 m 2,0,-1
 57 727 l 2,1,2
 57 736 57 736 64 743 c 2,3,-1
 202 881 l 2,4,5
 208 887 208 887 217 887 c 2,6,-1
 458 887 l 2,7,8
 467 887 467 887 474 881 c 2,9,-1
 611 743 l 2,10,11
 618 736 618 736 618 727 c 2,12,-1
 618 491 l 2,13,14
 618 482 618 482 611 476 c 2,15,-1
 474 338 l 2,16,17
 470 333 470 333 458 331 c 2,18,-1
 217 331 l 2,19,20
 208 331 208 331 202 338 c 2,21,-1
 64 476 l 2,22,23
 57 482 57 482 57 491 c 2,0,-1
449 844 m 1,24,-1
 226 844 l 1,25,-1
 101 718 l 1,26,-1
 101 503 l 1,27,-1
 101 500 l 1,28,-1
 226 375 l 1,29,-1
 449 375 l 1,30,-1
 574 500 l 1,31,-1
 574 715 l 1,32,-1
 574 718 l 1,33,-1
 449 844 l 1,24,-1
239 534 m 1,34,-1
 239 438 l 2,35,36
 239 431 239 431 234 426 c 128,-1,37
 229 421 229 421 222 421 c 128,-1,38
 215 421 215 421 210 426 c 128,-1,39
 205 431 205 431 205 438 c 2,40,-1
 205 782 l 2,41,42
 205 786 205 786 210 794 c 0,43,44
 215 798 215 798 222 798 c 2,45,-1
 225 798 l 1,46,-1
 396 798 l 2,47,48
 403 798 403 798 408 793 c 2,49,-1
 466 736 l 2,50,51
 471 731 471 731 471 724 c 2,52,-1
 471 609 l 2,53,54
 471 602 471 602 466 597 c 2,55,-1
 408 539 l 2,56,57
 403 534 403 534 396 534 c 2,58,-1
 379 534 l 1,59,-1
 466 450 l 2,60,61
 471 445 471 445 471 438 c 128,-1,62
 471 431 471 431 466 426 c 128,-1,63
 461 421 461 421 454 421 c 128,-1,64
 447 421 447 421 442 426 c 2,65,-1
 331 534 l 1,66,-1
 239 534 l 1,34,-1
239 764 m 1,67,-1
 239 568 l 1,68,-1
 389 568 l 1,69,-1
 437 616 l 1,70,-1
 437 717 l 1,71,-1
 389 764 l 1,72,-1
 239 764 l 1,67,-1
EndSplineSet
Validated: 1
EndChar

StartChar: macron
Encoding: 175 175 106
Width: 285
GlyphClass: 2
Flags: W
LayerCount: 2
Fore
SplineSet
66 842 m 2,0,1
 53 842 53 842 44 851 c 128,-1,2
 35 860 35 860 35 872 c 0,3,4
 35 885 35 885 44 894 c 0,5,6
 53 904 53 904 66 904 c 2,7,-1
 216 904 l 2,8,9
 229 904 229 904 238 894 c 0,10,11
 247 885 247 885 247 872 c 0,12,13
 247 860 247 860 238 851 c 128,-1,14
 229 842 229 842 216 842 c 2,15,-1
 66 842 l 2,0,1
EndSplineSet
Validated: 1
EndChar

StartChar: plusminus
Encoding: 177 177 107
Width: 674
GlyphClass: 2
Flags: W
LayerCount: 2
Fore
SplineSet
305 415 m 1,0,-1
 122 415 l 2,1,2
 110 415 110 415 99 424 c 0,3,4
 89 434 89 434 89 448 c 0,5,6
 89 461 89 461 99 470 c 0,7,8
 109 480 109 480 122 480 c 2,9,-1
 304 480 l 1,10,-1
 303 616 l 2,11,12
 303 628 303 628 312 639 c 0,13,14
 322 649 322 649 336 649 c 0,15,16
 349 649 349 649 358 640 c 0,17,18
 368 630 368 630 368 617 c 2,19,-1
 369 480 l 1,20,-1
 552 480 l 2,21,22
 565 480 565 480 575 470 c 0,23,24
 585 461 585 461 585 448 c 0,25,26
 585 434 585 434 576 424 c 0,27,28
 566 415 566 415 552 415 c 2,29,-1
 370 415 l 1,30,-1
 371 279 l 2,31,32
 371 266 371 266 362 256 c 0,33,34
 352 246 352 246 338 246 c 0,35,36
 325 246 325 246 316 256 c 0,37,38
 306 265 306 265 306 278 c 2,39,-1
 305 415 l 1,0,-1
119 122 m 2,40,41
 106 122 106 122 96 132 c 128,-1,42
 86 142 86 142 86 155 c 128,-1,43
 86 168 86 168 96 178 c 128,-1,44
 106 188 106 188 119 188 c 2,45,-1
 555 188 l 2,46,47
 568 188 568 188 578 178 c 128,-1,48
 588 168 588 168 588 155 c 128,-1,49
 588 142 588 142 578 132 c 0,50,51
 569 122 569 122 555 122 c 2,52,-1
 119 122 l 2,40,41
EndSplineSet
Validated: 1
EndChar

StartChar: acute
Encoding: 180 180 108
Width: 359
GlyphClass: 2
Flags: W
LayerCount: 2
Fore
SplineSet
111 756 m 2,0,1
 98 749 98 749 84 752 c 0,2,3
 70 757 70 757 62 769 c 0,4,5
 55 783 55 783 58 796 c 0,6,7
 62 810 62 810 75 818 c 2,8,-1
 247 917 l 2,9,10
 260 924 260 924 274 920 c 0,11,12
 289 917 289 917 296 904 c 128,-1,13
 303 891 303 891 300 877 c 0,14,15
 296 863 296 863 283 855 c 2,16,-1
 111 756 l 2,0,1
EndSplineSet
Validated: 1
EndChar

StartChar: paragraph
Encoding: 182 182 109
Width: 561
GlyphClass: 2
Flags: W
LayerCount: 2
Fore
SplineSet
302 238 m 1,0,-1
 209 238 l 2,1,2
 194 238 194 238 184 248 c 2,3,-1
 62 370 l 2,4,5
 51 381 51 381 51 395 c 2,6,-1
 51 642 l 2,7,8
 51 658 51 658 61 668 c 2,9,-1
 173 782 l 2,10,11
 184 793 184 793 199 793 c 2,12,-1
 447 793 l 2,13,14
 464 793 464 793 472 782 c 1,15,16
 483 774 483 774 483 757 c 2,17,-1
 483 756 l 1,18,-1
 483 37 l 2,19,20
 483 22 483 22 472 11 c 128,-1,21
 461 0 461 0 446 0 c 0,22,23
 433 0 433 0 420 10 c 1,24,25
 410 23 410 23 410 37 c 2,26,-1
 410 721 l 1,27,-1
 375 721 l 1,28,-1
 375 37 l 2,29,30
 375 22 375 22 364 11 c 0,31,32
 355 0 355 0 339 0 c 0,33,34
 324 0 324 0 313 10 c 0,35,36
 302 24 302 24 302 37 c 2,37,-1
 302 238 l 1,0,-1
302 721 m 1,38,-1
 214 721 l 1,39,-1
 123 628 l 1,40,-1
 123 410 l 1,41,-1
 224 310 l 1,42,-1
 302 310 l 1,43,-1
 302 721 l 1,38,-1
EndSplineSet
Validated: 1
EndChar

StartChar: cedilla
Encoding: 184 184 110
Width: 275
GlyphClass: 2
Flags: W
LayerCount: 2
Fore
SplineSet
85 -105 m 2,0,1
 69 -105 69 -105 58 -116 c 128,-1,2
 47 -127 47 -127 47 -143 c 128,-1,3
 47 -159 47 -159 58 -170 c 128,-1,4
 69 -181 69 -181 85 -181 c 2,5,-1
 165 -181 l 2,6,7
 181 -181 181 -181 192 -170 c 2,8,-1
 230 -133 l 2,9,10
 241 -122 241 -122 241 -106 c 2,11,-1
 241 -50 l 2,12,13
 241 -34 241 -34 230 -23 c 2,14,-1
 184 23 l 2,15,16
 173 34 173 34 157 34 c 2,17,-1
 123 34 l 1,18,-1
 123 50 l 2,19,20
 123 64 123 64 112 78 c 0,21,22
 101 89 101 89 85 89 c 128,-1,23
 69 89 69 89 58 78 c 0,24,25
 47 64 47 64 47 50 c 2,26,-1
 47 -4 l 2,27,28
 47 -20 47 -20 58 -31 c 128,-1,29
 69 -42 69 -42 85 -42 c 2,30,-1
 141 -42 l 1,31,-1
 164 -66 l 1,32,-1
 164 -90 l 1,33,-1
 150 -105 l 1,34,-1
 85 -105 l 2,0,1
EndSplineSet
Validated: 9
EndChar

StartChar: guillemotright
Encoding: 187 187 111
Width: 674
GlyphClass: 2
Flags: W
LayerCount: 2
Fore
SplineSet
128 10 m 2,0,1
 118 0 118 0 103 0 c 128,-1,2
 88 0 88 0 78 10 c 128,-1,3
 68 20 68 20 68 35 c 0,4,5
 68 51 68 51 78 61 c 2,6,-1
 342 320 l 1,7,-1
 78 580 l 2,8,9
 68 590 68 590 68 605 c 128,-1,10
 68 620 68 620 78 630 c 128,-1,11
 88 640 88 640 103 641 c 0,12,13
 118 641 118 641 128 631 c 2,14,-1
 417 346 l 2,15,16
 428 335 428 335 428 321 c 0,17,18
 428 306 428 306 417 295 c 2,19,-1
 128 10 l 2,0,1
326 10 m 2,20,21
 316 0 316 0 301 0 c 128,-1,22
 286 0 286 0 276 10 c 128,-1,23
 266 20 266 20 266 35 c 0,24,25
 266 51 266 51 276 61 c 2,26,-1
 540 320 l 1,27,-1
 276 580 l 2,28,29
 266 590 266 590 266 605 c 128,-1,30
 266 620 266 620 276 630 c 128,-1,31
 286 640 286 640 300 641 c 0,32,33
 316 641 316 641 326 631 c 2,34,-1
 615 346 l 2,35,36
 626 335 626 335 626 321 c 0,37,38
 626 306 626 306 615 295 c 2,39,-1
 326 10 l 2,20,21
EndSplineSet
Validated: 1
EndChar

StartChar: questiondown
Encoding: 191 191 112
Width: 674
GlyphClass: 2
Flags: W
LayerCount: 2
Fore
SplineSet
557 -10 m 2,0,1
 567 0 567 0 582 0 c 128,-1,2
 597 0 597 0 607 -10 c 0,3,4
 618 -21 618 -21 618 -36 c 0,5,6
 618 -50 618 -50 607 -61 c 2,7,-1
 475 -194 l 2,8,9
 465 -204 465 -204 449 -204 c 2,10,-1
 233 -204 l 2,11,12
 218 -204 218 -204 208 -194 c 2,13,-1
 78 -64 l 2,14,15
 68 -54 68 -54 68 -39 c 2,16,-1
 68 77 l 2,17,18
 68 92 68 92 78 102 c 2,19,-1
 310 336 l 1,20,-1
 310 388 l 2,21,22
 310 403 310 403 321 414 c 0,23,24
 331 424 331 424 345 424 c 0,25,26
 358 424 358 424 371 414 c 1,27,28
 381 401 381 401 381 388 c 2,29,-1
 381 321 l 2,30,31
 381 306 381 306 371 296 c 2,32,-1
 139 62 l 1,33,-1
 139 -25 l 1,34,-1
 248 -133 l 1,35,-1
 435 -133 l 1,36,-1
 557 -10 l 2,0,1
274 563 m 2,37,38
 274 573 274 573 281 581 c 0,39,40
 292 589 292 589 300 589 c 2,41,-1
 386 589 l 2,42,43
 396 589 396 589 403 582 c 0,44,45
 411 574 411 574 411 563 c 2,46,-1
 411 478 l 2,47,48
 411 468 411 468 403 460 c 0,49,50
 396 453 396 453 386 453 c 2,51,-1
 300 453 l 2,52,53
 290 453 290 453 282 460 c 0,54,55
 274 471 274 471 274 478 c 2,56,-1
 274 563 l 2,37,38
325 538 m 1,57,-1
 325 504 l 1,58,-1
 360 504 l 1,59,-1
 360 538 l 1,60,-1
 325 538 l 1,57,-1
EndSplineSet
Validated: 1
EndChar

StartChar: Agrave
Encoding: 192 192 113
Width: 674
GlyphClass: 2
Flags: W
LayerCount: 2
Fore
SplineSet
357 812 m 2,0,-1
 266 871 l 2,1,2
 254 880 254 880 250 893 c 0,3,4
 247 907 247 907 255 921 c 0,5,6
 263 933 263 933 278 936 c 0,7,8
 291 939 291 939 305 931 c 2,9,-1
 396 872 l 2,10,11
 408 863 408 863 412 849 c 0,12,13
 415 837 415 837 407 823 c 0,14,15
 400 810 400 810 384 807 c 0,16,17
 371 804 371 804 357 812 c 2,0,-1
129 35 m 2,18,19
 129 21 129 21 118 10 c 0,20,21
 109 0 109 0 94 0 c 0,22,23
 78 0 78 0 68 10 c 0,24,25
 57 21 57 21 57 35 c 2,26,-1
 57 512 l 2,27,28
 57 526 57 526 68 537 c 2,29,-1
 312 782 l 2,30,31
 323 793 323 793 338 792 c 0,32,33
 353 792 353 792 363 782 c 2,34,-1
 608 533 l 2,35,36
 618 523 618 523 618 508 c 2,37,-1
 618 35 l 2,38,39
 618 21 618 21 608 10 c 0,40,41
 598 0 598 0 582 0 c 128,-1,42
 566 0 566 0 556 10 c 0,43,44
 546 21 546 21 546 35 c 2,45,-1
 546 360 l 1,46,-1
 129 360 l 1,47,-1
 129 35 l 2,18,19
550 494 m 1,48,-1
 341 706 l 1,49,-1
 133 497 l 1,50,-1
 133 432 l 1,51,-1
 550 432 l 1,52,-1
 550 494 l 1,48,-1
EndSplineSet
Validated: 1
EndChar

StartChar: Aacute
Encoding: 193 193 114
Width: 674
GlyphClass: 2
Flags: W
LayerCount: 2
Fore
SplineSet
361 812 m 2,0,1
 347 804 347 804 334 807 c 0,2,3
 318 810 318 810 311 823 c 0,4,5
 303 837 303 837 306 849 c 0,6,7
 310 863 310 863 322 872 c 2,8,-1
 413 931 l 2,9,10
 427 939 427 939 440 936 c 0,11,12
 455 933 455 933 463 921 c 0,13,14
 471 907 471 907 468 893 c 0,15,16
 465 878 465 878 452 871 c 2,17,-1
 361 812 l 2,0,1
129 35 m 2,18,19
 129 21 129 21 118 10 c 0,20,21
 109 0 109 0 94 0 c 0,22,23
 78 0 78 0 68 10 c 0,24,25
 57 21 57 21 57 35 c 2,26,-1
 57 512 l 2,27,28
 57 526 57 526 68 537 c 2,29,-1
 312 782 l 2,30,31
 323 793 323 793 338 792 c 0,32,33
 353 792 353 792 363 782 c 2,34,-1
 608 533 l 2,35,36
 618 523 618 523 618 508 c 2,37,-1
 618 35 l 2,38,39
 618 21 618 21 608 10 c 0,40,41
 598 0 598 0 582 0 c 128,-1,42
 566 0 566 0 556 10 c 0,43,44
 546 21 546 21 546 35 c 2,45,-1
 546 360 l 1,46,-1
 129 360 l 1,47,-1
 129 35 l 2,18,19
550 494 m 1,48,-1
 341 706 l 1,49,-1
 133 497 l 1,50,-1
 133 432 l 1,51,-1
 550 432 l 1,52,-1
 550 494 l 1,48,-1
EndSplineSet
Validated: 1
EndChar

StartChar: Acircumflex
Encoding: 194 194 115
Width: 674
GlyphClass: 2
Flags: W
LayerCount: 2
Fore
SplineSet
381 814 m 2,0,-1
 317 859 l 2,1,2
 304 867 304 867 300 881 c 0,3,4
 297 894 297 894 304 908 c 0,5,6
 312 920 312 920 326 925 c 0,7,8
 337 929 337 929 353 921 c 2,9,-1
 417 877 l 2,10,11
 430 869 430 869 434 855 c 0,12,13
 439 840 439 840 430 827 c 0,14,15
 423 815 423 815 408 811 c 0,16,17
 394 806 394 806 381 814 c 2,0,-1
286 814 m 2,18,19
 273 807 273 807 258 811 c 0,20,21
 245 815 245 815 236 827 c 0,22,23
 229 842 229 842 233 855 c 0,24,25
 237 869 237 869 250 877 c 2,26,-1
 314 921 l 2,27,28
 327 928 327 928 341 925 c 0,29,30
 357 921 357 921 362 908 c 0,31,32
 371 895 371 895 366 881 c 0,33,34
 362 867 362 867 349 859 c 2,35,-1
 286 814 l 2,18,19
129 35 m 2,36,37
 129 21 129 21 118 10 c 0,38,39
 109 0 109 0 94 0 c 0,40,41
 78 0 78 0 68 10 c 0,42,43
 57 21 57 21 57 35 c 2,44,-1
 57 512 l 2,45,46
 57 526 57 526 68 537 c 2,47,-1
 312 782 l 2,48,49
 323 793 323 793 338 792 c 0,50,51
 353 792 353 792 363 782 c 2,52,-1
 608 533 l 2,53,54
 618 523 618 523 618 508 c 2,55,-1
 618 35 l 2,56,57
 618 21 618 21 608 10 c 0,58,59
 598 0 598 0 582 0 c 128,-1,60
 566 0 566 0 556 10 c 0,61,62
 546 21 546 21 546 35 c 2,63,-1
 546 360 l 1,64,-1
 129 360 l 1,65,-1
 129 35 l 2,36,37
550 494 m 1,66,-1
 341 706 l 1,67,-1
 133 497 l 1,68,-1
 133 432 l 1,69,-1
 550 432 l 1,70,-1
 550 494 l 1,66,-1
EndSplineSet
Validated: 5
EndChar

StartChar: Atilde
Encoding: 195 195 116
Width: 674
GlyphClass: 2
Flags: W
LayerCount: 2
Fore
SplineSet
240 810 m 2,0,1
 227 804 227 804 212 809 c 0,2,3
 198 812 198 812 192 827 c 0,4,5
 185 836 185 836 190 854 c 0,6,7
 195 868 195 868 209 875 c 2,8,-1
 290 914 l 2,9,10
 306 921 306 921 321 914 c 2,11,-1
 387 882 l 1,12,-1
 453 914 l 2,13,14
 468 921 468 921 480 915 c 0,15,16
 495 912 495 912 502 897 c 0,17,18
 508 886 508 886 503 870 c 0,19,20
 498 856 498 856 485 850 c 2,21,-1
 403 810 l 2,22,23
 387 803 387 803 372 810 c 2,24,-1
 306 842 l 1,25,-1
 240 810 l 2,0,1
129 35 m 2,26,27
 129 21 129 21 118 10 c 0,28,29
 109 0 109 0 94 0 c 0,30,31
 78 0 78 0 68 10 c 0,32,33
 57 21 57 21 57 35 c 2,34,-1
 57 512 l 2,35,36
 57 526 57 526 68 537 c 2,37,-1
 312 782 l 2,38,39
 323 793 323 793 338 792 c 0,40,41
 353 792 353 792 363 782 c 2,42,-1
 608 533 l 2,43,44
 618 523 618 523 618 508 c 2,45,-1
 618 35 l 2,46,47
 618 21 618 21 608 10 c 0,48,49
 598 0 598 0 582 0 c 128,-1,50
 566 0 566 0 556 10 c 0,51,52
 546 21 546 21 546 35 c 2,53,-1
 546 360 l 1,54,-1
 129 360 l 1,55,-1
 129 35 l 2,26,27
550 494 m 1,56,-1
 341 706 l 1,57,-1
 133 497 l 1,58,-1
 133 432 l 1,59,-1
 550 432 l 1,60,-1
 550 494 l 1,56,-1
EndSplineSet
Validated: 1
EndChar

StartChar: Adieresis
Encoding: 196 196 117
Width: 674
GlyphClass: 2
Flags: W
LayerCount: 2
Fore
SplineSet
255 858 m 2,0,1
 255 853 255 853 250 845 c 1,2,3
 242 840 242 840 237 840 c 2,4,-1
 177 840 l 2,5,6
 172 840 172 840 164 845 c 1,7,8
 159 853 159 853 159 858 c 2,9,-1
 159 918 l 2,10,11
 159 925 159 925 164 930 c 0,12,13
 172 935 172 935 177 935 c 2,14,-1
 237 935 l 2,15,16
 242 935 242 935 250 930 c 0,17,18
 255 925 255 925 255 918 c 2,19,-1
 255 858 l 2,0,1
219 876 m 1,20,-1
 219 900 l 1,21,-1
 195 900 l 1,22,-1
 195 876 l 1,23,-1
 219 876 l 1,20,-1
516 858 m 2,24,25
 516 851 516 851 510 845 c 0,26,27
 505 840 505 840 498 840 c 2,28,-1
 438 840 l 2,29,30
 431 840 431 840 426 845 c 0,31,32
 420 851 420 851 420 858 c 2,33,-1
 420 917 l 2,34,35
 420 924 420 924 426 929 c 0,36,37
 430 935 430 935 438 935 c 2,38,-1
 498 935 l 2,39,40
 505 935 505 935 510 930 c 0,41,42
 516 926 516 926 516 917 c 2,43,-1
 516 858 l 2,24,25
481 876 m 1,44,-1
 481 900 l 1,45,-1
 456 900 l 1,46,-1
 456 876 l 1,47,-1
 481 876 l 1,44,-1
129 35 m 2,48,49
 129 21 129 21 118 10 c 0,50,51
 109 0 109 0 94 0 c 0,52,53
 78 0 78 0 68 10 c 0,54,55
 57 21 57 21 57 35 c 2,56,-1
 57 512 l 2,57,58
 57 526 57 526 68 537 c 2,59,-1
 312 782 l 2,60,61
 323 793 323 793 338 792 c 0,62,63
 353 792 353 792 363 782 c 2,64,-1
 608 533 l 2,65,66
 618 523 618 523 618 508 c 2,67,-1
 618 35 l 2,68,69
 618 21 618 21 608 10 c 0,70,71
 598 0 598 0 582 0 c 128,-1,72
 566 0 566 0 556 10 c 0,73,74
 546 21 546 21 546 35 c 2,75,-1
 546 360 l 1,76,-1
 129 360 l 1,77,-1
 129 35 l 2,48,49
550 494 m 1,78,-1
 341 706 l 1,79,-1
 133 497 l 1,80,-1
 133 432 l 1,81,-1
 550 432 l 1,82,-1
 550 494 l 1,78,-1
EndSplineSet
Validated: 1
EndChar

StartChar: Aring
Encoding: 197 197 118
Width: 674
GlyphClass: 2
Flags: W
LayerCount: 2
Fore
SplineSet
359 944 m 2,0,-1
 412 891 l 2,1,2
 420 883 420 883 420 871 c 0,3,4
 420 861 420 861 412 850 c 2,5,-1
 358 796 l 2,6,7
 350 788 350 788 338 788 c 0,8,9
 325 788 325 788 317 796 c 2,10,-1
 264 850 l 2,11,12
 255 859 255 859 255 871 c 0,13,14
 255 882 255 882 264 891 c 2,15,-1
 318 944 l 2,16,17
 326 952 326 952 338 952 c 0,18,19
 351 952 351 952 359 944 c 2,0,-1
338 883 m 1,20,-1
 325 870 l 1,21,-1
 337 858 l 1,22,-1
 350 871 l 1,23,-1
 338 883 l 1,20,-1
129 35 m 2,24,25
 129 21 129 21 118 10 c 0,26,27
 109 0 109 0 94 0 c 0,28,29
 78 0 78 0 68 10 c 0,30,31
 57 21 57 21 57 35 c 2,32,-1
 57 512 l 2,33,34
 57 526 57 526 68 537 c 2,35,-1
 312 782 l 2,36,37
 323 793 323 793 338 792 c 0,38,39
 353 792 353 792 363 782 c 2,40,-1
 608 533 l 2,41,42
 618 523 618 523 618 508 c 2,43,-1
 618 35 l 2,44,45
 618 21 618 21 608 10 c 0,46,47
 598 0 598 0 582 0 c 128,-1,48
 566 0 566 0 556 10 c 0,49,50
 546 21 546 21 546 35 c 2,51,-1
 546 360 l 1,52,-1
 129 360 l 1,53,-1
 129 35 l 2,24,25
550 494 m 1,54,-1
 341 706 l 1,55,-1
 133 497 l 1,56,-1
 133 432 l 1,57,-1
 550 432 l 1,58,-1
 550 494 l 1,54,-1
EndSplineSet
Validated: 5
EndChar

StartChar: AE
Encoding: 198 198 119
Width: 975
GlyphClass: 2
Flags: W
LayerCount: 2
Fore
SplineSet
113 360 m 1,0,-1
 113 36 l 2,1,2
 113 19 113 19 102 11 c 1,3,4
 94 0 94 0 77 0 c 128,-1,5
 60 0 60 0 52 11 c 1,6,7
 41 19 41 19 41 36 c 2,8,-1
 41 513 l 2,9,10
 41 527 41 527 51 537 c 2,11,-1
 276 782 l 2,12,13
 287 795 287 795 302 793 c 0,14,15
 317 793 317 793 328 782 c 2,16,-1
 491 601 l 1,17,-1
 491 757 l 2,18,19
 491 772 491 772 502 783 c 0,20,21
 512 793 512 793 527 793 c 2,22,-1
 906 793 l 2,23,24
 919 793 919 793 932 783 c 1,25,26
 942 770 942 770 942 757 c 0,27,28
 942 743 942 743 932 733 c 0,29,30
 921 722 921 722 906 722 c 2,31,-1
 563 722 l 1,32,-1
 563 431 l 1,33,-1
 747 431 l 2,34,35
 761 431 761 431 772 421 c 0,36,37
 782 411 782 411 782 395 c 0,38,39
 782 381 782 381 772 371 c 0,40,41
 761 360 761 360 747 360 c 2,42,-1
 563 360 l 1,43,-1
 563 71 l 1,44,-1
 906 71 l 2,45,46
 922 71 922 71 932 61 c 0,47,48
 942 50 942 50 942 36 c 0,49,50
 942 21 942 21 932 11 c 0,51,52
 921 0 921 0 906 0 c 2,53,-1
 527 0 l 2,54,55
 510 0 510 0 502 11 c 1,56,57
 491 19 491 19 491 36 c 2,58,-1
 491 360 l 1,59,-1
 113 360 l 1,0,-1
491 495 m 1,60,-1
 302 705 l 1,61,-1
 113 499 l 1,62,-1
 113 431 l 1,63,-1
 491 431 l 1,64,-1
 491 495 l 1,60,-1
EndSplineSet
Validated: 1
EndChar

StartChar: Ccedilla
Encoding: 199 199 120
Width: 672
GlyphClass: 2
Flags: W
LayerCount: 2
Fore
SplineSet
338 -185 m 2,0,1
 322 -185 322 -185 311 -196 c 128,-1,2
 300 -207 300 -207 300 -223 c 128,-1,3
 300 -239 300 -239 311 -250 c 128,-1,4
 322 -261 322 -261 338 -261 c 2,5,-1
 418 -261 l 2,6,7
 434 -261 434 -261 445 -250 c 2,8,-1
 483 -213 l 2,9,10
 494 -202 494 -202 494 -186 c 2,11,-1
 494 -130 l 2,12,13
 494 -114 494 -114 483 -103 c 2,14,-1
 437 -57 l 2,15,16
 426 -46 426 -46 410 -46 c 2,17,-1
 376 -46 l 1,18,-1
 376 -30 l 2,19,20
 376 -14 376 -14 365 -3 c 0,21,22
 354 9 354 9 338 9 c 128,-1,23
 322 9 322 9 311 -3 c 0,24,25
 300 -14 300 -14 300 -30 c 2,26,-1
 300 -84 l 2,27,28
 300 -100 300 -100 311 -111 c 128,-1,29
 322 -122 322 -122 338 -122 c 2,30,-1
 394 -122 l 1,31,-1
 417 -146 l 1,32,-1
 417 -170 l 1,33,-1
 403 -185 l 1,34,-1
 338 -185 l 2,0,1
605 179 m 0,35,36
 614 170 614 170 616 153 c 0,37,38
 616 139 616 139 605 128 c 2,39,-1
 485 10 l 2,40,41
 475 0 475 0 460 0 c 2,42,-1
 216 0 l 2,43,44
 202 0 202 0 192 9 c 2,45,-1
 68 128 l 2,46,47
 57 139 57 139 57 153 c 2,48,-1
 57 633 l 2,49,50
 57 649 57 649 68 658 c 2,51,-1
 191 782 l 2,52,53
 201 792 201 792 216 792 c 2,54,-1
 460 792 l 2,55,56
 475 792 475 792 485 782 c 0,57,58
 491 776 491 776 504.5 762 c 128,-1,59
 518 748 518 748 530.5 736 c 128,-1,60
 543 724 543 724 555 712 c 0,61,62
 582 684 582 684 605 661 c 0,63,64
 614 652 614 652 616 635 c 0,65,66
 616 622 616 622 605 611 c 0,67,68
 595 601 595 601 580 601 c 0,69,70
 566 600 566 600 555 611 c 2,71,-1
 497 669 l 1,72,-1
 474 692 l 1,73,-1
 454 712 l 1,74,-1
 445 721 l 1,75,-1
 231 721 l 1,76,-1
 129 619 l 1,77,-1
 129 169 l 1,78,-1
 231 71 l 1,79,-1
 445 71 l 1,80,-1
 555 179 l 2,81,82
 565 189 565 189 580 189 c 128,-1,83
 595 189 595 189 605 179 c 0,35,36
EndSplineSet
Validated: 5
EndChar

StartChar: Egrave
Encoding: 200 200 121
Width: 674
GlyphClass: 2
Flags: W
LayerCount: 2
Fore
SplineSet
343 814 m 2,0,-1
 252 873 l 2,1,2
 240 882 240 882 236 896 c 0,3,4
 233 908 233 908 241 922 c 0,5,6
 248 935 248 935 264 938 c 0,7,8
 277 941 277 941 291 933 c 2,9,-1
 382 874 l 2,10,11
 394 865 394 865 398 852 c 0,12,13
 401 838 401 838 393 824 c 0,14,15
 385 812 385 812 370 809 c 0,16,17
 357 806 357 806 343 814 c 2,0,-1
128 71 m 1,18,-1
 582 71 l 2,19,20
 597 71 597 71 607 61 c 128,-1,21
 617 51 617 51 617 36 c 0,22,23
 617 20 617 20 607 10 c 0,24,25
 596 0 596 0 582 0 c 2,26,-1
 93 0 l 2,27,28
 78 0 78 0 68 10 c 0,29,30
 57 21 57 21 57 36 c 2,31,-1
 57 758 l 2,32,33
 57 772 57 772 68 783 c 0,34,35
 77 793 77 793 93 793 c 2,36,-1
 582 793 l 2,37,38
 597 793 597 793 607 783 c 128,-1,39
 617 773 617 773 617 758 c 0,40,41
 617 742 617 742 607 732 c 0,42,43
 596 722 596 722 582 722 c 2,44,-1
 128 722 l 1,45,-1
 128 432 l 1,46,-1
 340 432 l 2,47,48
 354 432 354 432 365 422 c 0,49,50
 375 412 375 412 375 397 c 0,51,52
 375 381 375 381 365 372 c 0,53,54
 354 361 354 361 340 361 c 2,55,-1
 128 361 l 1,56,-1
 128 71 l 1,18,-1
EndSplineSet
Validated: 1
EndChar

StartChar: Eacute
Encoding: 201 201 122
Width: 674
GlyphClass: 2
Flags: W
LayerCount: 2
Fore
SplineSet
321 815 m 2,0,1
 307 807 307 807 294 810 c 0,2,3
 278 813 278 813 271 826 c 0,4,5
 263 840 263 840 266 852 c 0,6,7
 270 866 270 866 282 875 c 2,8,-1
 373 934 l 2,9,10
 387 942 387 942 400 939 c 0,11,12
 415 936 415 936 423 924 c 0,13,14
 431 910 431 910 428 896 c 0,15,16
 425 881 425 881 412 874 c 2,17,-1
 321 815 l 2,0,1
128 71 m 1,18,-1
 582 71 l 2,19,20
 597 71 597 71 607 61 c 128,-1,21
 617 51 617 51 617 36 c 0,22,23
 617 20 617 20 607 10 c 0,24,25
 596 0 596 0 582 0 c 2,26,-1
 93 0 l 2,27,28
 78 0 78 0 68 10 c 0,29,30
 57 21 57 21 57 36 c 2,31,-1
 57 758 l 2,32,33
 57 772 57 772 68 783 c 0,34,35
 77 793 77 793 93 793 c 2,36,-1
 582 793 l 2,37,38
 597 793 597 793 607 783 c 128,-1,39
 617 773 617 773 617 758 c 0,40,41
 617 742 617 742 607 732 c 0,42,43
 596 722 596 722 582 722 c 2,44,-1
 128 722 l 1,45,-1
 128 432 l 1,46,-1
 340 432 l 2,47,48
 354 432 354 432 365 422 c 0,49,50
 375 412 375 412 375 397 c 0,51,52
 375 381 375 381 365 372 c 0,53,54
 354 361 354 361 340 361 c 2,55,-1
 128 361 l 1,56,-1
 128 71 l 1,18,-1
EndSplineSet
Validated: 1
EndChar

StartChar: Ecircumflex
Encoding: 202 202 123
Width: 674
GlyphClass: 2
Flags: W
LayerCount: 2
Fore
SplineSet
382 834 m 2,0,-1
 318 879 l 2,1,2
 305 886 305 886 302 900 c 0,3,4
 297 915 297 915 306 928 c 0,5,6
 311 941 311 941 327 945 c 0,7,8
 338 949 338 949 354 941 c 2,9,-1
 418 897 l 2,10,11
 431 889 431 889 435 875 c 0,12,13
 440 862 440 862 432 848 c 0,14,15
 424 836 424 836 410 831 c 0,16,17
 395 827 395 827 382 834 c 2,0,-1
287 834 m 2,18,19
 274 826 274 826 260 831 c 0,20,21
 243 836 243 836 238 848 c 0,22,23
 229 860 229 860 234 874 c 0,24,25
 238 889 238 889 251 897 c 2,26,-1
 315 941 l 2,27,28
 328 948 328 948 342 944 c 0,29,30
 355 941 355 941 364 928 c 0,31,32
 371 913 371 913 367 900 c 128,-1,33
 363 887 363 887 350 879 c 2,34,-1
 287 834 l 2,18,19
128 71 m 1,35,-1
 582 71 l 2,36,37
 597 71 597 71 607 61 c 128,-1,38
 617 51 617 51 617 36 c 0,39,40
 617 20 617 20 607 10 c 0,41,42
 596 0 596 0 582 0 c 2,43,-1
 93 0 l 2,44,45
 78 0 78 0 68 10 c 0,46,47
 57 21 57 21 57 36 c 2,48,-1
 57 758 l 2,49,50
 57 772 57 772 68 783 c 0,51,52
 77 793 77 793 93 793 c 2,53,-1
 582 793 l 2,54,55
 597 793 597 793 607 783 c 128,-1,56
 617 773 617 773 617 758 c 0,57,58
 617 742 617 742 607 732 c 0,59,60
 596 722 596 722 582 722 c 2,61,-1
 128 722 l 1,62,-1
 128 432 l 1,63,-1
 340 432 l 2,64,65
 354 432 354 432 365 422 c 0,66,67
 375 412 375 412 375 397 c 0,68,69
 375 381 375 381 365 372 c 0,70,71
 354 361 354 361 340 361 c 2,72,-1
 128 361 l 1,73,-1
 128 71 l 1,35,-1
EndSplineSet
Validated: 5
EndChar

StartChar: Edieresis
Encoding: 203 203 124
Width: 674
GlyphClass: 2
Flags: W
LayerCount: 2
Fore
SplineSet
255 861 m 2,0,1
 255 856 255 856 250 848 c 1,2,3
 242 843 242 843 237 843 c 2,4,-1
 177 843 l 2,5,6
 172 843 172 843 164 848 c 1,7,8
 159 856 159 856 159 861 c 2,9,-1
 159 921 l 2,10,11
 159 928 159 928 164 933 c 0,12,13
 172 938 172 938 177 938 c 2,14,-1
 237 938 l 2,15,16
 242 938 242 938 250 933 c 0,17,18
 255 928 255 928 255 921 c 2,19,-1
 255 861 l 2,0,1
219 879 m 1,20,-1
 219 903 l 1,21,-1
 195 903 l 1,22,-1
 195 879 l 1,23,-1
 219 879 l 1,20,-1
516 861 m 2,24,25
 516 854 516 854 510 848 c 0,26,27
 505 843 505 843 498 843 c 2,28,-1
 438 843 l 2,29,30
 431 843 431 843 426 848 c 0,31,32
 420 854 420 854 420 861 c 2,33,-1
 420 920 l 2,34,35
 420 928 420 928 426 932 c 0,36,37
 430 938 430 938 438 938 c 2,38,-1
 498 938 l 2,39,40
 505 938 505 938 510 933 c 0,41,42
 516 928 516 928 516 920 c 2,43,-1
 516 861 l 2,24,25
481 879 m 1,44,-1
 481 903 l 1,45,-1
 456 903 l 1,46,-1
 456 879 l 1,47,-1
 481 879 l 1,44,-1
128 71 m 1,48,-1
 582 71 l 2,49,50
 597 71 597 71 607 61 c 128,-1,51
 617 51 617 51 617 36 c 0,52,53
 617 20 617 20 607 10 c 0,54,55
 596 0 596 0 582 0 c 2,56,-1
 93 0 l 2,57,58
 78 0 78 0 68 10 c 0,59,60
 57 21 57 21 57 36 c 2,61,-1
 57 758 l 2,62,63
 57 772 57 772 68 783 c 0,64,65
 77 793 77 793 93 793 c 2,66,-1
 582 793 l 2,67,68
 597 793 597 793 607 783 c 128,-1,69
 617 773 617 773 617 758 c 0,70,71
 617 742 617 742 607 732 c 0,72,73
 596 722 596 722 582 722 c 2,74,-1
 128 722 l 1,75,-1
 128 432 l 1,76,-1
 340 432 l 2,77,78
 354 432 354 432 365 422 c 0,79,80
 375 412 375 412 375 397 c 0,81,82
 375 381 375 381 365 372 c 0,83,84
 354 361 354 361 340 361 c 2,85,-1
 128 361 l 1,86,-1
 128 71 l 1,48,-1
EndSplineSet
Validated: 1
EndChar

StartChar: Igrave
Encoding: 204 204 125
Width: 424
GlyphClass: 2
Flags: W
LayerCount: 2
Fore
SplineSet
213 815 m 2,0,-1
 122 874 l 2,1,2
 110 883 110 883 106 896 c 0,3,4
 103 910 103 910 111 924 c 0,5,6
 119 936 119 936 134 939 c 0,7,8
 147 942 147 942 161 934 c 2,9,-1
 252 875 l 2,10,11
 264 866 264 866 268 852 c 0,12,13
 271 840 271 840 263 826 c 0,14,15
 256 813 256 813 240 810 c 0,16,17
 227 807 227 807 213 815 c 2,0,-1
93 722 m 2,18,19
 78 722 78 722 68 732 c 0,20,21
 57 743 57 743 57 758 c 0,22,23
 57 772 57 772 68 783 c 0,24,25
 77 793 77 793 93 793 c 2,26,-1
 212 793 l 1,27,-1
 215 793 l 1,28,-1
 217 793 l 1,29,-1
 332 793 l 2,30,31
 347 793 347 793 357 783 c 128,-1,32
 367 773 367 773 367 758 c 0,33,34
 367 742 367 742 357 732 c 0,35,36
 346 722 346 722 332 722 c 2,37,-1
 250 722 l 1,38,-1
 250 71 l 1,39,-1
 332 71 l 2,40,41
 347 71 347 71 357 61 c 128,-1,42
 367 51 367 51 367 36 c 0,43,44
 367 20 367 20 357 10 c 0,45,46
 346 0 346 0 332 0 c 2,47,-1
 93 0 l 2,48,49
 78 0 78 0 68 10 c 0,50,51
 57 21 57 21 57 36 c 0,52,53
 57 50 57 50 68 61 c 0,54,55
 77 71 77 71 93 71 c 2,56,-1
 179 71 l 1,57,-1
 179 722 l 1,58,-1
 93 722 l 2,18,19
EndSplineSet
Validated: 1
EndChar

StartChar: Iacute
Encoding: 205 205 126
Width: 424
GlyphClass: 2
Flags: W
LayerCount: 2
Fore
SplineSet
223 817 m 2,0,1
 209 809 209 809 196 812 c 0,2,3
 180 815 180 815 173 828 c 0,4,5
 165 842 165 842 168 854 c 0,6,7
 172 868 172 868 184 877 c 2,8,-1
 275 936 l 2,9,10
 289 944 289 944 302 941 c 0,11,12
 317 938 317 938 325 926 c 0,13,14
 333 912 333 912 330 898 c 0,15,16
 327 883 327 883 314 876 c 2,17,-1
 223 817 l 2,0,1
93 722 m 2,18,19
 78 722 78 722 68 732 c 0,20,21
 57 743 57 743 57 758 c 0,22,23
 57 772 57 772 68 783 c 0,24,25
 77 793 77 793 93 793 c 2,26,-1
 212 793 l 1,27,-1
 215 793 l 1,28,-1
 217 793 l 1,29,-1
 332 793 l 2,30,31
 347 793 347 793 357 783 c 128,-1,32
 367 773 367 773 367 758 c 0,33,34
 367 742 367 742 357 732 c 0,35,36
 346 722 346 722 332 722 c 2,37,-1
 250 722 l 1,38,-1
 250 71 l 1,39,-1
 332 71 l 2,40,41
 347 71 347 71 357 61 c 128,-1,42
 367 51 367 51 367 36 c 0,43,44
 367 20 367 20 357 10 c 0,45,46
 346 0 346 0 332 0 c 2,47,-1
 93 0 l 2,48,49
 78 0 78 0 68 10 c 0,50,51
 57 21 57 21 57 36 c 0,52,53
 57 50 57 50 68 61 c 0,54,55
 77 71 77 71 93 71 c 2,56,-1
 179 71 l 1,57,-1
 179 722 l 1,58,-1
 93 722 l 2,18,19
EndSplineSet
Validated: 1
EndChar

StartChar: Icircumflex
Encoding: 206 206 127
Width: 424
GlyphClass: 2
Flags: W
LayerCount: 2
Fore
SplineSet
262 828 m 2,0,-1
 198 873 l 2,1,2
 185 880 185 880 182 894 c 0,3,4
 177 909 177 909 186 922 c 0,5,6
 191 935 191 935 207 939 c 0,7,8
 218 943 218 943 234 935 c 2,9,-1
 298 891 l 2,10,11
 311 883 311 883 315 869 c 0,12,13
 320 856 320 856 312 842 c 0,14,15
 304 830 304 830 290 825 c 0,16,17
 275 821 275 821 262 828 c 2,0,-1
167 828 m 2,18,19
 154 820 154 820 140 825 c 0,20,21
 123 830 123 830 118 842 c 0,22,23
 109 854 109 854 114 868 c 0,24,25
 118 883 118 883 131 891 c 2,26,-1
 195 935 l 2,27,28
 208 942 208 942 222 938 c 0,29,30
 235 935 235 935 244 922 c 0,31,32
 251 907 251 907 247 894 c 128,-1,33
 243 881 243 881 230 873 c 2,34,-1
 167 828 l 2,18,19
93 722 m 2,35,36
 78 722 78 722 68 732 c 0,37,38
 57 743 57 743 57 758 c 0,39,40
 57 772 57 772 68 783 c 0,41,42
 77 793 77 793 93 793 c 2,43,-1
 212 793 l 1,44,-1
 215 793 l 1,45,-1
 217 793 l 1,46,-1
 332 793 l 2,47,48
 347 793 347 793 357 783 c 128,-1,49
 367 773 367 773 367 758 c 0,50,51
 367 742 367 742 357 732 c 0,52,53
 346 722 346 722 332 722 c 2,54,-1
 250 722 l 1,55,-1
 250 71 l 1,56,-1
 332 71 l 2,57,58
 347 71 347 71 357 61 c 128,-1,59
 367 51 367 51 367 36 c 0,60,61
 367 20 367 20 357 10 c 0,62,63
 346 0 346 0 332 0 c 2,64,-1
 93 0 l 2,65,66
 78 0 78 0 68 10 c 0,67,68
 57 21 57 21 57 36 c 0,69,70
 57 50 57 50 68 61 c 0,71,72
 77 71 77 71 93 71 c 2,73,-1
 179 71 l 1,74,-1
 179 722 l 1,75,-1
 93 722 l 2,35,36
EndSplineSet
Validated: 5
EndChar

StartChar: Idieresis
Encoding: 207 207 128
Width: 424
GlyphClass: 2
Flags: W
LayerCount: 2
Fore
SplineSet
130 861 m 2,0,1
 130 854 130 854 124 848 c 0,2,3
 119 843 119 843 112 843 c 2,4,-1
 52 843 l 2,5,6
 45 843 45 843 40 848 c 0,7,8
 34 854 34 854 34 861 c 2,9,-1
 34 921 l 2,10,11
 34 928 34 928 40 933 c 0,12,13
 45 938 45 938 52 938 c 2,14,-1
 112 938 l 2,15,16
 119 938 119 938 124 933 c 0,17,18
 130 928 130 928 130 921 c 2,19,-1
 130 861 l 2,0,1
94 879 m 1,20,-1
 94 903 l 1,21,-1
 70 903 l 1,22,-1
 70 879 l 1,23,-1
 94 879 l 1,20,-1
391 861 m 2,24,25
 391 856 391 856 386 848 c 1,26,27
 378 843 378 843 373 843 c 2,28,-1
 313 843 l 2,29,30
 308 843 308 843 300 848 c 1,31,32
 295 856 295 856 295 861 c 2,33,-1
 295 920 l 2,34,35
 295 927 295 927 300 932 c 0,36,37
 306 938 306 938 313 938 c 2,38,-1
 373 938 l 2,39,40
 378 938 378 938 386 933 c 0,41,42
 391 928 391 928 391 920 c 2,43,-1
 391 861 l 2,24,25
356 879 m 1,44,-1
 356 903 l 1,45,-1
 331 903 l 1,46,-1
 331 879 l 1,47,-1
 356 879 l 1,44,-1
93 722 m 2,48,49
 78 722 78 722 68 732 c 0,50,51
 57 743 57 743 57 758 c 0,52,53
 57 772 57 772 68 783 c 0,54,55
 77 793 77 793 93 793 c 2,56,-1
 212 793 l 1,57,-1
 215 793 l 1,58,-1
 217 793 l 1,59,-1
 332 793 l 2,60,61
 347 793 347 793 357 783 c 128,-1,62
 367 773 367 773 367 758 c 0,63,64
 367 742 367 742 357 732 c 0,65,66
 346 722 346 722 332 722 c 2,67,-1
 250 722 l 1,68,-1
 250 71 l 1,69,-1
 332 71 l 2,70,71
 347 71 347 71 357 61 c 128,-1,72
 367 51 367 51 367 36 c 0,73,74
 367 20 367 20 357 10 c 0,75,76
 346 0 346 0 332 0 c 2,77,-1
 93 0 l 2,78,79
 78 0 78 0 68 10 c 0,80,81
 57 21 57 21 57 36 c 0,82,83
 57 50 57 50 68 61 c 0,84,85
 77 71 77 71 93 71 c 2,86,-1
 179 71 l 1,87,-1
 179 722 l 1,88,-1
 93 722 l 2,48,49
EndSplineSet
Validated: 1
EndChar

StartChar: Eth
Encoding: 208 208 129
Width: 725
GlyphClass: 2
Flags: W
LayerCount: 2
Fore
SplineSet
154 797 m 2,0,-1
 520 797 l 2,1,2
 534 797 534 797 545 786 c 2,3,-1
 668 663 l 2,4,5
 678 653 678 653 678 637 c 2,6,-1
 678 158 l 2,7,8
 678 142 678 142 668 132 c 2,9,-1
 544 13 l 2,10,11
 534 3 534 3 520 3 c 2,12,-1
 154 3 l 2,13,14
 139 3 139 3 128 14 c 0,15,16
 118 24 118 24 118 39 c 2,17,-1
 118 761 l 2,18,19
 118 776 118 776 128 786 c 0,20,21
 139 797 139 797 154 797 c 2,0,-1
189 725 m 1,22,-1
 189 75 l 1,23,-1
 505 75 l 1,24,-1
 607 173 l 1,25,-1
 607 623 l 1,26,-1
 505 725 l 1,27,-1
 189 725 l 1,22,-1
59 377 m 2,28,29
 46 377 46 377 37 386 c 128,-1,30
 28 395 28 395 28 408 c 128,-1,31
 28 421 28 421 37 430 c 128,-1,32
 46 439 46 439 59 439 c 2,33,-1
 341 439 l 2,34,35
 354 439 354 439 363 430 c 128,-1,36
 372 421 372 421 372 408 c 128,-1,37
 372 395 372 395 363 386 c 128,-1,38
 354 377 354 377 341 377 c 2,39,-1
 59 377 l 2,28,29
EndSplineSet
Validated: 5
EndChar

StartChar: Ntilde
Encoding: 209 209 130
Width: 674
GlyphClass: 2
Flags: W
LayerCount: 2
Fore
SplineSet
246 829 m 2,0,1
 233 823 233 823 218 828 c 0,2,3
 204 831 204 831 198 846 c 0,4,5
 191 855 191 855 196 873 c 0,6,7
 201 887 201 887 215 894 c 2,8,-1
 296 933 l 2,9,10
 312 940 312 940 327 933 c 2,11,-1
 393 901 l 1,12,-1
 459 933 l 2,13,14
 474 940 474 940 486 934 c 0,15,16
 501 931 501 931 508 916 c 0,17,18
 514 905 514 905 509 889 c 0,19,20
 504 875 504 875 491 869 c 2,21,-1
 409 829 l 2,22,23
 393 822 393 822 378 829 c 2,24,-1
 312 861 l 1,25,-1
 246 829 l 2,0,1
93 0 m 128,-1,27
 78 0 78 0 68 10 c 0,28,29
 57 21 57 21 57 36 c 2,30,-1
 57 757 l 2,31,32
 57 768 57 768 64 778 c 0,33,34
 73 787 73 787 82 791 c 0,35,36
 109 799 109 799 122 777 c 2,37,-1
 546 152 l 1,38,-1
 546 757 l 2,39,40
 546 771 546 771 556 782 c 0,41,42
 570 793 570 793 582 793 c 0,43,44
 596 793 596 793 607 782 c 0,45,46
 617 772 617 772 617 757 c 2,47,-1
 617 36 l 2,48,49
 617 25 617 25 610 15 c 0,50,51
 604 5 604 5 592 2 c 0,52,53
 567 -5 567 -5 553 16 c 2,54,-1
 129 641 l 1,55,-1
 129 36 l 2,56,57
 129 21 129 21 118 10 c 0,58,26
 108 0 108 0 93 0 c 128,-1,27
EndSplineSet
Validated: 33
EndChar

StartChar: Ograve
Encoding: 210 210 131
Width: 674
GlyphClass: 2
Flags: W
LayerCount: 2
Fore
SplineSet
357 811 m 2,0,-1
 266 870 l 2,1,2
 254 879 254 879 250 892 c 0,3,4
 247 906 247 906 255 920 c 0,5,6
 263 932 263 932 278 935 c 0,7,8
 291 938 291 938 305 930 c 2,9,-1
 396 871 l 2,10,11
 408 862 408 862 412 848 c 0,12,13
 415 836 415 836 407 822 c 0,14,15
 400 809 400 809 384 806 c 0,16,17
 371 803 371 803 357 811 c 2,0,-1
606 129 m 2,18,-1
 487 11 l 2,19,20
 479 2 479 2 462 0 c 2,21,-1
 216 0 l 2,22,23
 202 0 202 0 192 10 c 2,24,-1
 68 128 l 2,25,26
 57 139 57 139 57 154 c 2,27,-1
 57 634 l 2,28,29
 57 648 57 648 68 659 c 2,30,-1
 191 782 l 2,31,32
 201 792 201 792 216 793 c 2,33,-1
 462 793 l 2,34,35
 476 793 476 793 487 782 c 2,36,-1
 557 712 l 2,37,38
 584 684 584 684 607 661 c 0,39,40
 611 656 611 656 614 650 c 0,41,42
 617 645 617 645 617 637 c 2,43,-1
 617 154 l 2,44,45
 617 148 617 148 614 140 c 0,46,47
 608 131 608 131 606 129 c 2,18,-1
447 721 m 1,48,-1
 231 721 l 1,49,-1
 129 619 l 1,50,-1
 129 170 l 1,51,-1
 231 71 l 1,52,-1
 447 71 l 1,53,-1
 546 169 l 1,54,-1
 546 622 l 1,55,-1
 447 721 l 1,48,-1
EndSplineSet
Validated: 1
EndChar

StartChar: Oacute
Encoding: 211 211 132
Width: 674
GlyphClass: 2
Flags: W
LayerCount: 2
Fore
SplineSet
315 813 m 2,0,1
 301 805 301 805 288 808 c 0,2,3
 272 811 272 811 265 824 c 0,4,5
 257 838 257 838 260 850 c 0,6,7
 264 864 264 864 276 873 c 2,8,-1
 367 932 l 2,9,10
 381 940 381 940 394 937 c 0,11,12
 409 934 409 934 417 922 c 0,13,14
 425 908 425 908 422 894 c 0,15,16
 419 879 419 879 406 872 c 2,17,-1
 315 813 l 2,0,1
606 129 m 2,18,-1
 487 11 l 2,19,20
 479 2 479 2 462 0 c 2,21,-1
 216 0 l 2,22,23
 202 0 202 0 192 10 c 2,24,-1
 68 128 l 2,25,26
 57 139 57 139 57 154 c 2,27,-1
 57 634 l 2,28,29
 57 648 57 648 68 659 c 2,30,-1
 191 782 l 2,31,32
 201 792 201 792 216 793 c 2,33,-1
 462 793 l 2,34,35
 476 793 476 793 487 782 c 2,36,-1
 557 712 l 2,37,38
 584 684 584 684 607 661 c 0,39,40
 611 656 611 656 614 650 c 0,41,42
 617 645 617 645 617 637 c 2,43,-1
 617 154 l 2,44,45
 617 148 617 148 614 140 c 0,46,47
 608 131 608 131 606 129 c 2,18,-1
447 721 m 1,48,-1
 231 721 l 1,49,-1
 129 619 l 1,50,-1
 129 170 l 1,51,-1
 231 71 l 1,52,-1
 447 71 l 1,53,-1
 546 169 l 1,54,-1
 546 622 l 1,55,-1
 447 721 l 1,48,-1
EndSplineSet
Validated: 1
EndChar

StartChar: Ocircumflex
Encoding: 212 212 133
Width: 674
GlyphClass: 2
Flags: W
LayerCount: 2
Fore
SplineSet
383 821 m 2,0,-1
 319 866 l 2,1,2
 306 874 306 874 302 888 c 0,3,4
 299 901 299 901 306 915 c 0,5,6
 314 927 314 927 328 932 c 0,7,8
 339 936 339 936 355 928 c 2,9,-1
 419 884 l 2,10,11
 432 876 432 876 436 862 c 0,12,13
 441 847 441 847 432 834 c 0,14,15
 425 822 425 822 410 818 c 0,16,17
 396 814 396 814 383 821 c 2,0,-1
288 821 m 2,18,19
 275 814 275 814 260 818 c 0,20,21
 247 822 247 822 238 834 c 0,22,23
 231 849 231 849 235 862 c 0,24,25
 239 876 239 876 252 884 c 2,26,-1
 316 928 l 2,27,28
 329 935 329 935 343 932 c 0,29,30
 359 928 359 928 364 915 c 0,31,32
 373 902 373 902 368 888 c 0,33,34
 364 874 364 874 351 866 c 2,35,-1
 288 821 l 2,18,19
606 129 m 2,36,-1
 487 11 l 2,37,38
 479 2 479 2 462 0 c 2,39,-1
 216 0 l 2,40,41
 202 0 202 0 192 10 c 2,42,-1
 68 128 l 2,43,44
 57 139 57 139 57 154 c 2,45,-1
 57 634 l 2,46,47
 57 648 57 648 68 659 c 2,48,-1
 191 782 l 2,49,50
 201 792 201 792 216 793 c 2,51,-1
 462 793 l 2,52,53
 476 793 476 793 487 782 c 2,54,-1
 557 712 l 2,55,56
 584 684 584 684 607 661 c 0,57,58
 611 656 611 656 614 650 c 0,59,60
 617 645 617 645 617 637 c 2,61,-1
 617 154 l 2,62,63
 617 148 617 148 614 140 c 0,64,65
 608 131 608 131 606 129 c 2,36,-1
447 721 m 1,66,-1
 231 721 l 1,67,-1
 129 619 l 1,68,-1
 129 170 l 1,69,-1
 231 71 l 1,70,-1
 447 71 l 1,71,-1
 546 169 l 1,72,-1
 546 622 l 1,73,-1
 447 721 l 1,66,-1
EndSplineSet
Validated: 5
EndChar

StartChar: Otilde
Encoding: 213 213 134
Width: 674
GlyphClass: 2
Flags: W
LayerCount: 2
Fore
SplineSet
233 829 m 2,0,1
 218 822 218 822 206 828 c 0,2,3
 191 831 191 831 184 846 c 0,4,5
 178 857 178 857 183 873 c 0,6,7
 188 887 188 887 202 894 c 2,8,-1
 283 933 l 2,9,10
 299 940 299 940 314 933 c 2,11,-1
 380 901 l 1,12,-1
 446 933 l 2,13,14
 459 939 459 939 474 934 c 0,15,16
 488 931 488 931 494 916 c 0,17,18
 501 907 501 907 496 889 c 0,19,20
 491 875 491 875 478 869 c 2,21,-1
 396 829 l 2,22,23
 380 822 380 822 365 829 c 2,24,-1
 299 861 l 1,25,-1
 233 829 l 2,0,1
606 129 m 2,26,-1
 487 11 l 2,27,28
 479 2 479 2 462 0 c 2,29,-1
 216 0 l 2,30,31
 202 0 202 0 192 10 c 2,32,-1
 68 128 l 2,33,34
 57 139 57 139 57 154 c 2,35,-1
 57 634 l 2,36,37
 57 648 57 648 68 659 c 2,38,-1
 191 782 l 2,39,40
 201 792 201 792 216 793 c 2,41,-1
 462 793 l 2,42,43
 476 793 476 793 487 782 c 2,44,-1
 557 712 l 2,45,46
 584 684 584 684 607 661 c 0,47,48
 611 656 611 656 614 650 c 0,49,50
 617 645 617 645 617 637 c 2,51,-1
 617 154 l 2,52,53
 617 148 617 148 614 140 c 0,54,55
 608 131 608 131 606 129 c 2,26,-1
447 721 m 1,56,-1
 231 721 l 1,57,-1
 129 619 l 1,58,-1
 129 170 l 1,59,-1
 231 71 l 1,60,-1
 447 71 l 1,61,-1
 546 169 l 1,62,-1
 546 622 l 1,63,-1
 447 721 l 1,56,-1
EndSplineSet
Validated: 1
EndChar

StartChar: Odieresis
Encoding: 214 214 135
Width: 674
GlyphClass: 2
Flags: W
LayerCount: 2
Fore
SplineSet
257 857 m 2,0,1
 257 852 257 852 252 844 c 1,2,3
 244 839 244 839 239 839 c 2,4,-1
 179 839 l 2,5,6
 174 839 174 839 166 844 c 1,7,8
 161 852 161 852 161 857 c 2,9,-1
 161 917 l 2,10,11
 161 924 161 924 166 929 c 0,12,13
 174 934 174 934 179 934 c 2,14,-1
 239 934 l 2,15,16
 244 934 244 934 252 929 c 0,17,18
 257 924 257 924 257 917 c 2,19,-1
 257 857 l 2,0,1
221 875 m 1,20,-1
 221 899 l 1,21,-1
 197 899 l 1,22,-1
 197 875 l 1,23,-1
 221 875 l 1,20,-1
518 857 m 2,24,25
 518 850 518 850 512 844 c 0,26,27
 507 839 507 839 500 839 c 2,28,-1
 440 839 l 2,29,30
 433 839 433 839 428 844 c 0,31,32
 422 850 422 850 422 857 c 2,33,-1
 422 916 l 2,34,35
 422 924 422 924 428 928 c 0,36,37
 432 934 432 934 440 934 c 2,38,-1
 500 934 l 2,39,40
 507 934 507 934 512 929 c 0,41,42
 518 924 518 924 518 916 c 2,43,-1
 518 857 l 2,24,25
483 875 m 1,44,-1
 483 899 l 1,45,-1
 458 899 l 1,46,-1
 458 875 l 1,47,-1
 483 875 l 1,44,-1
606 129 m 2,48,-1
 487 11 l 2,49,50
 479 2 479 2 462 0 c 2,51,-1
 216 0 l 2,52,53
 202 0 202 0 192 10 c 2,54,-1
 68 128 l 2,55,56
 57 139 57 139 57 154 c 2,57,-1
 57 634 l 2,58,59
 57 648 57 648 68 659 c 2,60,-1
 191 782 l 2,61,62
 201 792 201 792 216 793 c 2,63,-1
 462 793 l 2,64,65
 476 793 476 793 487 782 c 2,66,-1
 557 712 l 2,67,68
 584 684 584 684 607 661 c 0,69,70
 611 656 611 656 614 650 c 0,71,72
 617 645 617 645 617 637 c 2,73,-1
 617 154 l 2,74,75
 617 148 617 148 614 140 c 0,76,77
 608 131 608 131 606 129 c 2,48,-1
447 721 m 1,78,-1
 231 721 l 1,79,-1
 129 619 l 1,80,-1
 129 170 l 1,81,-1
 231 71 l 1,82,-1
 447 71 l 1,83,-1
 546 169 l 1,84,-1
 546 622 l 1,85,-1
 447 721 l 1,78,-1
EndSplineSet
Validated: 1
EndChar

StartChar: multiply
Encoding: 215 215 136
Width: 439
GlyphClass: 2
Flags: W
LayerCount: 2
Fore
SplineSet
90 543 m 2,0,1
 80 553 80 553 80 568 c 128,-1,2
 80 583 80 583 90 592 c 0,3,4
 101 603 101 603 114 603 c 0,5,6
 128 603 128 603 139 592 c 2,7,-1
 381 351 l 2,8,9
 391 341 391 341 391 326 c 0,10,11
 391 310 391 310 380 302 c 1,12,13
 372 291 372 291 356 291 c 0,14,15
 341 291 341 291 331 301 c 2,16,-1
 90 543 l 2,0,1
139 302 m 2,17,18
 129 292 129 292 114 292 c 0,19,20
 99 290 99 290 90 302 c 1,21,22
 79 310 79 310 79 326 c 0,23,24
 79 340 79 340 90 351 c 2,25,-1
 331 593 l 2,26,27
 341 603 341 603 356 603 c 0,28,29
 372 603 372 603 380 592 c 1,30,31
 391 584 391 584 391 568 c 0,32,33
 391 554 391 554 380 543 c 2,34,-1
 139 302 l 2,17,18
EndSplineSet
Validated: 5
EndChar

StartChar: Oslash
Encoding: 216 216 137
Width: 865
GlyphClass: 2
Flags: W
LayerCount: 2
Fore
SplineSet
192 109 m 1,0,-1
 93 10 l 2,1,2
 83 0 83 0 69 0 c 128,-1,3
 55 0 55 0 46 10 c 0,4,5
 36 20 36 20 36 33 c 0,6,7
 36 47 36 47 46 57 c 2,8,-1
 156 167 l 1,9,-1
 156 640 l 2,10,11
 156 654 156 654 166 664 c 2,12,-1
 286 782 l 2,13,14
 296 791 296 791 310 791 c 2,15,-1
 543 791 l 2,16,17
 556 791 556 791 566 782 c 2,18,-1
 673 684 l 1,19,-1
 771 781 l 2,20,21
 781 791 781 791 794 791 c 0,22,23
 808 791 808 791 818 781 c 128,-1,24
 828 771 828 771 828 757 c 0,25,26
 828 744 828 744 818 734 c 2,27,-1
 704 621 l 1,28,-1
 704 162 l 2,29,30
 704 148 704 148 695 138 c 2,31,-1
 567 10 l 2,32,33
 557 0 557 0 543 0 c 2,34,-1
 310 0 l 2,35,36
 296 0 296 0 285 11 c 2,37,-1
 192 109 l 1,0,-1
626 637 m 1,38,-1
 531 724 l 1,39,-1
 323 724 l 1,40,-1
 222 626 l 1,41,-1
 222 234 l 1,42,-1
 626 637 l 1,38,-1
239 157 m 1,43,-1
 324 67 l 1,44,-1
 530 67 l 1,45,-1
 638 175 l 1,46,-1
 638 554 l 1,47,-1
 239 157 l 1,43,-1
EndSplineSet
Validated: 1
EndChar

StartChar: Ugrave
Encoding: 217 217 138
Width: 674
GlyphClass: 2
Flags: W
LayerCount: 2
Fore
SplineSet
361 813 m 2,0,-1
 270 872 l 2,1,2
 258 881 258 881 254 894 c 0,3,4
 251 908 251 908 259 922 c 0,5,6
 267 934 267 934 282 937 c 0,7,8
 295 940 295 940 309 932 c 2,9,-1
 400 873 l 2,10,11
 412 864 412 864 416 850 c 0,12,13
 419 838 419 838 411 824 c 0,14,15
 404 811 404 811 388 808 c 0,16,17
 375 805 375 805 361 813 c 2,0,-1
607 129 m 2,18,-1
 487 10 l 2,19,20
 477 0 477 0 462 0 c 2,21,-1
 214 0 l 2,22,23
 199 0 199 0 189 10 c 2,24,-1
 68 129 l 2,25,26
 57 140 57 140 57 154 c 2,27,-1
 57 757 l 2,28,29
 57 774 57 774 68 782 c 1,30,31
 76 793 76 793 93 793 c 128,-1,32
 110 793 110 793 118 782 c 1,33,34
 129 774 129 774 129 757 c 2,35,-1
 129 169 l 1,36,-1
 228 71 l 1,37,-1
 448 71 l 1,38,-1
 546 169 l 1,39,-1
 546 757 l 2,40,41
 546 772 546 772 556 782 c 0,42,43
 567 793 567 793 582 793 c 0,44,45
 596 793 596 793 607 782 c 0,46,47
 617 773 617 773 617 757 c 2,48,-1
 617 154 l 2,49,50
 617 146 617 146 614 140 c 0,51,52
 612 134 612 134 607 129 c 2,18,-1
EndSplineSet
Validated: 1
EndChar

StartChar: Uacute
Encoding: 218 218 139
Width: 674
GlyphClass: 2
Flags: W
LayerCount: 2
Fore
SplineSet
330 812 m 2,0,1
 316 804 316 804 303 807 c 0,2,3
 288 810 288 810 280 822 c 0,4,5
 272 837 272 837 276 850 c 0,6,7
 279 864 279 864 291 872 c 2,8,-1
 382 931 l 2,9,10
 396 939 396 939 409 936 c 0,11,12
 425 933 425 933 432 920 c 0,13,14
 440 906 440 906 437 894 c 0,15,16
 434 878 434 878 421 871 c 2,17,-1
 330 812 l 2,0,1
607 129 m 2,18,-1
 487 10 l 2,19,20
 477 0 477 0 462 0 c 2,21,-1
 214 0 l 2,22,23
 199 0 199 0 189 10 c 2,24,-1
 68 129 l 2,25,26
 57 140 57 140 57 154 c 2,27,-1
 57 757 l 2,28,29
 57 774 57 774 68 782 c 1,30,31
 76 793 76 793 93 793 c 128,-1,32
 110 793 110 793 118 782 c 1,33,34
 129 774 129 774 129 757 c 2,35,-1
 129 169 l 1,36,-1
 228 71 l 1,37,-1
 448 71 l 1,38,-1
 546 169 l 1,39,-1
 546 757 l 2,40,41
 546 772 546 772 556 782 c 0,42,43
 567 793 567 793 582 793 c 0,44,45
 596 793 596 793 607 782 c 0,46,47
 617 773 617 773 617 757 c 2,48,-1
 617 154 l 2,49,50
 617 146 617 146 614 140 c 0,51,52
 612 134 612 134 607 129 c 2,18,-1
EndSplineSet
Validated: 1
EndChar

StartChar: Ucircumflex
Encoding: 219 219 140
Width: 674
GlyphClass: 2
Flags: W
LayerCount: 2
Fore
SplineSet
385 826 m 2,0,-1
 321 871 l 2,1,2
 308 879 308 879 304 892 c 0,3,4
 301 906 301 906 308 920 c 0,5,6
 316 932 316 932 330 937 c 0,7,8
 341 941 341 941 357 933 c 2,9,-1
 421 889 l 2,10,11
 434 881 434 881 438 867 c 0,12,13
 443 852 443 852 434 840 c 0,14,15
 429 828 429 828 412 823 c 0,16,17
 398 818 398 818 385 826 c 2,0,-1
290 826 m 2,18,19
 277 819 277 819 262 823 c 0,20,21
 248 828 248 828 240 840 c 0,22,23
 232 854 232 854 237 866 c 0,24,25
 241 881 241 881 254 889 c 2,26,-1
 318 933 l 2,27,28
 332 940 332 940 345 936 c 0,29,30
 360 933 360 933 366 920 c 0,31,32
 375 907 375 907 370 892 c 0,33,34
 366 879 366 879 353 871 c 2,35,-1
 290 826 l 2,18,19
607 129 m 2,36,-1
 487 10 l 2,37,38
 477 0 477 0 462 0 c 2,39,-1
 214 0 l 2,40,41
 199 0 199 0 189 10 c 2,42,-1
 68 129 l 2,43,44
 57 140 57 140 57 154 c 2,45,-1
 57 757 l 2,46,47
 57 774 57 774 68 782 c 1,48,49
 76 793 76 793 93 793 c 128,-1,50
 110 793 110 793 118 782 c 1,51,52
 129 774 129 774 129 757 c 2,53,-1
 129 169 l 1,54,-1
 228 71 l 1,55,-1
 448 71 l 1,56,-1
 546 169 l 1,57,-1
 546 757 l 2,58,59
 546 772 546 772 556 782 c 0,60,61
 567 793 567 793 582 793 c 0,62,63
 596 793 596 793 607 782 c 0,64,65
 617 773 617 773 617 757 c 2,66,-1
 617 154 l 2,67,68
 617 146 617 146 614 140 c 0,69,70
 612 134 612 134 607 129 c 2,36,-1
EndSplineSet
Validated: 5
EndChar

StartChar: Udieresis
Encoding: 220 220 141
Width: 674
GlyphClass: 2
Flags: W
LayerCount: 2
Fore
SplineSet
261 859 m 2,0,1
 261 854 261 854 256 846 c 1,2,3
 248 841 248 841 243 841 c 2,4,-1
 183 841 l 2,5,6
 178 841 178 841 170 846 c 1,7,8
 165 854 165 854 165 859 c 2,9,-1
 165 919 l 2,10,11
 165 926 165 926 170 931 c 0,12,13
 178 936 178 936 183 936 c 2,14,-1
 243 936 l 2,15,16
 248 936 248 936 256 931 c 0,17,18
 261 926 261 926 261 919 c 2,19,-1
 261 859 l 2,0,1
225 877 m 1,20,-1
 225 901 l 1,21,-1
 201 901 l 1,22,-1
 201 877 l 1,23,-1
 225 877 l 1,20,-1
522 859 m 2,24,25
 522 852 522 852 516 846 c 0,26,27
 511 841 511 841 504 841 c 2,28,-1
 444 841 l 2,29,30
 437 841 437 841 432 846 c 0,31,32
 426 852 426 852 426 859 c 2,33,-1
 426 918 l 2,34,35
 426 926 426 926 432 930 c 0,36,37
 436 936 436 936 444 936 c 2,38,-1
 504 936 l 2,39,40
 511 936 511 936 516 931 c 0,41,42
 522 926 522 926 522 918 c 2,43,-1
 522 859 l 2,24,25
487 877 m 1,44,-1
 487 901 l 1,45,-1
 462 901 l 1,46,-1
 462 877 l 1,47,-1
 487 877 l 1,44,-1
607 129 m 2,48,-1
 487 10 l 2,49,50
 477 0 477 0 462 0 c 2,51,-1
 214 0 l 2,52,53
 199 0 199 0 189 10 c 2,54,-1
 68 129 l 2,55,56
 57 140 57 140 57 154 c 2,57,-1
 57 757 l 2,58,59
 57 774 57 774 68 782 c 1,60,61
 76 793 76 793 93 793 c 128,-1,62
 110 793 110 793 118 782 c 1,63,64
 129 774 129 774 129 757 c 2,65,-1
 129 169 l 1,66,-1
 228 71 l 1,67,-1
 448 71 l 1,68,-1
 546 169 l 1,69,-1
 546 757 l 2,70,71
 546 772 546 772 556 782 c 0,72,73
 567 793 567 793 582 793 c 0,74,75
 596 793 596 793 607 782 c 0,76,77
 617 773 617 773 617 757 c 2,78,-1
 617 154 l 2,79,80
 617 146 617 146 614 140 c 0,81,82
 612 134 612 134 607 129 c 2,48,-1
EndSplineSet
Validated: 1
EndChar

StartChar: Yacute
Encoding: 221 221 142
Width: 674
GlyphClass: 2
Flags: W
LayerCount: 2
Fore
SplineSet
340 811 m 2,0,1
 326 803 326 803 313 806 c 0,2,3
 298 809 298 809 290 821 c 0,4,5
 282 836 282 836 286 849 c 0,6,7
 289 863 289 863 301 871 c 2,8,-1
 392 930 l 2,9,10
 406 938 406 938 419 935 c 0,11,12
 435 932 435 932 442 919 c 0,13,14
 450 905 450 905 447 893 c 0,15,16
 444 877 444 877 431 870 c 2,17,-1
 340 811 l 2,0,1
68 613 m 2,18,19
 57 624 57 624 57 638 c 2,20,-1
 57 757 l 2,21,22
 57 771 57 771 68 782 c 0,23,24
 78 792 78 792 94 792 c 128,-1,25
 110 792 110 792 118 781 c 1,26,27
 129 773 129 773 129 757 c 2,28,-1
 129 653 l 1,29,-1
 337 448 l 1,30,-1
 545 656 l 1,31,-1
 545 757 l 2,32,33
 545 773 545 773 556 781 c 1,34,35
 564 792 564 792 581 792 c 0,36,37
 597 792 597 792 606 782 c 0,38,39
 617 771 617 771 617 757 c 2,40,-1
 617 642 l 2,41,42
 617 627 617 627 607 617 c 2,43,-1
 373 383 l 1,44,-1
 373 36 l 2,45,46
 373 19 373 19 362 11 c 1,47,48
 354 0 354 0 337 0 c 128,-1,49
 320 0 320 0 312 11 c 1,50,51
 301 19 301 19 301 36 c 2,52,-1
 301 383 l 1,53,-1
 68 613 l 2,18,19
EndSplineSet
Validated: 1
EndChar

StartChar: Thorn
Encoding: 222 222 143
Width: 675
GlyphClass: 2
Flags: W
LayerCount: 2
Fore
SplineSet
134 149 m 1,0,-1
 134 36 l 2,1,2
 134 21 134 21 124 11 c 0,3,4
 113 0 113 0 98 0 c 0,5,6
 82 0 82 0 74 11 c 1,7,8
 63 19 63 19 63 36 c 2,9,-1
 63 756 l 2,10,11
 63 773 63 773 74 781 c 1,12,13
 82 792 82 792 98 792 c 0,14,15
 113 792 113 792 124 781 c 0,16,17
 134 771 134 771 134 756 c 2,18,-1
 134 702 l 1,19,-1
 464 702 l 2,20,21
 479 702 479 702 489 692 c 2,22,-1
 610 571 l 2,23,24
 620 561 620 561 620 546 c 2,25,-1
 620 306 l 2,26,27
 620 290 620 290 610 280 c 2,28,-1
 489 160 l 2,29,30
 479 150 479 150 464 149 c 2,31,-1
 134 149 l 1,0,-1
134 631 m 1,32,-1
 134 220 l 1,33,-1
 449 220 l 1,34,-1
 549 320 l 1,35,-1
 549 531 l 1,36,-1
 449 631 l 1,37,-1
 134 631 l 1,32,-1
EndSplineSet
Validated: 1
EndChar

StartChar: germandbls
Encoding: 223 223 144
Width: 575
GlyphClass: 2
Flags: W
LayerCount: 2
Fore
SplineSet
309 720 m 1,0,-1
 225 720 l 1,1,-1
 129 618 l 1,2,-1
 129 -78 l 2,3,4
 129 -92 129 -92 118 -103 c 0,5,6
 109 -113 109 -113 94 -113 c 128,-1,7
 79 -113 79 -113 68 -102 c 0,8,9
 58 -92 58 -92 58 -78 c 2,10,-1
 58 632 l 2,11,12
 58 647 58 647 68 657 c 2,13,-1
 184 780 l 2,14,15
 195 791 195 791 210 791 c 2,16,-1
 315 791 l 1,17,18
 336 797 336 797 352 782 c 2,19,-1
 465 669 l 2,20,21
 468 666 468 666 470 662 c 0,22,23
 479 652 479 652 479 638 c 2,24,-1
 479 531 l 2,25,26
 479 515 479 515 468 504 c 2,27,-1
 361 397 l 1,28,-1
 508 307 l 2,29,30
 525 296 525 296 525 277 c 2,31,-1
 525 35 l 2,32,33
 525 21 525 21 514 10 c 0,34,35
 505 0 505 0 489 0 c 2,36,-1
 220 0 l 2,37,38
 206 0 206 0 195 10 c 0,39,40
 185 20 185 20 185 36 c 0,41,42
 185 51 185 51 195 60 c 0,43,44
 206 71 206 71 220 71 c 2,45,-1
 454 71 l 1,46,-1
 454 257 l 1,47,-1
 294 356 l 2,48,49
 284 359 284 359 277 365 c 0,50,51
 266 376 266 376 266 392 c 0,52,53
 266 407 266 407 277 418 c 2,54,-1
 405 546 l 1,55,-1
 405 624 l 1,56,-1
 309 720 l 1,0,-1
EndSplineSet
Validated: 33
EndChar

StartChar: agrave
Encoding: 224 224 145
Width: 674
GlyphClass: 2
Flags: W
LayerCount: 2
Fore
SplineSet
357 622 m 2,0,-1
 266 681 l 2,1,2
 254 690 254 690 250 703 c 0,3,4
 247 717 247 717 255 731 c 0,5,6
 263 743 263 743 278 746 c 0,7,8
 291 749 291 749 305 741 c 2,9,-1
 396 682 l 2,10,11
 408 673 408 673 412 659 c 0,12,13
 415 647 415 647 407 633 c 0,14,15
 400 620 400 620 384 617 c 0,16,17
 371 614 371 614 357 622 c 2,0,-1
546 378 m 1,18,-1
 443 481 l 1,19,-1
 208 481 l 2,20,21
 195 481 195 481 182 491 c 1,22,23
 172 504 172 504 172 517 c 0,24,25
 172 531 172 531 182 541 c 0,26,27
 193 552 193 552 208 552 c 2,28,-1
 457 552 l 2,29,30
 473 552 473 552 483 542 c 2,31,-1
 606 418 l 2,32,33
 616 408 616 408 617 393 c 2,34,-1
 617 35 l 2,35,36
 617 19 617 19 606 11 c 1,37,38
 598 0 598 0 581 0 c 2,39,-1
 203 0 l 2,40,41
 188 0 188 0 176 12 c 2,42,-1
 67 128 l 2,43,44
 58 139 58 139 58 153 c 128,-1,45
 58 167 58 167 68 177 c 2,46,-1
 189 298 l 2,47,48
 197 307 197 307 214 309 c 2,49,-1
 546 309 l 1,50,-1
 546 378 l 1,18,-1
229 242 m 1,51,-1
 142 155 l 1,52,-1
 218 75 l 1,53,-1
 546 75 l 1,54,-1
 546 242 l 1,55,-1
 229 242 l 1,51,-1
EndSplineSet
Validated: 1
EndChar

StartChar: aacute
Encoding: 225 225 146
Width: 674
GlyphClass: 2
Flags: W
LayerCount: 2
Fore
SplineSet
323 596 m 2,0,1
 309 588 309 588 296 591 c 0,2,3
 280 594 280 594 273 607 c 0,4,5
 265 621 265 621 268 633 c 0,6,7
 272 647 272 647 284 656 c 2,8,-1
 375 715 l 2,9,10
 389 723 389 723 402 720 c 0,11,12
 417 717 417 717 425 705 c 0,13,14
 433 691 433 691 430 677 c 0,15,16
 427 662 427 662 414 655 c 2,17,-1
 323 596 l 2,0,1
546 378 m 1,18,-1
 443 481 l 1,19,-1
 208 481 l 2,20,21
 195 481 195 481 182 491 c 1,22,23
 172 504 172 504 172 517 c 0,24,25
 172 531 172 531 182 541 c 0,26,27
 193 552 193 552 208 552 c 2,28,-1
 457 552 l 2,29,30
 473 552 473 552 483 542 c 2,31,-1
 606 418 l 2,32,33
 616 408 616 408 617 393 c 2,34,-1
 617 35 l 2,35,36
 617 19 617 19 606 11 c 1,37,38
 598 0 598 0 581 0 c 2,39,-1
 203 0 l 2,40,41
 188 0 188 0 176 12 c 2,42,-1
 67 128 l 2,43,44
 58 139 58 139 58 153 c 128,-1,45
 58 167 58 167 68 177 c 2,46,-1
 189 298 l 2,47,48
 197 307 197 307 214 309 c 2,49,-1
 546 309 l 1,50,-1
 546 378 l 1,18,-1
229 242 m 1,51,-1
 142 155 l 1,52,-1
 218 75 l 1,53,-1
 546 75 l 1,54,-1
 546 242 l 1,55,-1
 229 242 l 1,51,-1
EndSplineSet
Validated: 1
EndChar

StartChar: acircumflex
Encoding: 226 226 147
Width: 674
GlyphClass: 2
Flags: W
LayerCount: 2
Fore
SplineSet
401 611 m 2,0,-1
 337 656 l 2,1,2
 324 664 324 664 320 677 c 0,3,4
 317 691 317 691 324 705 c 0,5,6
 332 717 332 717 346 722 c 0,7,8
 357 726 357 726 373 718 c 2,9,-1
 437 674 l 2,10,11
 450 666 450 666 454 652 c 0,12,13
 459 637 459 637 450 625 c 0,14,15
 445 613 445 613 428 608 c 0,16,17
 414 604 414 604 401 611 c 2,0,-1
306 611 m 2,18,19
 293 604 293 604 278 608 c 0,20,21
 264 613 264 613 256 625 c 0,22,23
 248 639 248 639 253 651 c 0,24,25
 257 666 257 666 270 674 c 2,26,-1
 334 718 l 2,27,28
 348 726 348 726 361 721 c 0,29,30
 376 718 376 718 382 705 c 0,31,32
 391 692 391 692 386 677 c 0,33,34
 382 664 382 664 369 656 c 2,35,-1
 306 611 l 2,18,19
546 378 m 1,36,-1
 443 481 l 1,37,-1
 208 481 l 2,38,39
 195 481 195 481 182 491 c 1,40,41
 172 504 172 504 172 517 c 0,42,43
 172 531 172 531 182 541 c 0,44,45
 193 552 193 552 208 552 c 2,46,-1
 457 552 l 2,47,48
 473 552 473 552 483 542 c 2,49,-1
 606 418 l 2,50,51
 616 408 616 408 617 393 c 2,52,-1
 617 35 l 2,53,54
 617 19 617 19 606 11 c 1,55,56
 598 0 598 0 581 0 c 2,57,-1
 203 0 l 2,58,59
 188 0 188 0 176 12 c 2,60,-1
 67 128 l 2,61,62
 58 139 58 139 58 153 c 128,-1,63
 58 167 58 167 68 177 c 2,64,-1
 189 298 l 2,65,66
 197 307 197 307 214 309 c 2,67,-1
 546 309 l 1,68,-1
 546 378 l 1,36,-1
229 242 m 1,69,-1
 142 155 l 1,70,-1
 218 75 l 1,71,-1
 546 75 l 1,72,-1
 546 242 l 1,73,-1
 229 242 l 1,69,-1
EndSplineSet
Validated: 5
EndChar

StartChar: atilde
Encoding: 227 227 148
Width: 674
GlyphClass: 2
Flags: W
LayerCount: 2
Fore
SplineSet
236 595 m 2,0,1
 223 590 223 590 208 593 c 0,2,3
 194 599 194 599 188 611 c 0,4,5
 181 624 181 624 186 639 c 0,6,7
 191 653 191 653 205 660 c 2,8,-1
 286 699 l 2,9,10
 302 706 302 706 317 699 c 2,11,-1
 383 667 l 1,12,-1
 449 699 l 2,13,14
 462 704 462 704 476 701 c 0,15,16
 491 694 491 694 498 683 c 0,17,18
 504 670 504 670 499 655 c 0,19,20
 494 641 494 641 481 635 c 2,21,-1
 399 595 l 2,22,23
 383 588 383 588 368 595 c 2,24,-1
 302 627 l 1,25,-1
 236 595 l 2,0,1
546 378 m 1,26,-1
 443 481 l 1,27,-1
 208 481 l 2,28,29
 195 481 195 481 182 491 c 1,30,31
 172 504 172 504 172 517 c 0,32,33
 172 531 172 531 182 541 c 0,34,35
 193 552 193 552 208 552 c 2,36,-1
 457 552 l 2,37,38
 473 552 473 552 483 542 c 2,39,-1
 606 418 l 2,40,41
 616 408 616 408 617 393 c 2,42,-1
 617 35 l 2,43,44
 617 19 617 19 606 11 c 1,45,46
 598 0 598 0 581 0 c 2,47,-1
 203 0 l 2,48,49
 188 0 188 0 176 12 c 2,50,-1
 67 128 l 2,51,52
 58 139 58 139 58 153 c 128,-1,53
 58 167 58 167 68 177 c 2,54,-1
 189 298 l 2,55,56
 197 307 197 307 214 309 c 2,57,-1
 546 309 l 1,58,-1
 546 378 l 1,26,-1
229 242 m 1,59,-1
 142 155 l 1,60,-1
 218 75 l 1,61,-1
 546 75 l 1,62,-1
 546 242 l 1,63,-1
 229 242 l 1,59,-1
EndSplineSet
Validated: 1
EndChar

StartChar: adieresis
Encoding: 228 228 149
Width: 674
GlyphClass: 2
Flags: W
LayerCount: 2
Fore
SplineSet
284 636 m 2,0,1
 284 629 284 629 278 623 c 0,2,3
 273 618 273 618 266 618 c 2,4,-1
 206 618 l 2,5,6
 199 618 199 618 194 623 c 0,7,8
 188 629 188 629 188 636 c 2,9,-1
 188 696 l 2,10,11
 188 704 188 704 194 708 c 0,12,13
 199 713 199 713 206 713 c 2,14,-1
 266 713 l 2,15,16
 273 713 273 713 278 708 c 0,17,18
 284 704 284 704 284 696 c 2,19,-1
 284 636 l 2,0,1
248 654 m 1,20,-1
 248 678 l 1,21,-1
 224 678 l 1,22,-1
 224 654 l 1,23,-1
 248 654 l 1,20,-1
545 636 m 2,24,25
 545 631 545 631 540 623 c 1,26,27
 532 618 532 618 527 618 c 2,28,-1
 467 618 l 2,29,30
 462 618 462 618 454 623 c 1,31,32
 449 631 449 631 449 636 c 2,33,-1
 449 695 l 2,34,35
 449 702 449 702 454 707 c 0,36,37
 460 713 460 713 467 713 c 2,38,-1
 527 713 l 2,39,40
 532 713 532 713 540 708 c 0,41,42
 545 703 545 703 545 695 c 2,43,-1
 545 636 l 2,24,25
510 654 m 1,44,-1
 510 678 l 1,45,-1
 485 678 l 1,46,-1
 485 654 l 1,47,-1
 510 654 l 1,44,-1
546 378 m 1,48,-1
 443 481 l 1,49,-1
 208 481 l 2,50,51
 195 481 195 481 182 491 c 1,52,53
 172 504 172 504 172 517 c 0,54,55
 172 531 172 531 182 541 c 0,56,57
 193 552 193 552 208 552 c 2,58,-1
 457 552 l 2,59,60
 473 552 473 552 483 542 c 2,61,-1
 606 418 l 2,62,63
 616 408 616 408 617 393 c 2,64,-1
 617 35 l 2,65,66
 617 19 617 19 606 11 c 1,67,68
 598 0 598 0 581 0 c 2,69,-1
 203 0 l 2,70,71
 188 0 188 0 176 12 c 2,72,-1
 67 128 l 2,73,74
 58 139 58 139 58 153 c 128,-1,75
 58 167 58 167 68 177 c 2,76,-1
 189 298 l 2,77,78
 197 307 197 307 214 309 c 2,79,-1
 546 309 l 1,80,-1
 546 378 l 1,48,-1
229 242 m 1,81,-1
 142 155 l 1,82,-1
 218 75 l 1,83,-1
 546 75 l 1,84,-1
 546 242 l 1,85,-1
 229 242 l 1,81,-1
EndSplineSet
Validated: 1
EndChar

StartChar: aring
Encoding: 229 229 150
Width: 674
GlyphClass: 2
Flags: W
LayerCount: 2
Fore
SplineSet
385 749 m 2,0,-1
 438 696 l 2,1,2
 446 688 446 688 446 676 c 0,3,4
 446 666 446 666 438 655 c 2,5,-1
 384 601 l 2,6,7
 376 593 376 593 364 593 c 0,8,9
 351 593 351 593 343 601 c 2,10,-1
 290 655 l 2,11,12
 281 664 281 664 281 675 c 0,13,14
 281 687 281 687 290 696 c 2,15,-1
 344 749 l 2,16,17
 352 757 352 757 364 757 c 0,18,19
 377 757 377 757 385 749 c 2,0,-1
364 688 m 1,20,-1
 351 675 l 1,21,-1
 363 663 l 1,22,-1
 376 676 l 1,23,-1
 364 688 l 1,20,-1
546 378 m 1,24,-1
 443 481 l 1,25,-1
 208 481 l 2,26,27
 195 481 195 481 182 491 c 1,28,29
 172 504 172 504 172 517 c 0,30,31
 172 531 172 531 182 541 c 0,32,33
 193 552 193 552 208 552 c 2,34,-1
 457 552 l 2,35,36
 473 552 473 552 483 542 c 2,37,-1
 606 418 l 2,38,39
 616 408 616 408 617 393 c 2,40,-1
 617 35 l 2,41,42
 617 19 617 19 606 11 c 1,43,44
 598 0 598 0 581 0 c 2,45,-1
 203 0 l 2,46,47
 188 0 188 0 176 12 c 2,48,-1
 67 128 l 2,49,50
 58 139 58 139 58 153 c 128,-1,51
 58 167 58 167 68 177 c 2,52,-1
 189 298 l 2,53,54
 197 307 197 307 214 309 c 2,55,-1
 546 309 l 1,56,-1
 546 378 l 1,24,-1
229 242 m 1,57,-1
 142 155 l 1,58,-1
 218 75 l 1,59,-1
 546 75 l 1,60,-1
 546 242 l 1,61,-1
 229 242 l 1,57,-1
EndSplineSet
Validated: 1
EndChar

StartChar: ae
Encoding: 230 230 151
Width: 1067
GlyphClass: 2
Flags: W
LayerCount: 2
Fore
SplineSet
577 78 m 1,0,-1
 577 38 l 2,1,2
 577 22 577 22 565 11 c 0,3,4
 554 0 554 0 539 0 c 2,5,-1
 192 0 l 2,6,7
 175 0 175 0 163 12 c 2,8,-1
 45 142 l 2,9,10
 34 153 34 153 35 168 c 0,11,12
 35 184 35 184 46 195 c 2,13,-1
 177 326 l 2,14,15
 188 337 188 337 204 337 c 2,16,-1
 500 337 l 1,17,-1
 500 411 l 1,18,-1
 389 522 l 1,19,-1
 191 522 l 2,20,21
 175 522 175 522 163 534 c 0,22,23
 152 545 152 545 152 560 c 0,24,25
 152 574 152 574 163 588 c 1,26,27
 177 599 177 599 191 599 c 2,28,-1
 404 599 l 2,29,30
 418 599 418 599 432 588 c 2,31,-1
 536 483 l 1,32,-1
 639 586 l 2,33,34
 650 597 650 597 666 597 c 2,35,-1
 877 597 l 2,36,37
 893 597 893 597 904 586 c 2,38,-1
 1031 459 l 2,39,40
 1042 448 1042 448 1042 432 c 2,41,-1
 1042 301 l 2,42,43
 1042 285 1042 285 1031 274 c 0,44,45
 1020 262 1020 262 1004 262 c 2,46,-1
 578 262 l 1,47,-1
 578 186 l 1,48,-1
 687 77 l 1,49,-1
 873 77 l 2,50,51
 887 77 887 77 901 66 c 1,52,53
 912 52 912 52 912 38 c 0,54,55
 912 22 912 22 901 11 c 0,56,57
 887 0 887 0 873 0 c 2,58,-1
 671 0 l 2,59,60
 655 0 655 0 644 11 c 2,61,-1
 577 78 l 1,0,-1
500 260 m 1,62,-1
 220 260 l 1,63,-1
 126 167 l 1,64,-1
 208 77 l 1,65,-1
 500 77 l 1,66,-1
 500 260 l 1,62,-1
578 339 m 1,67,-1
 966 339 l 1,68,-1
 966 416 l 1,69,-1
 861 521 l 1,70,-1
 682 521 l 1,71,-1
 578 417 l 1,72,-1
 578 339 l 1,67,-1
EndSplineSet
Validated: 1
EndChar

StartChar: ccedilla
Encoding: 231 231 152
Width: 674
GlyphClass: 2
Flags: W
LayerCount: 2
Fore
SplineSet
352 -185 m 2,0,1
 336 -185 336 -185 325 -196 c 128,-1,2
 314 -207 314 -207 314 -223 c 128,-1,3
 314 -239 314 -239 325 -250 c 128,-1,4
 336 -261 336 -261 352 -261 c 2,5,-1
 432 -261 l 2,6,7
 448 -261 448 -261 459 -250 c 2,8,-1
 497 -213 l 2,9,10
 508 -202 508 -202 508 -186 c 2,11,-1
 508 -130 l 2,12,13
 508 -114 508 -114 497 -103 c 2,14,-1
 451 -57 l 2,15,16
 440 -46 440 -46 424 -46 c 2,17,-1
 390 -46 l 1,18,-1
 390 -30 l 2,19,20
 390 -14 390 -14 379 -3 c 0,21,22
 368 9 368 9 352 9 c 128,-1,23
 336 9 336 9 325 -3 c 0,24,25
 314 -14 314 -14 314 -30 c 2,26,-1
 314 -84 l 2,27,28
 314 -100 314 -100 325 -111 c 128,-1,29
 336 -122 336 -122 352 -122 c 2,30,-1
 408 -122 l 1,31,-1
 431 -146 l 1,32,-1
 431 -170 l 1,33,-1
 417 -185 l 1,34,-1
 352 -185 l 2,0,1
129 379 m 1,35,-1
 129 164 l 1,36,-1
 222 71 l 1,37,-1
 582 71 l 2,38,39
 596 71 596 71 606 61 c 0,40,41
 617 50 617 50 617 35 c 0,42,43
 617 21 617 21 606 10 c 0,44,45
 597 0 597 0 582 0 c 2,46,-1
 207 0 l 2,47,48
 192 0 192 0 182 10 c 2,49,-1
 68 125 l 2,50,51
 58 135 58 135 57 150 c 2,52,-1
 57 394 l 1,53,-1
 58 396 l 2,54,55
 58 397 58 397 58.5 399 c 128,-1,56
 59 401 59 401 59 403 c 0,57,58
 60 412 60 412 68 420 c 2,59,-1
 193 543 l 2,60,61
 203 553 203 553 219 553 c 2,62,-1
 582 553 l 2,63,64
 596 553 596 553 607 543 c 0,65,66
 617 533 617 533 617 517 c 0,67,68
 617 503 617 503 606 492 c 0,69,70
 597 482 597 482 582 482 c 2,71,-1
 233 482 l 1,72,-1
 129 379 l 1,35,-1
EndSplineSet
Validated: 5
EndChar

StartChar: egrave
Encoding: 232 232 153
Width: 675
GlyphClass: 2
Flags: W
LayerCount: 2
Fore
SplineSet
351 622 m 2,0,-1
 260 681 l 2,1,2
 248 690 248 690 244 703 c 0,3,4
 241 717 241 717 249 731 c 0,5,6
 257 743 257 743 272 746 c 0,7,8
 285 749 285 749 299 741 c 2,9,-1
 390 682 l 2,10,11
 402 673 402 673 406 659 c 0,12,13
 409 647 409 647 401 633 c 0,14,15
 394 620 394 620 378 617 c 0,16,17
 365 614 365 614 351 622 c 2,0,-1
59 400 m 2,18,19
 59 415 59 415 69 425 c 2,20,-1
 186 542 l 2,21,22
 196 552 196 552 211 552 c 2,23,-1
 465 552 l 2,24,25
 480 552 480 552 490 542 c 2,26,-1
 608 424 l 2,27,28
 618 414 618 414 618 399 c 2,29,-1
 618 274 l 2,30,31
 618 259 618 259 608 249 c 0,32,33
 597 238 597 238 582 238 c 2,34,-1
 130 238 l 1,35,-1
 130 172 l 1,36,-1
 231 71 l 1,37,-1
 460 71 l 2,38,39
 474 71 474 71 485 61 c 0,40,41
 495 51 495 51 495 36 c 0,42,43
 495 19 495 19 484 11 c 1,44,45
 476 0 476 0 460 0 c 2,46,-1
 216 0 l 2,47,48
 200 0 200 0 190 10 c 2,49,-1
 69 132 l 2,50,51
 59 142 59 142 59 157 c 2,52,-1
 59 269 l 1,53,-1
 58 278 l 2,54,55
 57 279 57 279 59 287 c 2,56,-1
 59 400 l 2,18,19
548 312 m 1,57,-1
 548 387 l 1,58,-1
 452 484 l 1,59,-1
 227 484 l 1,60,-1
 131 388 l 1,61,-1
 131 312 l 1,62,-1
 548 312 l 1,57,-1
EndSplineSet
Validated: 1
EndChar

StartChar: eacute
Encoding: 233 233 154
Width: 675
GlyphClass: 2
Flags: W
LayerCount: 2
Fore
SplineSet
365 633 m 2,0,1
 351 625 351 625 338 628 c 0,2,3
 323 631 323 631 315 643 c 0,4,5
 307 657 307 657 310 671 c 0,6,7
 314 684 314 684 326 693 c 2,8,-1
 417 752 l 2,9,10
 431 760 431 760 444 757 c 0,11,12
 460 754 460 754 467 741 c 0,13,14
 475 727 475 727 472 715 c 0,15,16
 469 699 469 699 456 692 c 2,17,-1
 365 633 l 2,0,1
59 400 m 2,18,19
 59 415 59 415 69 425 c 2,20,-1
 186 542 l 2,21,22
 196 552 196 552 211 552 c 2,23,-1
 465 552 l 2,24,25
 480 552 480 552 490 542 c 2,26,-1
 608 424 l 2,27,28
 618 414 618 414 618 399 c 2,29,-1
 618 274 l 2,30,31
 618 259 618 259 608 249 c 0,32,33
 597 238 597 238 582 238 c 2,34,-1
 130 238 l 1,35,-1
 130 172 l 1,36,-1
 231 71 l 1,37,-1
 460 71 l 2,38,39
 474 71 474 71 485 61 c 0,40,41
 495 51 495 51 495 36 c 0,42,43
 495 19 495 19 484 11 c 1,44,45
 476 0 476 0 460 0 c 2,46,-1
 216 0 l 2,47,48
 200 0 200 0 190 10 c 2,49,-1
 69 132 l 2,50,51
 59 142 59 142 59 157 c 2,52,-1
 59 269 l 1,53,-1
 58 278 l 2,54,55
 57 279 57 279 59 287 c 2,56,-1
 59 400 l 2,18,19
548 312 m 1,57,-1
 548 387 l 1,58,-1
 452 484 l 1,59,-1
 227 484 l 1,60,-1
 131 388 l 1,61,-1
 131 312 l 1,62,-1
 548 312 l 1,57,-1
EndSplineSet
Validated: 1
EndChar

StartChar: ecircumflex
Encoding: 234 234 155
Width: 675
GlyphClass: 2
Flags: W
LayerCount: 2
Fore
SplineSet
382 620 m 2,0,-1
 318 665 l 2,1,2
 305 672 305 672 302 687 c 0,3,4
 297 701 297 701 306 714 c 0,5,6
 311 727 311 727 327 731 c 0,7,8
 338 735 338 735 354 727 c 2,9,-1
 418 683 l 2,10,11
 431 675 431 675 435 661 c 0,12,13
 439 648 439 648 432 633 c 0,14,15
 423 621 423 621 410 617 c 0,16,17
 395 613 395 613 382 620 c 2,0,-1
287 620 m 2,18,19
 274 612 274 612 260 617 c 0,20,21
 245 621 245 621 238 633 c 0,22,23
 229 646 229 646 234 661 c 0,24,25
 238 675 238 675 251 683 c 2,26,-1
 315 727 l 2,27,28
 328 734 328 734 342 731 c 0,29,30
 356 726 356 726 364 714 c 0,31,32
 372 699 372 699 367 687 c 0,33,34
 363 673 363 673 350 665 c 2,35,-1
 287 620 l 2,18,19
59 400 m 2,36,37
 59 415 59 415 69 425 c 2,38,-1
 186 542 l 2,39,40
 196 552 196 552 211 552 c 2,41,-1
 465 552 l 2,42,43
 480 552 480 552 490 542 c 2,44,-1
 608 424 l 2,45,46
 618 414 618 414 618 399 c 2,47,-1
 618 274 l 2,48,49
 618 259 618 259 608 249 c 0,50,51
 597 238 597 238 582 238 c 2,52,-1
 130 238 l 1,53,-1
 130 172 l 1,54,-1
 231 71 l 1,55,-1
 460 71 l 2,56,57
 474 71 474 71 485 61 c 0,58,59
 495 51 495 51 495 36 c 0,60,61
 495 19 495 19 484 11 c 1,62,63
 476 0 476 0 460 0 c 2,64,-1
 216 0 l 2,65,66
 200 0 200 0 190 10 c 2,67,-1
 69 132 l 2,68,69
 59 142 59 142 59 157 c 2,70,-1
 59 269 l 1,71,-1
 58 278 l 2,72,73
 57 279 57 279 59 287 c 2,74,-1
 59 400 l 2,36,37
548 312 m 1,75,-1
 548 387 l 1,76,-1
 452 484 l 1,77,-1
 227 484 l 1,78,-1
 131 388 l 1,79,-1
 131 312 l 1,80,-1
 548 312 l 1,75,-1
EndSplineSet
Validated: 5
EndChar

StartChar: edieresis
Encoding: 235 235 156
Width: 675
GlyphClass: 2
Flags: W
LayerCount: 2
Fore
SplineSet
255 628 m 2,0,1
 255 623 255 623 250 615 c 1,2,3
 242 610 242 610 237 610 c 2,4,-1
 177 610 l 2,5,6
 172 610 172 610 164 615 c 1,7,8
 159 623 159 623 159 628 c 2,9,-1
 159 688 l 2,10,11
 159 695 159 695 164 700 c 0,12,13
 172 705 172 705 177 705 c 2,14,-1
 237 705 l 2,15,16
 242 705 242 705 250 700 c 0,17,18
 255 695 255 695 255 688 c 2,19,-1
 255 628 l 2,0,1
219 646 m 1,20,-1
 219 670 l 1,21,-1
 195 670 l 1,22,-1
 195 646 l 1,23,-1
 219 646 l 1,20,-1
516 628 m 2,24,25
 516 621 516 621 510 615 c 0,26,27
 505 610 505 610 498 610 c 2,28,-1
 438 610 l 2,29,30
 431 610 431 610 426 615 c 0,31,32
 420 621 420 621 420 628 c 2,33,-1
 420 687 l 2,34,35
 420 694 420 694 426 699 c 0,36,37
 430 705 430 705 438 705 c 2,38,-1
 498 705 l 2,39,40
 505 705 505 705 510 700 c 0,41,42
 516 696 516 696 516 687 c 2,43,-1
 516 628 l 2,24,25
481 646 m 1,44,-1
 481 670 l 1,45,-1
 456 670 l 1,46,-1
 456 646 l 1,47,-1
 481 646 l 1,44,-1
59 400 m 2,48,49
 59 415 59 415 69 425 c 2,50,-1
 186 542 l 2,51,52
 196 552 196 552 211 552 c 2,53,-1
 465 552 l 2,54,55
 480 552 480 552 490 542 c 2,56,-1
 608 424 l 2,57,58
 618 414 618 414 618 399 c 2,59,-1
 618 274 l 2,60,61
 618 259 618 259 608 249 c 0,62,63
 597 238 597 238 582 238 c 2,64,-1
 130 238 l 1,65,-1
 130 172 l 1,66,-1
 231 71 l 1,67,-1
 460 71 l 2,68,69
 474 71 474 71 485 61 c 0,70,71
 495 51 495 51 495 36 c 0,72,73
 495 19 495 19 484 11 c 1,74,75
 476 0 476 0 460 0 c 2,76,-1
 216 0 l 2,77,78
 200 0 200 0 190 10 c 2,79,-1
 69 132 l 2,80,81
 59 142 59 142 59 157 c 2,82,-1
 59 269 l 1,83,-1
 58 278 l 2,84,85
 57 279 57 279 59 287 c 2,86,-1
 59 400 l 2,48,49
548 312 m 1,87,-1
 548 387 l 1,88,-1
 452 484 l 1,89,-1
 227 484 l 1,90,-1
 131 388 l 1,91,-1
 131 312 l 1,92,-1
 548 312 l 1,87,-1
EndSplineSet
Validated: 1
EndChar

StartChar: igrave
Encoding: 236 236 157
Width: 421
GlyphClass: 2
Flags: W
LayerCount: 2
Fore
SplineSet
194 633 m 2,0,-1
 103 692 l 2,1,2
 91 700 91 700 88 715 c 0,3,4
 84 727 84 727 92 741 c 0,5,6
 99 754 99 754 114 757 c 0,7,8
 128 760 128 760 142 752 c 2,9,-1
 233 693 l 2,10,11
 245 685 245 685 248 671 c 0,12,13
 252 658 252 658 244 643 c 0,14,15
 236 631 236 631 221 628 c 0,16,17
 208 625 208 625 194 633 c 2,0,-1
191 73 m 1,18,-1
 191 484 l 1,19,-1
 102 484 l 2,20,21
 87 484 87 484 77 494 c 128,-1,22
 67 504 67 504 67 519 c 0,23,24
 67 535 67 535 77 545 c 0,25,26
 88 555 88 555 102 555 c 2,27,-1
 227 555 l 2,28,29
 241 555 241 555 252 545 c 0,30,31
 262 535 262 535 262 519 c 2,32,-1
 262 73 l 1,33,-1
 337 73 l 2,34,35
 352 73 352 73 362 63 c 0,36,37
 373 52 373 52 373 37 c 0,38,39
 373 21 373 21 362 13 c 1,40,41
 354 2 354 2 337 2 c 2,42,-1
 102 2 l 2,43,44
 88 2 88 2 77 13 c 0,45,46
 67 22 67 22 67 37 c 0,47,48
 67 53 67 53 77 63 c 0,49,50
 88 73 88 73 102 73 c 2,51,-1
 191 73 l 1,18,-1
EndSplineSet
Validated: 1
EndChar

StartChar: iacute
Encoding: 237 237 158
Width: 421
GlyphClass: 2
Flags: W
LayerCount: 2
Fore
SplineSet
178 634 m 2,0,1
 164 626 164 626 151 629 c 0,2,3
 136 632 136 632 128 644 c 0,4,5
 120 659 120 659 124 672 c 0,6,7
 127 686 127 686 139 694 c 2,8,-1
 230 753 l 2,9,10
 244 761 244 761 257 758 c 0,11,12
 273 755 273 755 280 742 c 0,13,14
 288 728 288 728 285 716 c 0,15,16
 282 700 282 700 269 693 c 2,17,-1
 178 634 l 2,0,1
177 74 m 1,18,-1
 177 485 l 1,19,-1
 88 485 l 2,20,21
 73 485 73 485 63 495 c 128,-1,22
 53 505 53 505 53 520 c 0,23,24
 53 536 53 536 63 546 c 0,25,26
 74 556 74 556 88 556 c 2,27,-1
 213 556 l 2,28,29
 227 556 227 556 238 546 c 0,30,31
 248 536 248 536 248 520 c 2,32,-1
 248 74 l 1,33,-1
 323 74 l 2,34,35
 338 74 338 74 348 64 c 0,36,37
 359 53 359 53 359 38 c 0,38,39
 359 22 359 22 348 14 c 1,40,41
 340 3 340 3 323 3 c 2,42,-1
 88 3 l 2,43,44
 74 3 74 3 63 14 c 0,45,46
 53 23 53 23 53 38 c 0,47,48
 53 54 53 54 63 64 c 0,49,50
 74 74 74 74 88 74 c 2,51,-1
 177 74 l 1,18,-1
EndSplineSet
Validated: 1
EndChar

StartChar: icircumflex
Encoding: 238 238 159
Width: 421
GlyphClass: 2
Flags: W
LayerCount: 2
Fore
SplineSet
230 623 m 2,0,-1
 166 668 l 2,1,2
 153 675 153 675 150 689 c 0,3,4
 145 704 145 704 154 717 c 0,5,6
 159 730 159 730 175 734 c 0,7,8
 186 738 186 738 202 730 c 2,9,-1
 266 686 l 2,10,11
 279 678 279 678 283 664 c 0,12,13
 288 650 288 650 280 637 c 0,14,15
 272 625 272 625 258 620 c 0,16,17
 243 616 243 616 230 623 c 2,0,-1
135 623 m 2,18,19
 122 616 122 616 108 620 c 0,20,21
 91 625 91 625 86 637 c 0,22,23
 77 649 77 649 82 663 c 0,24,25
 86 678 86 678 99 686 c 2,26,-1
 163 730 l 2,27,28
 176 738 176 738 190 733 c 0,29,30
 203 730 203 730 212 717 c 0,31,32
 219 702 219 702 215 689 c 128,-1,33
 211 676 211 676 198 668 c 2,34,-1
 135 623 l 2,18,19
209 71 m 1,35,-1
 209 482 l 1,36,-1
 120 482 l 2,37,38
 105 482 105 482 95 492 c 128,-1,39
 85 502 85 502 85 517 c 0,40,41
 85 533 85 533 95 543 c 0,42,43
 106 553 106 553 120 553 c 2,44,-1
 245 553 l 2,45,46
 259 553 259 553 270 543 c 0,47,48
 280 533 280 533 280 517 c 2,49,-1
 280 71 l 1,50,-1
 355 71 l 2,51,52
 370 71 370 71 380 61 c 0,53,54
 391 50 391 50 391 35 c 0,55,56
 391 19 391 19 380 11 c 1,57,58
 372 0 372 0 355 0 c 2,59,-1
 120 0 l 2,60,61
 106 0 106 0 95 11 c 0,62,63
 85 20 85 20 85 35 c 0,64,65
 85 51 85 51 95 61 c 0,66,67
 106 71 106 71 120 71 c 2,68,-1
 209 71 l 1,35,-1
EndSplineSet
Validated: 5
EndChar

StartChar: idieresis
Encoding: 239 239 160
Width: 461
GlyphClass: 2
Flags: W
LayerCount: 2
Fore
SplineSet
140 631 m 2,0,1
 140 624 140 624 134 618 c 0,2,3
 129 613 129 613 122 613 c 2,4,-1
 62 613 l 2,5,6
 55 613 55 613 50 618 c 0,7,8
 44 624 44 624 44 631 c 2,9,-1
 44 691 l 2,10,11
 44 698 44 698 50 703 c 0,12,13
 55 708 55 708 62 708 c 2,14,-1
 122 708 l 2,15,16
 129 708 129 708 134 703 c 0,17,18
 140 698 140 698 140 691 c 2,19,-1
 140 631 l 2,0,1
104 649 m 1,20,-1
 104 673 l 1,21,-1
 80 673 l 1,22,-1
 80 649 l 1,23,-1
 104 649 l 1,20,-1
401 631 m 2,24,25
 401 626 401 626 396 618 c 1,26,27
 388 613 388 613 383 613 c 2,28,-1
 323 613 l 2,29,30
 318 613 318 613 310 618 c 1,31,32
 305 626 305 626 305 631 c 2,33,-1
 305 690 l 2,34,35
 305 697 305 697 310 702 c 0,36,37
 316 708 316 708 323 708 c 2,38,-1
 383 708 l 2,39,40
 388 708 388 708 396 703 c 0,41,42
 401 698 401 698 401 690 c 2,43,-1
 401 631 l 2,24,25
366 649 m 1,44,-1
 366 673 l 1,45,-1
 341 673 l 1,46,-1
 341 649 l 1,47,-1
 366 649 l 1,44,-1
243 74 m 1,48,-1
 243 485 l 1,49,-1
 154 485 l 2,50,51
 139 485 139 485 129 495 c 128,-1,52
 119 505 119 505 119 520 c 0,53,54
 119 536 119 536 129 546 c 0,55,56
 140 556 140 556 154 556 c 2,57,-1
 279 556 l 2,58,59
 293 556 293 556 304 546 c 0,60,61
 314 536 314 536 314 520 c 2,62,-1
 314 74 l 1,63,-1
 389 74 l 2,64,65
 404 74 404 74 414 64 c 0,66,67
 425 53 425 53 425 38 c 0,68,69
 425 22 425 22 414 14 c 1,70,71
 406 3 406 3 389 3 c 2,72,-1
 154 3 l 2,73,74
 140 3 140 3 129 14 c 0,75,76
 119 23 119 23 119 38 c 0,77,78
 119 54 119 54 129 64 c 0,79,80
 140 74 140 74 154 74 c 2,81,-1
 243 74 l 1,48,-1
EndSplineSet
Validated: 1
EndChar

StartChar: eth
Encoding: 240 240 161
Width: 674
GlyphClass: 2
Flags: W
LayerCount: 2
Fore
SplineSet
621 377 m 2,0,-1
 621 167 l 2,1,2
 621 152 621 152 611 142 c 2,3,-1
 481 12 l 2,4,5
 471 2 471 2 456 2 c 2,6,-1
 227 2 l 2,7,8
 211 2 211 2 201 12 c 2,9,-1
 72 142 l 2,10,11
 62 152 62 152 61 167 c 2,12,-1
 61 389 l 2,13,14
 61 403 61 403 72 414 c 2,15,-1
 201 544 l 2,16,17
 211 554 211 554 227 554 c 2,18,-1
 445 554 l 1,19,-1
 407 621 l 1,20,-1
 342 597 l 2,21,22
 324 592 324 592 315 599 c 0,23,24
 301 605 301 605 296 619 c 128,-1,25
 291 633 291 633 297 646 c 0,26,27
 304 659 304 659 318 665 c 2,28,-1
 370 684 l 1,29,-1
 337 741 l 2,30,31
 330 754 330 754 334 768 c 0,32,33
 338 784 338 784 351 789 c 0,34,35
 363 798 363 798 377 793 c 0,36,37
 391 789 391 789 400 777 c 2,38,-1
 439 709 l 1,39,-1
 512 735 l 2,40,41
 528 740 528 740 539 734 c 0,42,43
 553 728 553 728 558 714 c 0,44,45
 563 698 563 698 557 687 c 0,46,47
 550 672 550 672 537 668 c 2,48,-1
 475 646 l 1,49,-1
 606 419 l 1,50,-1
 611 414 l 2,51,52
 621 404 621 404 621 389 c 2,53,-1
 621 387 l 2,54,55
 623 382 623 382 621 377 c 2,0,-1
548 377 m 1,56,-1
 441 483 l 1,57,-1
 305 483 l 1,58,-1
 242 483 l 1,59,-1
 133 374 l 1,60,-1
 133 182 l 1,61,-1
 242 73 l 1,62,-1
 377 73 l 1,63,-1
 441 73 l 1,64,-1
 550 182 l 1,65,-1
 550 372 l 1,66,-1
 548 377 l 1,56,-1
EndSplineSet
Validated: 1
EndChar

StartChar: ntilde
Encoding: 241 241 162
Width: 674
GlyphClass: 2
Flags: W
LayerCount: 2
Fore
SplineSet
231 619 m 2,0,1
 216 612 216 612 204 618 c 0,2,3
 189 621 189 621 182 636 c 0,4,5
 176 647 176 647 181 663 c 0,6,7
 186 677 186 677 200 684 c 2,8,-1
 281 723 l 2,9,10
 297 730 297 730 312 723 c 2,11,-1
 378 691 l 1,12,-1
 444 723 l 2,13,14
 457 729 457 729 472 724 c 0,15,16
 486 721 486 721 492 706 c 0,17,18
 499 697 499 697 494 679 c 0,19,20
 489 665 489 665 476 659 c 2,21,-1
 394 619 l 2,22,23
 378 612 378 612 363 619 c 2,24,-1
 297 651 l 1,25,-1
 231 619 l 2,0,1
93 0 m 128,-1,27
 78 0 78 0 68 10 c 0,28,29
 57 21 57 21 57 36 c 2,30,-1
 57 517 l 2,31,32
 57 531 57 531 68 542 c 0,33,34
 78 552 78 552 93 553 c 2,35,-1
 452 552 l 2,36,37
 467 552 467 552 477 542 c 2,38,-1
 606 412 l 2,39,40
 616 402 616 402 617 387 c 2,41,-1
 617 36 l 2,42,43
 617 21 617 21 606 10 c 0,44,45
 596 0 596 0 581 0 c 0,46,47
 569 0 569 0 556 10 c 1,48,49
 546 23 546 23 546 36 c 2,50,-1
 546 372 l 1,51,-1
 437 481 l 1,52,-1
 129 481 l 1,53,-1
 129 36 l 2,54,55
 129 21 129 21 118 10 c 0,56,26
 108 0 108 0 93 0 c 128,-1,27
EndSplineSet
Validated: 1
EndChar

StartChar: ograve
Encoding: 242 242 163
Width: 674
GlyphClass: 2
Flags: W
LayerCount: 2
Fore
SplineSet
374 618 m 2,0,-1
 283 677 l 2,1,2
 271 685 271 685 268 699 c 0,3,4
 264 712 264 712 272 727 c 0,5,6
 280 739 280 739 294 742 c 128,-1,7
 308 745 308 745 322 737 c 2,8,-1
 413 678 l 2,9,10
 425 670 425 670 428 655 c 0,11,12
 432 643 432 643 424 629 c 0,13,14
 417 616 417 616 401 613 c 0,15,16
 388 610 388 610 374 618 c 2,0,-1
57 387 m 2,17,18
 57 399 57 399 68 413 c 2,19,-1
 197 543 l 2,20,21
 207 553 207 553 223 553 c 2,22,-1
 452 553 l 2,23,24
 467 553 467 553 477 543 c 2,25,-1
 608 413 l 2,26,27
 618 403 618 403 618 387 c 2,28,-1
 618 166 l 2,29,30
 618 151 618 151 608 141 c 2,31,-1
 477 10 l 2,32,33
 467 0 467 0 452 0 c 2,34,-1
 223 0 l 2,35,36
 207 0 207 0 197 10 c 2,37,-1
 68 141 l 2,38,39
 58 151 58 151 57 166 c 2,40,-1
 57 387 l 2,17,18
238 482 m 1,41,-1
 129 373 l 1,42,-1
 129 180 l 1,43,-1
 238 71 l 1,44,-1
 373 71 l 1,45,-1
 437 71 l 1,46,-1
 546 180 l 1,47,-1
 546 373 l 1,48,-1
 437 482 l 1,49,-1
 301 482 l 1,50,-1
 238 482 l 1,41,-1
EndSplineSet
Validated: 1
EndChar

StartChar: oacute
Encoding: 243 243 164
Width: 674
GlyphClass: 2
Flags: W
LayerCount: 2
Fore
SplineSet
336 612 m 2,0,1
 322 604 322 604 309 607 c 0,2,3
 293 610 293 610 286 623 c 0,4,5
 278 637 278 637 282 649 c 0,6,7
 285 664 285 664 297 672 c 2,8,-1
 388 731 l 2,9,10
 402 739 402 739 415 736 c 0,11,12
 430 733 430 733 438 721 c 0,13,14
 446 707 446 707 443 693 c 0,15,16
 440 678 440 678 427 671 c 2,17,-1
 336 612 l 2,0,1
57 387 m 2,18,19
 57 399 57 399 68 413 c 2,20,-1
 197 543 l 2,21,22
 207 553 207 553 223 553 c 2,23,-1
 452 553 l 2,24,25
 467 553 467 553 477 543 c 2,26,-1
 608 413 l 2,27,28
 618 403 618 403 618 387 c 2,29,-1
 618 166 l 2,30,31
 618 151 618 151 608 141 c 2,32,-1
 477 10 l 2,33,34
 467 0 467 0 452 0 c 2,35,-1
 223 0 l 2,36,37
 207 0 207 0 197 10 c 2,38,-1
 68 141 l 2,39,40
 58 151 58 151 57 166 c 2,41,-1
 57 387 l 2,18,19
238 482 m 1,42,-1
 129 373 l 1,43,-1
 129 180 l 1,44,-1
 238 71 l 1,45,-1
 373 71 l 1,46,-1
 437 71 l 1,47,-1
 546 180 l 1,48,-1
 546 373 l 1,49,-1
 437 482 l 1,50,-1
 301 482 l 1,51,-1
 238 482 l 1,42,-1
EndSplineSet
Validated: 1
EndChar

StartChar: ocircumflex
Encoding: 244 244 165
Width: 674
GlyphClass: 2
Flags: W
LayerCount: 2
Fore
SplineSet
385 618 m 2,0,-1
 321 663 l 2,1,2
 308 671 308 671 304 685 c 0,3,4
 301 698 301 698 308 712 c 0,5,6
 316 724 316 724 330 729 c 0,7,8
 341 733 341 733 357 725 c 2,9,-1
 421 681 l 2,10,11
 434 673 434 673 438 659 c 0,12,13
 443 644 443 644 434 631 c 0,14,15
 427 619 427 619 412 615 c 0,16,17
 398 610 398 610 385 618 c 2,0,-1
290 618 m 2,18,19
 277 611 277 611 262 615 c 0,20,21
 249 619 249 619 240 631 c 0,22,23
 233 646 233 646 237 659 c 0,24,25
 241 673 241 673 254 681 c 2,26,-1
 318 725 l 2,27,28
 331 732 331 732 345 729 c 0,29,30
 361 725 361 725 366 712 c 0,31,32
 375 699 375 699 370 685 c 0,33,34
 366 671 366 671 353 663 c 2,35,-1
 290 618 l 2,18,19
57 387 m 2,36,37
 57 399 57 399 68 413 c 2,38,-1
 197 543 l 2,39,40
 207 553 207 553 223 553 c 2,41,-1
 452 553 l 2,42,43
 467 553 467 553 477 543 c 2,44,-1
 608 413 l 2,45,46
 618 403 618 403 618 387 c 2,47,-1
 618 166 l 2,48,49
 618 151 618 151 608 141 c 2,50,-1
 477 10 l 2,51,52
 467 0 467 0 452 0 c 2,53,-1
 223 0 l 2,54,55
 207 0 207 0 197 10 c 2,56,-1
 68 141 l 2,57,58
 58 151 58 151 57 166 c 2,59,-1
 57 387 l 2,36,37
238 482 m 1,60,-1
 129 373 l 1,61,-1
 129 180 l 1,62,-1
 238 71 l 1,63,-1
 373 71 l 1,64,-1
 437 71 l 1,65,-1
 546 180 l 1,66,-1
 546 373 l 1,67,-1
 437 482 l 1,68,-1
 301 482 l 1,69,-1
 238 482 l 1,60,-1
EndSplineSet
Validated: 5
EndChar

StartChar: otilde
Encoding: 245 245 166
Width: 674
GlyphClass: 2
Flags: W
LayerCount: 2
Fore
SplineSet
231 608 m 2,0,1
 216 601 216 601 204 607 c 0,2,3
 189 610 189 610 182 625 c 0,4,5
 176 636 176 636 181 652 c 0,6,7
 186 666 186 666 200 673 c 2,8,-1
 281 712 l 2,9,10
 297 719 297 719 312 712 c 2,11,-1
 378 680 l 1,12,-1
 444 712 l 2,13,14
 457 718 457 718 472 713 c 0,15,16
 486 710 486 710 492 695 c 0,17,18
 499 686 499 686 494 668 c 0,19,20
 489 654 489 654 476 648 c 2,21,-1
 394 608 l 2,22,23
 378 601 378 601 363 608 c 2,24,-1
 297 640 l 1,25,-1
 231 608 l 2,0,1
57 387 m 2,26,27
 57 399 57 399 68 413 c 2,28,-1
 197 543 l 2,29,30
 207 553 207 553 223 553 c 2,31,-1
 452 553 l 2,32,33
 467 553 467 553 477 543 c 2,34,-1
 608 413 l 2,35,36
 618 403 618 403 618 387 c 2,37,-1
 618 166 l 2,38,39
 618 151 618 151 608 141 c 2,40,-1
 477 10 l 2,41,42
 467 0 467 0 452 0 c 2,43,-1
 223 0 l 2,44,45
 207 0 207 0 197 10 c 2,46,-1
 68 141 l 2,47,48
 58 151 58 151 57 166 c 2,49,-1
 57 387 l 2,26,27
238 482 m 1,50,-1
 129 373 l 1,51,-1
 129 180 l 1,52,-1
 238 71 l 1,53,-1
 373 71 l 1,54,-1
 437 71 l 1,55,-1
 546 180 l 1,56,-1
 546 373 l 1,57,-1
 437 482 l 1,58,-1
 301 482 l 1,59,-1
 238 482 l 1,50,-1
EndSplineSet
Validated: 1
EndChar

StartChar: odieresis
Encoding: 246 246 167
Width: 674
GlyphClass: 2
Flags: W
LayerCount: 2
Fore
SplineSet
255 630 m 2,0,1
 255 625 255 625 250 617 c 1,2,3
 242 612 242 612 237 612 c 2,4,-1
 177 612 l 2,5,6
 172 612 172 612 164 617 c 1,7,8
 159 625 159 625 159 630 c 2,9,-1
 159 690 l 2,10,11
 159 697 159 697 164 702 c 0,12,13
 172 707 172 707 177 707 c 2,14,-1
 237 707 l 2,15,16
 242 707 242 707 250 702 c 0,17,18
 255 697 255 697 255 690 c 2,19,-1
 255 630 l 2,0,1
219 648 m 1,20,-1
 219 672 l 1,21,-1
 195 672 l 1,22,-1
 195 648 l 1,23,-1
 219 648 l 1,20,-1
516 630 m 2,24,25
 516 623 516 623 510 617 c 0,26,27
 505 612 505 612 498 612 c 2,28,-1
 438 612 l 2,29,30
 431 612 431 612 426 617 c 0,31,32
 420 623 420 623 420 630 c 2,33,-1
 420 689 l 2,34,35
 420 696 420 696 426 701 c 0,36,37
 430 707 430 707 438 707 c 2,38,-1
 498 707 l 2,39,40
 505 707 505 707 510 702 c 0,41,42
 516 698 516 698 516 689 c 2,43,-1
 516 630 l 2,24,25
481 648 m 1,44,-1
 481 672 l 1,45,-1
 456 672 l 1,46,-1
 456 648 l 1,47,-1
 481 648 l 1,44,-1
57 387 m 2,48,49
 57 399 57 399 68 413 c 2,50,-1
 197 543 l 2,51,52
 207 553 207 553 223 553 c 2,53,-1
 452 553 l 2,54,55
 467 553 467 553 477 543 c 2,56,-1
 608 413 l 2,57,58
 618 403 618 403 618 387 c 2,59,-1
 618 166 l 2,60,61
 618 151 618 151 608 141 c 2,62,-1
 477 10 l 2,63,64
 467 0 467 0 452 0 c 2,65,-1
 223 0 l 2,66,67
 207 0 207 0 197 10 c 2,68,-1
 68 141 l 2,69,70
 58 151 58 151 57 166 c 2,71,-1
 57 387 l 2,48,49
238 482 m 1,72,-1
 129 373 l 1,73,-1
 129 180 l 1,74,-1
 238 71 l 1,75,-1
 373 71 l 1,76,-1
 437 71 l 1,77,-1
 546 180 l 1,78,-1
 546 373 l 1,79,-1
 437 482 l 1,80,-1
 301 482 l 1,81,-1
 238 482 l 1,72,-1
EndSplineSet
Validated: 1
EndChar

StartChar: divide
Encoding: 247 247 168
Width: 465
GlyphClass: 2
Flags: W
LayerCount: 2
Fore
SplineSet
179 706 m 2,0,-1
 291 706 l 2,1,2
 305 706 305 706 314 696 c 0,3,4
 324 686 324 686 324 672 c 2,5,-1
 324 566 l 2,6,7
 324 552 324 552 314 542 c 0,8,9
 305 532 305 532 291 532 c 2,10,-1
 179 532 l 2,11,12
 165 532 165 532 155 542 c 128,-1,13
 145 552 145 552 145 566 c 2,14,-1
 145 672 l 2,15,16
 145 686 145 686 155 696 c 128,-1,17
 165 706 165 706 179 706 c 2,0,-1
212 639 m 1,18,-1
 212 599 l 1,19,-1
 257 599 l 1,20,-1
 257 639 l 1,21,-1
 212 639 l 1,18,-1
179 360 m 2,22,-1
 291 360 l 2,23,24
 305 360 305 360 314 350 c 0,25,26
 324 340 324 340 324 327 c 2,27,-1
 324 220 l 2,28,29
 324 206 324 206 314 196 c 0,30,31
 305 187 305 187 291 187 c 2,32,-1
 179 187 l 2,33,34
 166 187 166 187 155 196 c 0,35,36
 145 206 145 206 145 220 c 2,37,-1
 145 327 l 2,38,39
 145 341 145 341 155 350 c 0,40,41
 165 360 165 360 179 360 c 2,22,-1
212 293 m 1,42,-1
 212 254 l 1,43,-1
 257 254 l 1,44,-1
 257 293 l 1,45,-1
 212 293 l 1,42,-1
64 412 m 2,46,47
 50 412 50 412 40 422 c 0,48,49
 29 433 29 433 29 447 c 0,50,51
 29 462 29 462 39 472 c 0,52,53
 50 482 50 482 64 482 c 2,54,-1
 405 482 l 2,55,56
 417 482 417 482 430 472 c 1,57,58
 440 459 440 459 440 447 c 0,59,60
 440 432 440 432 430 422 c 0,61,62
 419 412 419 412 405 412 c 2,63,-1
 64 412 l 2,46,47
EndSplineSet
Validated: 1
EndChar

StartChar: oslash
Encoding: 248 248 169
Width: 674
GlyphClass: 2
Flags: W
LayerCount: 2
Fore
SplineSet
114 97 m 1,0,-1
 71 141 l 2,1,2
 61 151 61 151 60 166 c 2,3,-1
 60 388 l 2,4,5
 60 402 60 402 71 413 c 2,6,-1
 200 543 l 2,7,8
 210 553 210 553 226 553 c 2,9,-1
 455 553 l 2,10,11
 470 553 470 553 480 543 c 2,12,-1
 517 506 l 1,13,-1
 553 543 l 2,14,15
 563 553 563 553 578 553 c 128,-1,16
 593 553 593 553 603 543 c 128,-1,17
 613 533 613 533 614 518 c 0,18,19
 614 504 614 504 603 493 c 2,20,-1
 567 456 l 1,21,-1
 610 413 l 2,22,23
 620 403 620 403 620 388 c 2,24,-1
 620 166 l 2,25,26
 620 151 620 151 610 141 c 2,27,-1
 480 11 l 2,28,29
 470 1 470 1 455 0 c 2,30,-1
 226 0 l 2,31,32
 211 0 211 0 200 11 c 2,33,-1
 164 47 l 1,34,-1
 128 11 l 2,35,36
 118 1 118 1 104 0 c 0,37,38
 91 0 91 0 78 10 c 1,39,40
 68 23 68 23 68 36 c 0,41,42
 68 50 68 50 78 60 c 2,43,-1
 114 97 l 1,0,-1
467 455 m 1,44,-1
 440 482 l 1,45,-1
 304 482 l 1,46,-1
 241 482 l 1,47,-1
 132 373 l 1,48,-1
 132 180 l 1,49,-1
 164 148 l 1,50,-1
 467 455 l 1,44,-1
214 98 m 1,51,-1
 241 71 l 1,52,-1
 376 71 l 1,53,-1
 440 71 l 1,54,-1
 549 180 l 1,55,-1
 549 373 l 1,56,-1
 517 405 l 1,57,-1
 214 98 l 1,51,-1
EndSplineSet
Validated: 1
EndChar

StartChar: ugrave
Encoding: 249 249 170
Width: 674
GlyphClass: 2
Flags: W
LayerCount: 2
Fore
SplineSet
367 615 m 2,0,-1
 276 674 l 2,1,2
 264 683 264 683 260 697 c 0,3,4
 257 709 257 709 265 723 c 0,5,6
 272 736 272 736 288 739 c 0,7,8
 301 742 301 742 315 734 c 2,9,-1
 406 675 l 2,10,11
 418 666 418 666 422 653 c 0,12,13
 425 639 425 639 417 625 c 0,14,15
 409 613 409 613 394 610 c 0,16,17
 381 607 381 607 367 615 c 2,0,-1
581 552 m 0,18,19
 598 552 598 552 606 541 c 1,20,21
 617 533 617 533 617 517 c 2,22,-1
 617 35 l 2,23,24
 617 21 617 21 606 10 c 0,25,26
 596 0 596 0 581 0 c 2,27,-1
 222 0 l 2,28,29
 207 0 207 0 197 10 c 2,30,-1
 68 140 l 2,31,32
 58 150 58 150 57 165 c 2,33,-1
 57 517 l 2,34,35
 57 531 57 531 68 542 c 0,36,37
 77 552 77 552 93 552 c 0,38,39
 110 552 110 552 118 541 c 1,40,41
 129 533 129 533 129 517 c 2,42,-1
 129 180 l 1,43,-1
 238 71 l 1,44,-1
 546 71 l 1,45,-1
 546 517 l 2,46,47
 546 531 546 531 556 542 c 0,48,49
 566 552 566 552 581 552 c 0,18,19
EndSplineSet
Validated: 1
EndChar

StartChar: uacute
Encoding: 250 250 171
Width: 674
GlyphClass: 2
Flags: W
LayerCount: 2
Fore
SplineSet
334 594 m 2,0,1
 320 586 320 586 307 589 c 0,2,3
 291 592 291 592 284 605 c 0,4,5
 276 619 276 619 280 631 c 0,6,7
 283 646 283 646 295 654 c 2,8,-1
 386 713 l 2,9,10
 400 721 400 721 413 718 c 0,11,12
 428 715 428 715 436 703 c 0,13,14
 444 689 444 689 441 675 c 0,15,16
 438 660 438 660 425 653 c 2,17,-1
 334 594 l 2,0,1
581 552 m 0,18,19
 598 552 598 552 606 541 c 1,20,21
 617 533 617 533 617 517 c 2,22,-1
 617 35 l 2,23,24
 617 21 617 21 606 10 c 0,25,26
 596 0 596 0 581 0 c 2,27,-1
 222 0 l 2,28,29
 207 0 207 0 197 10 c 2,30,-1
 68 140 l 2,31,32
 58 150 58 150 57 165 c 2,33,-1
 57 517 l 2,34,35
 57 531 57 531 68 542 c 0,36,37
 77 552 77 552 93 552 c 0,38,39
 110 552 110 552 118 541 c 1,40,41
 129 533 129 533 129 517 c 2,42,-1
 129 180 l 1,43,-1
 238 71 l 1,44,-1
 546 71 l 1,45,-1
 546 517 l 2,46,47
 546 531 546 531 556 542 c 0,48,49
 566 552 566 552 581 552 c 0,18,19
EndSplineSet
Validated: 1
EndChar

StartChar: ucircumflex
Encoding: 251 251 172
Width: 674
GlyphClass: 2
Flags: W
LayerCount: 2
Fore
SplineSet
392 597 m 2,0,-1
 328 642 l 2,1,2
 315 649 315 649 312 663 c 0,3,4
 307 678 307 678 316 691 c 0,5,6
 321 704 321 704 337 708 c 0,7,8
 348 712 348 712 364 704 c 2,9,-1
 428 660 l 2,10,11
 441 652 441 652 445 638 c 0,12,13
 450 624 450 624 442 611 c 0,14,15
 434 599 434 599 420 594 c 0,16,17
 405 590 405 590 392 597 c 2,0,-1
297 597 m 2,18,19
 284 590 284 590 270 594 c 0,20,21
 253 599 253 599 248 611 c 0,22,23
 239 623 239 623 244 637 c 0,24,25
 248 652 248 652 261 660 c 2,26,-1
 325 704 l 2,27,28
 338 712 338 712 352 707 c 0,29,30
 365 704 365 704 374 691 c 0,31,32
 381 676 381 676 377 663 c 128,-1,33
 373 650 373 650 360 642 c 2,34,-1
 297 597 l 2,18,19
581 552 m 0,35,36
 598 552 598 552 606 541 c 1,37,38
 617 533 617 533 617 517 c 2,39,-1
 617 35 l 2,40,41
 617 21 617 21 606 10 c 0,42,43
 596 0 596 0 581 0 c 2,44,-1
 222 0 l 2,45,46
 207 0 207 0 197 10 c 2,47,-1
 68 140 l 2,48,49
 58 150 58 150 57 165 c 2,50,-1
 57 517 l 2,51,52
 57 531 57 531 68 542 c 0,53,54
 77 552 77 552 93 552 c 0,55,56
 110 552 110 552 118 541 c 1,57,58
 129 533 129 533 129 517 c 2,59,-1
 129 180 l 1,60,-1
 238 71 l 1,61,-1
 546 71 l 1,62,-1
 546 517 l 2,63,64
 546 531 546 531 556 542 c 0,65,66
 566 552 566 552 581 552 c 0,35,36
EndSplineSet
Validated: 5
EndChar

StartChar: udieresis
Encoding: 252 252 173
Width: 674
GlyphClass: 2
Flags: W
LayerCount: 2
Fore
SplineSet
255 634 m 2,0,1
 255 629 255 629 250 621 c 1,2,3
 242 616 242 616 237 616 c 2,4,-1
 177 616 l 2,5,6
 172 616 172 616 164 621 c 1,7,8
 159 629 159 629 159 634 c 2,9,-1
 159 694 l 2,10,11
 159 701 159 701 164 706 c 0,12,13
 172 711 172 711 177 711 c 2,14,-1
 237 711 l 2,15,16
 242 711 242 711 250 706 c 0,17,18
 255 701 255 701 255 694 c 2,19,-1
 255 634 l 2,0,1
219 652 m 1,20,-1
 219 676 l 1,21,-1
 195 676 l 1,22,-1
 195 652 l 1,23,-1
 219 652 l 1,20,-1
516 634 m 2,24,25
 516 627 516 627 510 621 c 0,26,27
 505 616 505 616 498 616 c 2,28,-1
 438 616 l 2,29,30
 431 616 431 616 426 621 c 0,31,32
 420 627 420 627 420 634 c 2,33,-1
 420 693 l 2,34,35
 420 700 420 700 426 705 c 0,36,37
 430 711 430 711 438 711 c 2,38,-1
 498 711 l 2,39,40
 505 711 505 711 510 706 c 0,41,42
 516 702 516 702 516 693 c 2,43,-1
 516 634 l 2,24,25
481 652 m 1,44,-1
 481 676 l 1,45,-1
 456 676 l 1,46,-1
 456 652 l 1,47,-1
 481 652 l 1,44,-1
581 552 m 0,48,49
 598 552 598 552 606 541 c 1,50,51
 617 533 617 533 617 517 c 2,52,-1
 617 35 l 2,53,54
 617 21 617 21 606 10 c 0,55,56
 596 0 596 0 581 0 c 2,57,-1
 222 0 l 2,58,59
 207 0 207 0 197 10 c 2,60,-1
 68 140 l 2,61,62
 58 150 58 150 57 165 c 2,63,-1
 57 517 l 2,64,65
 57 531 57 531 68 542 c 0,66,67
 77 552 77 552 93 552 c 0,68,69
 110 552 110 552 118 541 c 1,70,71
 129 533 129 533 129 517 c 2,72,-1
 129 180 l 1,73,-1
 238 71 l 1,74,-1
 546 71 l 1,75,-1
 546 517 l 2,76,77
 546 531 546 531 556 542 c 0,78,79
 566 552 566 552 581 552 c 0,48,49
EndSplineSet
Validated: 1
EndChar

StartChar: yacute
Encoding: 253 253 174
Width: 673
GlyphClass: 2
Flags: W
LayerCount: 2
Fore
SplineSet
335 611 m 2,0,1
 321 603 321 603 308 606 c 0,2,3
 292 609 292 609 285 622 c 0,4,5
 277 636 277 636 280 648 c 0,6,7
 284 662 284 662 296 671 c 2,8,-1
 387 730 l 2,9,10
 401 738 401 738 414 735 c 0,11,12
 429 732 429 732 437 720 c 0,13,14
 445 706 445 706 442 692 c 0,15,16
 439 677 439 677 426 670 c 2,17,-1
 335 611 l 2,0,1
544 517 m 2,18,19
 544 533 544 533 555 542 c 0,20,21
 566 553 566 553 581 553 c 0,22,23
 597 553 597 553 606 542 c 0,24,25
 617 531 617 531 617 517 c 2,26,-1
 617 -79 l 2,27,28
 617 -93 617 -93 606 -104 c 2,29,-1
 469 -240 l 2,30,31
 459 -250 459 -250 443 -250 c 2,32,-1
 228 -250 l 2,33,34
 214 -250 214 -250 203 -240 c 0,35,36
 192 -226 192 -226 192 -214 c 0,37,38
 192 -200 192 -200 202 -189 c 0,39,40
 216 -178 216 -178 228 -178 c 2,41,-1
 429 -178 l 1,42,-1
 544 -64 l 1,43,-1
 544 0 l 1,44,-1
 218 0 l 2,45,46
 203 0 203 0 193 10 c 2,47,-1
 68 135 l 2,48,49
 58 145 58 145 57 161 c 2,50,-1
 57 517 l 2,51,52
 57 531 57 531 68 542 c 0,53,54
 77 553 77 553 93 553 c 0,55,56
 110 553 110 553 118 542 c 1,57,58
 129 534 129 534 129 517 c 2,59,-1
 129 176 l 1,60,-1
 233 72 l 1,61,-1
 544 72 l 1,62,-1
 544 517 l 2,18,19
EndSplineSet
Validated: 1
EndChar

StartChar: thorn
Encoding: 254 254 175
Width: 674
GlyphClass: 2
Flags: W
LayerCount: 2
Fore
SplineSet
65 -164 m 2,0,-1
 65 761 l 2,1,2
 65 778 65 778 76 786 c 1,3,4
 84 797 84 797 100 797 c 0,5,6
 115 797 115 797 126 786 c 0,7,8
 136 776 136 776 136 761 c 2,9,-1
 136 555 l 1,10,-1
 459 555 l 2,11,12
 473 555 473 555 484 544 c 2,13,-1
 610 421 l 2,14,15
 617 414 617 414 619 405 c 0,16,17
 620 403 620 403 620 396 c 2,18,-1
 620 151 l 2,19,20
 620 135 620 135 610 125 c 2,21,-1
 495 11 l 2,22,23
 485 1 485 1 470 0 c 2,24,-1
 136 0 l 1,25,-1
 136 -164 l 2,26,27
 136 -178 136 -178 126 -189 c 0,28,29
 116 -199 116 -199 100 -199 c 0,30,31
 85 -199 85 -199 75 -189 c 128,-1,32
 65 -179 65 -179 65 -164 c 2,0,-1
549 381 m 1,33,-1
 444 483 l 1,34,-1
 136 483 l 1,35,-1
 136 72 l 1,36,-1
 455 72 l 1,37,-1
 549 165 l 1,38,-1
 549 381 l 1,33,-1
EndSplineSet
Validated: 1
EndChar

StartChar: ydieresis
Encoding: 255 255 176
Width: 673
GlyphClass: 2
Flags: W
LayerCount: 2
Fore
SplineSet
260 635 m 2,0,1
 260 628 260 628 254 622 c 0,2,3
 249 617 249 617 242 617 c 2,4,-1
 182 617 l 2,5,6
 175 617 175 617 170 622 c 0,7,8
 164 628 164 628 164 635 c 2,9,-1
 164 695 l 2,10,11
 164 702 164 702 170 707 c 0,12,13
 175 712 175 712 182 712 c 2,14,-1
 242 712 l 2,15,16
 249 712 249 712 254 707 c 0,17,18
 260 702 260 702 260 695 c 2,19,-1
 260 635 l 2,0,1
224 653 m 1,20,-1
 224 677 l 1,21,-1
 200 677 l 1,22,-1
 200 653 l 1,23,-1
 224 653 l 1,20,-1
521 635 m 2,24,25
 521 630 521 630 516 622 c 1,26,27
 508 617 508 617 503 617 c 2,28,-1
 443 617 l 2,29,30
 438 617 438 617 430 622 c 1,31,32
 425 630 425 630 425 635 c 2,33,-1
 425 694 l 2,34,35
 425 701 425 701 430 706 c 0,36,37
 436 712 436 712 443 712 c 2,38,-1
 503 712 l 2,39,40
 508 712 508 712 516 707 c 0,41,42
 521 702 521 702 521 694 c 2,43,-1
 521 635 l 2,24,25
486 653 m 1,44,-1
 486 677 l 1,45,-1
 461 677 l 1,46,-1
 461 653 l 1,47,-1
 486 653 l 1,44,-1
544 517 m 2,48,49
 544 533 544 533 555 542 c 0,50,51
 566 553 566 553 581 553 c 0,52,53
 597 553 597 553 606 542 c 0,54,55
 617 531 617 531 617 517 c 2,56,-1
 617 -79 l 2,57,58
 617 -93 617 -93 606 -104 c 2,59,-1
 469 -240 l 2,60,61
 459 -250 459 -250 443 -250 c 2,62,-1
 228 -250 l 2,63,64
 214 -250 214 -250 203 -240 c 0,65,66
 192 -226 192 -226 192 -214 c 0,67,68
 192 -200 192 -200 202 -189 c 0,69,70
 216 -178 216 -178 228 -178 c 2,71,-1
 429 -178 l 1,72,-1
 544 -64 l 1,73,-1
 544 0 l 1,74,-1
 218 0 l 2,75,76
 203 0 203 0 193 10 c 2,77,-1
 68 135 l 2,78,79
 58 145 58 145 57 161 c 2,80,-1
 57 517 l 2,81,82
 57 531 57 531 68 542 c 0,83,84
 77 553 77 553 93 553 c 0,85,86
 110 553 110 553 118 542 c 1,87,88
 129 534 129 534 129 517 c 2,89,-1
 129 176 l 1,90,-1
 233 72 l 1,91,-1
 544 72 l 1,92,-1
 544 517 l 2,48,49
EndSplineSet
Validated: 1
EndChar

StartChar: uni013C
Encoding: 316 316 177
Width: 427
GlyphClass: 2
Flags: W
LayerCount: 2
Fore
SplineSet
226 24 m 2,0,-1
 282 -39 l 2,1,2
 290 -50 290 -50 290 -59 c 0,3,4
 290 -69 290 -69 282 -80 c 2,5,-1
 226 -143 l 2,6,7
 217 -153 217 -153 204 -153 c 0,8,9
 193 -153 193 -153 182 -145 c 0,10,11
 172 -136 172 -136 172 -123 c 0,12,13
 171 -113 171 -113 179 -101 c 2,14,-1
 217 -59 l 1,15,-1
 179 -18 l 2,16,17
 170 -7 170 -7 171 5 c 128,-1,18
 172 17 172 17 182 25 c 0,19,20
 191 34 191 34 204 34 c 128,-1,21
 217 34 217 34 226 24 c 2,0,-1
185 722 m 1,22,-1
 93 722 l 2,23,24
 76 722 76 722 68 733 c 1,25,26
 57 741 57 741 57 758 c 128,-1,27
 57 775 57 775 68 783 c 1,28,29
 76 794 76 794 93 794 c 2,30,-1
 220 794 l 2,31,32
 235 794 235 794 246 783 c 0,33,34
 256 773 256 773 256 758 c 2,35,-1
 256 72 l 1,36,-1
 334 72 l 2,37,38
 349 72 349 72 360 61 c 0,39,40
 371 52 371 52 371 37 c 128,-1,41
 371 22 371 22 360 11 c 128,-1,42
 349 0 349 0 334 0 c 2,43,-1
 93 0 l 2,44,45
 77 0 77 0 68 11 c 0,46,47
 57 22 57 22 57 37 c 0,48,49
 57 53 57 53 68 61 c 1,50,51
 76 72 76 72 93 72 c 2,52,-1
 185 72 l 1,53,-1
 185 722 l 1,22,-1
EndSplineSet
Validated: 5
EndChar

StartChar: gravecomb
Encoding: 768 768 178
Width: 236
GlyphClass: 2
Flags: W
LayerCount: 2
Fore
SplineSet
146 771 m 2,0,-1
 55 830 l 2,1,2
 43 839 43 839 39 852 c 0,3,4
 36 866 36 866 44 880 c 0,5,6
 52 892 52 892 67 895 c 0,7,8
 80 898 80 898 94 890 c 2,9,-1
 185 831 l 2,10,11
 197 822 197 822 201 808 c 0,12,13
 204 796 204 796 196 782 c 0,14,15
 189 769 189 769 173 766 c 0,16,17
 160 763 160 763 146 771 c 2,0,-1
EndSplineSet
Validated: 1
EndChar

StartChar: uni0302
Encoding: 770 770 179
Width: 276
GlyphClass: 2
Flags: W
LayerCount: 2
Fore
SplineSet
189 855 m 2,0,-1
 125 900 l 2,1,2
 112 907 112 907 109 922 c 0,3,4
 104 936 104 936 113 949 c 0,5,6
 118 962 118 962 134 966 c 0,7,8
 145 970 145 970 161 962 c 2,9,-1
 225 918 l 2,10,11
 238 910 238 910 242 896 c 0,12,13
 246 883 246 883 239 868 c 0,14,15
 230 856 230 856 217 852 c 0,16,17
 202 848 202 848 189 855 c 2,0,-1
94 855 m 2,18,19
 80 848 80 848 67 852 c 0,20,21
 52 856 52 856 45 868 c 0,22,23
 36 881 36 881 41 896 c 0,24,25
 45 910 45 910 58 918 c 2,26,-1
 122 962 l 2,27,28
 135 969 135 969 149 966 c 0,29,30
 163 961 163 961 171 949 c 0,31,32
 178 934 178 934 174 922 c 0,33,34
 170 908 170 908 157 900 c 2,35,-1
 94 855 l 2,18,19
EndSplineSet
Validated: 5
EndChar

StartChar: acutecomb
Encoding: 769 769 180
Width: 245
GlyphClass: 2
Flags: W
LayerCount: 2
Fore
SplineSet
97 771 m 2,0,1
 83 763 83 763 70 766 c 0,2,3
 54 769 54 769 47 782 c 0,4,5
 39 796 39 796 42 808 c 0,6,7
 46 822 46 822 58 831 c 2,8,-1
 149 890 l 2,9,10
 163 898 163 898 176 895 c 0,11,12
 191 892 191 892 199 880 c 0,13,14
 207 866 207 866 204 852 c 0,15,16
 201 837 201 837 188 830 c 2,17,-1
 97 771 l 2,0,1
EndSplineSet
Validated: 1
EndChar

StartChar: uni0308
Encoding: 776 776 181
Width: 447
GlyphClass: 2
Flags: W
LayerCount: 2
Fore
SplineSet
134 862 m 2,0,1
 134 854 134 854 128 850 c 0,2,3
 124 844 124 844 116 844 c 2,4,-1
 56 844 l 2,5,6
 48 844 48 844 44 850 c 0,7,8
 38 854 38 854 38 862 c 2,9,-1
 38 922 l 2,10,11
 38 930 38 930 44 934 c 0,12,13
 49 939 49 939 56 939 c 2,14,-1
 116 939 l 2,15,16
 123 939 123 939 128 934 c 0,17,18
 134 930 134 930 134 922 c 2,19,-1
 134 862 l 2,0,1
98 880 m 1,20,-1
 98 904 l 1,21,-1
 74 904 l 1,22,-1
 74 880 l 1,23,-1
 98 880 l 1,20,-1
395 862 m 2,24,25
 395 855 395 855 390 850 c 0,26,27
 384 844 384 844 377 844 c 2,28,-1
 317 844 l 2,29,30
 310 844 310 844 304 850 c 0,31,32
 299 855 299 855 299 862 c 2,33,-1
 299 921 l 2,34,35
 299 926 299 926 304 934 c 1,36,37
 312 939 312 939 317 939 c 2,38,-1
 377 939 l 2,39,40
 382 939 382 939 390 934 c 0,41,42
 395 929 395 929 395 921 c 2,43,-1
 395 862 l 2,24,25
360 880 m 1,44,-1
 360 904 l 1,45,-1
 335 904 l 1,46,-1
 335 880 l 1,47,-1
 360 880 l 1,44,-1
EndSplineSet
Validated: 1
EndChar

StartChar: tildecomb
Encoding: 771 771 182
Width: 392
GlyphClass: 2
Flags: W
LayerCount: 2
Fore
SplineSet
89 831 m 2,0,1
 76 826 76 826 62 829 c 0,2,3
 47 836 47 836 40 847 c 0,4,5
 34 860 34 860 39 875 c 0,6,7
 44 889 44 889 58 896 c 2,8,-1
 139 935 l 2,9,10
 155 942 155 942 170 935 c 2,11,-1
 236 903 l 1,12,-1
 302 935 l 2,13,14
 315 940 315 940 330 937 c 0,15,16
 344 931 344 931 350 919 c 0,17,18
 357 906 357 906 352 891 c 0,19,20
 347 877 347 877 334 871 c 2,21,-1
 252 831 l 2,22,23
 236 824 236 824 221 831 c 2,24,-1
 155 863 l 1,25,-1
 89 831 l 2,0,1
EndSplineSet
Validated: 1
EndChar

StartChar: uni0327
Encoding: 807 807 183
Width: 244
GlyphClass: 2
Flags: W
LayerCount: 2
Fore
SplineSet
64 -105 m 2,0,1
 48 -105 48 -105 37 -116 c 128,-1,2
 26 -127 26 -127 26 -143 c 128,-1,3
 26 -159 26 -159 37 -170 c 128,-1,4
 48 -181 48 -181 64 -181 c 2,5,-1
 144 -181 l 2,6,7
 160 -181 160 -181 171 -170 c 2,8,-1
 209 -133 l 2,9,10
 220 -122 220 -122 220 -106 c 2,11,-1
 220 -50 l 2,12,13
 220 -34 220 -34 209 -23 c 2,14,-1
 163 23 l 2,15,16
 152 34 152 34 136 34 c 2,17,-1
 102 34 l 1,18,-1
 102 50 l 2,19,20
 102 64 102 64 91 78 c 0,21,22
 80 89 80 89 64 89 c 128,-1,23
 48 89 48 89 37 78 c 0,24,25
 26 64 26 64 26 50 c 2,26,-1
 26 -4 l 2,27,28
 26 -20 26 -20 37 -31 c 128,-1,29
 48 -42 48 -42 64 -42 c 2,30,-1
 120 -42 l 1,31,-1
 143 -66 l 1,32,-1
 143 -90 l 1,33,-1
 129 -105 l 1,34,-1
 64 -105 l 2,0,1
EndSplineSet
Validated: 9
EndChar

StartChar: dotlessi
Encoding: 305 305 184
Width: 421
GlyphClass: 2
Flags: W
LayerCount: 2
Fore
SplineSet
188 71 m 1,0,-1
 188 482 l 1,1,-1
 99 482 l 2,2,3
 84 482 84 482 74 492 c 128,-1,4
 64 502 64 502 64 517 c 0,5,6
 64 533 64 533 74 543 c 0,7,8
 85 553 85 553 99 553 c 2,9,-1
 224 553 l 2,10,11
 238 553 238 553 249 543 c 0,12,13
 259 533 259 533 259 517 c 2,14,-1
 259 71 l 1,15,-1
 334 71 l 2,16,17
 349 71 349 71 359 61 c 0,18,19
 370 50 370 50 370 35 c 0,20,21
 370 19 370 19 359 11 c 1,22,23
 351 0 351 0 334 0 c 2,24,-1
 99 0 l 2,25,26
 85 0 85 0 74 11 c 0,27,28
 64 20 64 20 64 35 c 0,29,30
 64 51 64 51 74 61 c 0,31,32
 85 71 85 71 99 71 c 2,33,-1
 188 71 l 1,0,-1
EndSplineSet
Validated: 1
EndChar

StartChar: ring
Encoding: 730 730 185
Width: 229
GlyphClass: 2
Flags: W
LayerCount: 2
Fore
SplineSet
136 930 m 2,0,-1
 189 877 l 2,1,2
 197 869 197 869 197 857 c 0,3,4
 197 847 197 847 189 836 c 2,5,-1
 135 782 l 2,6,7
 127 774 127 774 114 774 c 0,8,9
 102 774 102 774 94 782 c 2,10,-1
 41 836 l 2,11,12
 32 845 32 845 32 856 c 0,13,14
 32 868 32 868 41 877 c 2,15,-1
 95 930 l 2,16,17
 103 938 103 938 116 938 c 0,18,19
 128 938 128 938 136 930 c 2,0,-1
115 869 m 1,20,-1
 102 856 l 1,21,-1
 114 844 l 1,22,-1
 127 857 l 1,23,-1
 115 869 l 1,20,-1
EndSplineSet
Validated: 1
EndChar

StartChar: uni030A
Encoding: 778 778 186
Width: 218
GlyphClass: 2
Flags: W
LayerCount: 2
Fore
SplineSet
130 932 m 2,0,-1
 183 879 l 2,1,2
 191 871 191 871 191 859 c 0,3,4
 191 849 191 849 183 838 c 2,5,-1
 129 784 l 2,6,7
 121 776 121 776 108 776 c 0,8,9
 96 776 96 776 88 784 c 2,10,-1
 35 838 l 2,11,12
 26 847 26 847 26 858 c 0,13,14
 26 870 26 870 35 879 c 2,15,-1
 89 932 l 2,16,17
 97 940 97 940 110 940 c 0,18,19
 122 940 122 940 130 932 c 2,0,-1
109 871 m 1,20,-1
 96 858 l 1,21,-1
 108 846 l 1,22,-1
 121 859 l 1,23,-1
 109 871 l 1,20,-1
EndSplineSet
Validated: 1
EndChar

StartChar: cacute
Encoding: 263 263 187
Width: 674
GlyphClass: 2
Flags: W
LayerCount: 2
Fore
SplineSet
393 627 m 2,0,1
 379 619 379 619 366 622 c 0,2,3
 351 625 351 625 343 637 c 0,4,5
 335 651 335 651 338 665 c 0,6,7
 342 678 342 678 354 687 c 2,8,-1
 445 746 l 2,9,10
 459 754 459 754 472 751 c 0,11,12
 488 748 488 748 495 735 c 0,13,14
 503 721 503 721 500 709 c 0,15,16
 497 693 497 693 484 686 c 2,17,-1
 393 627 l 2,0,1
129 379 m 1,18,-1
 129 164 l 1,19,-1
 222 71 l 1,20,-1
 582 71 l 2,21,22
 596 71 596 71 606 61 c 0,23,24
 617 50 617 50 617 35 c 0,25,26
 617 21 617 21 606 10 c 0,27,28
 597 0 597 0 582 0 c 2,29,-1
 207 0 l 2,30,31
 192 0 192 0 182 10 c 2,32,-1
 68 125 l 2,33,34
 58 135 58 135 57 150 c 2,35,-1
 57 394 l 1,36,-1
 58 396 l 2,37,38
 58 397 58 397 58.5 399 c 128,-1,39
 59 401 59 401 59 403 c 0,40,41
 60 412 60 412 68 420 c 2,42,-1
 193 543 l 2,43,44
 203 553 203 553 219 553 c 2,45,-1
 582 553 l 2,46,47
 596 553 596 553 607 543 c 0,48,49
 617 533 617 533 617 517 c 0,50,51
 617 503 617 503 606 492 c 0,52,53
 597 482 597 482 582 482 c 2,54,-1
 233 482 l 1,55,-1
 129 379 l 1,18,-1
EndSplineSet
Validated: 1
EndChar

StartChar: Cacute
Encoding: 262 262 188
Width: 672
GlyphClass: 2
Flags: W
LayerCount: 2
Fore
SplineSet
314 812 m 2,0,1
 300 804 300 804 287 807 c 0,2,3
 271 810 271 810 264 823 c 0,4,5
 256 837 256 837 260 849 c 0,6,7
 263 864 263 864 275 872 c 2,8,-1
 366 931 l 2,9,10
 380 939 380 939 393 936 c 0,11,12
 408 933 408 933 416 921 c 0,13,14
 424 907 424 907 421 893 c 0,15,16
 418 878 418 878 405 871 c 2,17,-1
 314 812 l 2,0,1
605 179 m 0,18,19
 614 170 614 170 616 153 c 0,20,21
 616 139 616 139 605 128 c 2,22,-1
 485 10 l 2,23,24
 475 0 475 0 460 0 c 2,25,-1
 216 0 l 2,26,27
 202 0 202 0 192 9 c 2,28,-1
 68 128 l 2,29,30
 57 139 57 139 57 153 c 2,31,-1
 57 633 l 2,32,33
 57 649 57 649 68 658 c 2,34,-1
 191 782 l 2,35,36
 201 792 201 792 216 792 c 2,37,-1
 460 792 l 2,38,39
 475 792 475 792 485 782 c 0,40,41
 491 776 491 776 504.5 762 c 128,-1,42
 518 748 518 748 530.5 736 c 128,-1,43
 543 724 543 724 555 712 c 0,44,45
 582 684 582 684 605 661 c 0,46,47
 614 652 614 652 616 635 c 0,48,49
 616 622 616 622 605 611 c 0,50,51
 595 601 595 601 580 601 c 0,52,53
 566 600 566 600 555 611 c 2,54,-1
 497 669 l 1,55,-1
 474 692 l 1,56,-1
 454 712 l 1,57,-1
 445 721 l 1,58,-1
 231 721 l 1,59,-1
 129 619 l 1,60,-1
 129 169 l 1,61,-1
 231 71 l 1,62,-1
 445 71 l 1,63,-1
 555 179 l 2,64,65
 565 189 565 189 580 189 c 128,-1,66
 595 189 595 189 605 179 c 0,18,19
EndSplineSet
Validated: 1
EndChar

StartChar: Ccircumflex
Encoding: 264 264 189
Width: 672
GlyphClass: 2
Flags: W
LayerCount: 2
Fore
SplineSet
386 822 m 2,0,-1
 322 867 l 2,1,2
 309 874 309 874 306 889 c 0,3,4
 301 903 301 903 310 916 c 0,5,6
 315 929 315 929 331 933 c 0,7,8
 342 937 342 937 358 929 c 2,9,-1
 422 885 l 2,10,11
 435 877 435 877 439 863 c 0,12,13
 443 850 443 850 436 835 c 0,14,15
 427 823 427 823 414 819 c 0,16,17
 399 815 399 815 386 822 c 2,0,-1
291 822 m 2,18,19
 278 814 278 814 264 819 c 0,20,21
 249 823 249 823 242 835 c 0,22,23
 233 848 233 848 238 863 c 0,24,25
 242 877 242 877 255 885 c 2,26,-1
 319 929 l 2,27,28
 332 936 332 936 346 933 c 0,29,30
 360 928 360 928 368 916 c 0,31,32
 376 901 376 901 371 889 c 0,33,34
 367 875 367 875 354 867 c 2,35,-1
 291 822 l 2,18,19
605 179 m 0,36,37
 614 170 614 170 616 153 c 0,38,39
 616 139 616 139 605 128 c 2,40,-1
 485 10 l 2,41,42
 475 0 475 0 460 0 c 2,43,-1
 216 0 l 2,44,45
 202 0 202 0 192 9 c 2,46,-1
 68 128 l 2,47,48
 57 139 57 139 57 153 c 2,49,-1
 57 633 l 2,50,51
 57 649 57 649 68 658 c 2,52,-1
 191 782 l 2,53,54
 201 792 201 792 216 792 c 2,55,-1
 460 792 l 2,56,57
 475 792 475 792 485 782 c 0,58,59
 491 776 491 776 504.5 762 c 128,-1,60
 518 748 518 748 530.5 736 c 128,-1,61
 543 724 543 724 555 712 c 0,62,63
 582 684 582 684 605 661 c 0,64,65
 614 652 614 652 616 635 c 0,66,67
 616 622 616 622 605 611 c 0,68,69
 595 601 595 601 580 601 c 0,70,71
 566 600 566 600 555 611 c 2,72,-1
 497 669 l 1,73,-1
 474 692 l 1,74,-1
 454 712 l 1,75,-1
 445 721 l 1,76,-1
 231 721 l 1,77,-1
 129 619 l 1,78,-1
 129 169 l 1,79,-1
 231 71 l 1,80,-1
 445 71 l 1,81,-1
 555 179 l 2,82,83
 565 189 565 189 580 189 c 128,-1,84
 595 189 595 189 605 179 c 0,36,37
EndSplineSet
Validated: 5
EndChar

StartChar: ccircumflex
Encoding: 265 265 190
Width: 674
GlyphClass: 2
Flags: W
LayerCount: 2
Fore
SplineSet
442 614 m 2,0,-1
 378 659 l 2,1,2
 365 666 365 666 362 681 c 0,3,4
 357 695 357 695 366 708 c 0,5,6
 371 721 371 721 387 725 c 0,7,8
 398 729 398 729 414 721 c 2,9,-1
 478 677 l 2,10,11
 491 669 491 669 495 655 c 0,12,13
 499 642 499 642 492 627 c 0,14,15
 483 615 483 615 470 611 c 0,16,17
 455 607 455 607 442 614 c 2,0,-1
347 614 m 2,18,19
 334 606 334 606 320 611 c 0,20,21
 305 615 305 615 298 627 c 0,22,23
 289 640 289 640 294 655 c 0,24,25
 298 669 298 669 311 677 c 2,26,-1
 375 721 l 2,27,28
 388 728 388 728 402 725 c 0,29,30
 416 720 416 720 424 708 c 0,31,32
 432 693 432 693 427 681 c 0,33,34
 423 667 423 667 410 659 c 2,35,-1
 347 614 l 2,18,19
129 379 m 1,36,-1
 129 164 l 1,37,-1
 222 71 l 1,38,-1
 582 71 l 2,39,40
 596 71 596 71 606 61 c 0,41,42
 617 50 617 50 617 35 c 0,43,44
 617 21 617 21 606 10 c 0,45,46
 597 0 597 0 582 0 c 2,47,-1
 207 0 l 2,48,49
 192 0 192 0 182 10 c 2,50,-1
 68 125 l 2,51,52
 58 135 58 135 57 150 c 2,53,-1
 57 394 l 1,54,-1
 58 396 l 2,55,56
 58 397 58 397 58.5 399 c 128,-1,57
 59 401 59 401 59 403 c 0,58,59
 60 412 60 412 68 420 c 2,60,-1
 193 543 l 2,61,62
 203 553 203 553 219 553 c 2,63,-1
 582 553 l 2,64,65
 596 553 596 553 607 543 c 0,66,67
 617 533 617 533 617 517 c 0,68,69
 617 503 617 503 606 492 c 0,70,71
 597 482 597 482 582 482 c 2,72,-1
 233 482 l 1,73,-1
 129 379 l 1,36,-1
EndSplineSet
Validated: 5
EndChar

StartChar: gcircumflex
Encoding: 285 285 191
Width: 673
GlyphClass: 2
Flags: W
LayerCount: 2
Fore
SplineSet
446 615 m 2,0,-1
 382 660 l 2,1,2
 369 667 369 667 366 682 c 0,3,4
 361 696 361 696 370 709 c 0,5,6
 375 722 375 722 391 726 c 0,7,8
 402 730 402 730 418 722 c 2,9,-1
 482 678 l 2,10,11
 495 670 495 670 499 656 c 0,12,13
 503 643 503 643 496 628 c 0,14,15
 487 616 487 616 474 612 c 0,16,17
 459 608 459 608 446 615 c 2,0,-1
351 615 m 2,18,19
 338 608 338 608 324 612 c 0,20,21
 309 616 309 616 302 628 c 0,22,23
 293 641 293 641 298 656 c 0,24,25
 302 670 302 670 315 678 c 2,26,-1
 379 722 l 2,27,28
 392 729 392 729 406 726 c 0,29,30
 420 721 420 721 428 709 c 0,31,32
 436 694 436 694 431 682 c 0,33,34
 427 668 427 668 414 660 c 2,35,-1
 351 615 l 2,18,19
606 -104 m 2,36,-1
 471 -239 l 2,37,38
 461 -249 461 -249 446 -249 c 2,39,-1
 227 -249 l 2,40,41
 210 -249 210 -249 202 -238 c 1,42,43
 191 -230 191 -230 191 -214 c 0,44,45
 191 -199 191 -199 202 -188 c 0,46,47
 212 -178 212 -178 227 -178 c 2,48,-1
 431 -178 l 1,49,-1
 546 -64 l 1,50,-1
 546 0 l 1,51,-1
 216 0 l 2,52,53
 201 0 201 0 191 10 c 2,54,-1
 68 134 l 2,55,56
 58 142 58 142 57 158 c 2,57,-1
 57 398 l 2,58,59
 57 412 57 412 68 423 c 2,60,-1
 191 543 l 2,61,62
 201 553 201 553 216 553 c 2,63,-1
 581 553 l 2,64,65
 598 553 598 553 606 542 c 1,66,67
 617 534 617 534 617 518 c 2,68,-1
 617 -79 l 2,69,70
 617 -93 617 -93 606 -104 c 2,36,-1
540 484 m 1,71,-1
 225 484 l 1,72,-1
 123 384 l 1,73,-1
 123 175 l 1,74,-1
 225 72 l 1,75,-1
 540 72 l 1,76,-1
 540 484 l 1,71,-1
EndSplineSet
Validated: 5
EndChar

StartChar: Nacute
Encoding: 323 323 192
Width: 674
GlyphClass: 2
Flags: W
LayerCount: 2
Fore
SplineSet
340 809 m 2,0,1
 326 801 326 801 313 804 c 0,2,3
 297 807 297 807 290 820 c 0,4,5
 282 834 282 834 286 846 c 0,6,7
 289 861 289 861 301 869 c 2,8,-1
 392 928 l 2,9,10
 406 936 406 936 419 933 c 0,11,12
 434 930 434 930 442 918 c 0,13,14
 450 904 450 904 447 890 c 0,15,16
 444 875 444 875 431 868 c 2,17,-1
 340 809 l 2,0,1
93 0 m 128,-1,19
 78 0 78 0 68 10 c 0,20,21
 57 21 57 21 57 36 c 2,22,-1
 57 757 l 2,23,24
 57 768 57 768 64 778 c 0,25,26
 73 787 73 787 82 791 c 0,27,28
 109 799 109 799 122 777 c 2,29,-1
 546 152 l 1,30,-1
 546 757 l 2,31,32
 546 771 546 771 556 782 c 0,33,34
 570 793 570 793 582 793 c 0,35,36
 596 793 596 793 607 782 c 0,37,38
 617 772 617 772 617 757 c 2,39,-1
 617 36 l 2,40,41
 617 25 617 25 610 15 c 0,42,43
 604 5 604 5 592 2 c 0,44,45
 567 -5 567 -5 553 16 c 2,46,-1
 129 641 l 1,47,-1
 129 36 l 2,48,49
 129 21 129 21 118 10 c 0,50,18
 108 0 108 0 93 0 c 128,-1,19
EndSplineSet
Validated: 33
EndChar

